<svg id="Layer_1" data-name="Layer 1" xmlns="http://www.w3.org/2000/svg" viewBox="0 0 56.56 59.93">
  <defs>
    <style>
      .cls-1 {
        fill: none;
        stroke: #1d1d1b;
        stroke-miterlimit: 10;
        stroke-width: 2px;
      }

      .cls-2 {
        fill: #1d1d1b;
      }

      .cls-3 {
        fill: #fff;
      }
    </style>
  </defs>
  <ellipse class="cls-1" cx="28.28" cy="29.96" rx="27.28" ry="28.96"/>
  <path class="cls-2" d="M41.36,20.21c-.6,2.09-3.09,3.45-2.89,6.5.1,1.63.89,2.49.33,3.51-.75,1.38-2.59.55-4.1,2-1.8,1.69-.43,4.05-2.24,5.54-.95.78-2.14.8-4.17.83s-3.1,0-4-.66c-1.72-1.35-.5-3.52-2.19-5.13s-3.43-.43-4.49-1.88c-.81-1.14,0-2.22-.16-4.34-.24-3.28-2.38-4.31-2.93-6.34C13.33,15.88,19.32,6.78,27.93,6.78S42.57,16,41.36,20.21Z"/>
  <ellipse class="cls-3" cx="22.78" cy="21.41" rx="3.04" ry="2.44" transform="translate(-5.41 7.91) rotate(-17.63)"/>
  <ellipse class="cls-3" cx="33.53" cy="21.38" rx="2.42" ry="3.07" transform="translate(2.65 46.44) rotate(-71.58)"/>
  <path class="cls-3" d="M26.16,28l2.23-3.69,2.31,3.52-2.27.09Z"/>
  <g>
    <path class="cls-2" d="M16.72,42.73l1.37-2.36,23,7-.92,2.51Z"/>
    <path class="cls-2" d="M18,41.31a3.74,3.74,0,0,1-2.75,2.31c-.09,0-2.2.46-3-.61A1.36,1.36,0,0,1,12,41.68c.33-.67,1.38-.66,1.42-1.15,0-.28-.33-.35-.53-.87a1.56,1.56,0,0,1,0-1.08c.36-.88,2.58-1.42,4-.52A2.89,2.89,0,0,1,18,41.31Z"/>
    <path class="cls-2" d="M40.28,48.64C39.47,49.81,39,50,39,50.63a1.5,1.5,0,0,0,.42,1.15,2.31,2.31,0,0,0,2.59.07,2.21,2.21,0,0,0,1-1.12c.13-.38.06-.64.27-.76s.45.1,1,.17a2.59,2.59,0,0,0,1.41-.21,1.56,1.56,0,0,0,.85-.77,1.61,1.61,0,0,0-.46-1.5A3.11,3.11,0,0,0,44,47a4,4,0,0,0-2.9.35C40.75,47.65,40.91,47.72,40.28,48.64Z"/>
  </g>
  <g>
    <path class="cls-2" d="M40.32,42.51,39,40.14l-23,7,.91,2.51Z"/>
    <path class="cls-2" d="M39,41.09a3.74,3.74,0,0,0,2.75,2.31c.09,0,2.2.46,3-.61A1.36,1.36,0,0,0,45,41.46c-.33-.68-1.38-.66-1.42-1.15,0-.28.33-.35.53-.87a1.56,1.56,0,0,0,0-1.08c-.36-.88-2.58-1.42-4-.52A2.89,2.89,0,0,0,39,41.09Z"/>
    <path class="cls-2" d="M16.77,48.42c.8,1.17,1.26,1.34,1.31,2a1.54,1.54,0,0,1-.42,1.15,2.32,2.32,0,0,1-2.6.07,2.21,2.21,0,0,1-1-1.12c-.13-.38-.06-.64-.27-.77s-.45.1-1,.18a2.59,2.59,0,0,1-1.41-.21,1.51,1.51,0,0,1-.84-.77,1.56,1.56,0,0,1,.46-1.5,3.06,3.06,0,0,1,2-.63,4,4,0,0,1,2.91.35C16.29,47.43,16.13,47.5,16.77,48.42Z"/>
  </g>
</svg>
