<svg id="Layer_1" data-name="Layer 1" xmlns="http://www.w3.org/2000/svg" viewBox="0 0 188.34 61.06">
  <defs>
    <style>
      .cls-1, .cls-2 {
        fill: none;
        stroke-miterlimit: 10;
        stroke-width: 2px;
      }

      .cls-1 {
        stroke: #1d1d1b;
      }

      .cls-2 {
        stroke: #ededed;
      }
    </style>
  </defs>
  <ellipse class="cls-1" cx="28.28" cy="29.96" rx="27.28" ry="28.96"/>
  <ellipse class="cls-2" cx="160.06" cy="31.1" rx="27.28" ry="28.96"/>
  <ellipse class="cls-2" cx="93.15" cy="31.1" rx="27.28" ry="28.96"/>
  <path class="cls-2" d="M89.55,44.5c-.73,2.54-3.23,5-5.88,4.88S79,46.82,78.28,44.5c-1-3.22.71-5.45,3.11-13.48.87-2.91,1.45-5.36,1.82-7a74.85,74.85,0,0,0,2.91,9.06C88.58,39.32,90.41,41.52,89.55,44.5Z"/>
  <path class="cls-1" d="M34.46,39.4c-.73,2.55-3.24,5-5.89,4.88S24,41.72,23.19,39.4c-1.05-3.22.71-5.45,3.1-13.47.87-2.92,1.46-5.36,1.83-7A74.29,74.29,0,0,0,31,28C33.48,34.22,35.31,36.42,34.46,39.4Z"/>
  <path class="cls-2" d="M110.06,37.77c-.73,2.54-3.24,5-5.88,4.88s-4.63-2.56-5.39-4.88c-1.05-3.22.71-5.45,3.1-13.48.87-2.91,1.46-5.36,1.83-7a74.85,74.85,0,0,0,2.91,9.06C109.08,32.59,110.91,34.79,110.06,37.77Z"/>
  <path class="cls-2" d="M180.17,33c-.73,2.55-3.23,5-5.88,4.88s-4.63-2.56-5.39-4.88c-1-3.22.71-5.45,3.11-13.47.87-2.92,1.45-5.36,1.82-7a74.29,74.29,0,0,0,2.91,9.06C179.2,27.78,181,30,180.17,33Z"/>
  <path class="cls-2" d="M167,50.45c-.73,2.55-3.23,5-5.88,4.88s-4.63-2.56-5.39-4.88c-1.05-3.21.71-5.45,3.1-13.47.88-2.92,1.46-5.36,1.83-7A74.88,74.88,0,0,0,163.56,39C166,45.28,167.84,47.48,167,50.45Z"/>
  <path class="cls-2" d="M152.11,41.18c-.73,2.55-3.23,5-5.88,4.88s-4.63-2.56-5.39-4.88c-1.05-3.22.71-5.45,3.11-13.47.87-2.92,1.45-5.36,1.82-7a74.29,74.29,0,0,0,2.91,9.06C151.13,36,153,38.2,152.11,41.18Z"/>
</svg>
