<svg id="Layer_1" data-name="Layer 1" xmlns="http://www.w3.org/2000/svg" viewBox="0 0 188.72 60.7">
  <defs>
    <style>
      .cls-1, .cls-2, .cls-3 {
        fill: none;
        stroke-miterlimit: 10;
      }

      .cls-1 {
        stroke: #1d1d1b;
      }

      .cls-1, .cls-2 {
        stroke-width: 2px;
      }

      .cls-2, .cls-3 {
        stroke: #ededed;
      }

      .cls-4 {
        fill: #fff;
      }

      .cls-5 {
        fill: #ededed;
      }

      .cls-6 {
        fill: #1d1d1b;
      }
    </style>
  </defs>
  <ellipse class="cls-1" cx="28.28" cy="30.73" rx="27.28" ry="28.96"/>
  <ellipse class="cls-2" cx="94.36" cy="29.96" rx="27.28" ry="28.96"/>
  <ellipse class="cls-2" cx="160.44" cy="30.73" rx="27.28" ry="28.96"/>
  <g>
    <ellipse class="cls-3" cx="160.06" cy="30.73" rx="7.73" ry="7.77"/>
    <line class="cls-3" x1="160.06" y1="9.49" x2="160.06" y2="22.96"/>
    <line class="cls-3" x1="174.89" y1="15.28" x2="166.39" y2="25.68"/>
    <line class="cls-3" x1="154.71" y1="24.87" x2="146.63" y2="14.13"/>
    <line class="cls-3" x1="173.97" y1="47.11" x2="165.89" y2="36.37"/>
    <line class="cls-3" x1="154.56" y1="36.6" x2="146.06" y2="47"/>
    <line class="cls-3" x1="138.92" y1="30.73" x2="152.32" y2="30.73"/>
    <line class="cls-3" x1="160.06" y1="38.51" x2="160.06" y2="51.97"/>
    <line class="cls-3" x1="181.19" y1="30.73" x2="167.79" y2="30.73"/>
  </g>
  <g>
    <ellipse class="cls-3" cx="100.08" cy="19.5" rx="5.5" ry="5.09"/>
    <line class="cls-3" x1="100.08" y1="5.59" x2="100.08" y2="14.41"/>
    <line class="cls-3" x1="110.63" y1="9.38" x2="104.58" y2="16.19"/>
    <line class="cls-3" x1="96.28" y1="15.65" x2="90.53" y2="8.62"/>
    <line class="cls-3" x1="109.98" y1="30.22" x2="104.23" y2="23.18"/>
    <line class="cls-3" x1="96.17" y1="23.34" x2="90.12" y2="30.15"/>
    <line class="cls-3" x1="85.05" y1="19.5" x2="94.58" y2="19.5"/>
    <line class="cls-3" x1="100.08" y1="24.59" x2="100.08" y2="33.41"/>
    <line class="cls-3" x1="115.11" y1="19.5" x2="105.58" y2="19.5"/>
  </g>
  <g>
    <path class="cls-4" d="M77.76,29.36c-1.44-2,.25-5.05,2.63-5.57s4.83.89,6.38,2.77a10.76,10.76,0,0,1,6.33-5.19c2.72-.66,6,.59,7,3.22A6.35,6.35,0,0,1,111.85,28a2.44,2.44,0,0,0,.21,1.45,2.52,2.52,0,0,0,1.43.75,6,6,0,0,1,3.68,7.41A6,6,0,0,1,109.61,41c.17,3.86-4,6.9-7.83,6.58s-7.08-3.15-9.11-6.43A14.65,14.65,0,0,1,86.24,46c-2.23.87-4.93,1.12-6.89-.25s-2.43-4.78-.42-6.08a4.72,4.72,0,0,1-1.18-9.34"/>
    <path class="cls-5" d="M78,29.23c-1.25-1.9.15-4.47,2.19-5.12,2.43-.78,4.9.86,6.42,2.63a.26.26,0,0,0,.39,0c1.45-2.33,3.55-4.53,6.34-5.11a5.76,5.76,0,0,1,6.52,3.07.25.25,0,0,0,.45.06A6.2,6.2,0,0,1,109,22.92a6.42,6.42,0,0,1,2.57,4.41c.12,1.14-.23,2.25,1,2.83.6.29,1.26.4,1.84.74a5.59,5.59,0,0,1,1.79,1.7,5.68,5.68,0,0,1,.87,4.49,5.69,5.69,0,0,1-7.39,3.68.26.26,0,0,0-.32.24c0,3.82-3.81,6.54-7.41,6.34C98,47.13,94.88,44.18,92.89,41a.25.25,0,0,0-.43,0c-2.17,2.82-5.56,5.21-9.19,5.45-1.75.12-3.73-.34-4.73-1.9s-1-3.57.52-4.65a.26.26,0,0,0-.13-.47,4.47,4.47,0,0,1-1.11-8.85c.31-.07.18-.56-.13-.48a5.16,5.16,0,0,0-4,5.5A5.17,5.17,0,0,0,78.93,40l-.13-.46a3.66,3.66,0,0,0-1.26,4,4.68,4.68,0,0,0,3.79,3.34c4.41.89,9-2.26,11.56-5.59h-.43c2.18,3.45,5.82,6.75,10.17,6.57,3.65-.15,7.28-3,7.23-6.84l-.31.24c4.85,1.79,9.73-3.08,7.63-7.89a6.26,6.26,0,0,0-2.24-2.72,7,7,0,0,0-1.7-.76c-1.3-.45-1-1.82-1.22-2.92a6.59,6.59,0,0,0-12.16-2.5l.46.06A6.17,6.17,0,0,0,93.9,21c-3.23.33-5.72,2.83-7.35,5.45l.39-.05c-1.75-2-4.83-3.86-7.53-2.49-2,1-3.15,3.63-1.86,5.6.17.27.61,0,.43-.26Z"/>
  </g>
  <path class="cls-6" d="M10.57,28.24c-1.25-1.91.15-4.47,2.19-5.12,2.43-.78,4.9.86,6.42,2.62a.25.25,0,0,0,.39,0c1.45-2.33,3.55-4.53,6.34-5.11a5.75,5.75,0,0,1,6.52,3.08.26.26,0,0,0,.46.06,6.19,6.19,0,0,1,8.7-1.8,6.37,6.37,0,0,1,2.57,4.42c.12,1.13-.22,2.24,1,2.83.6.28,1.26.39,1.84.73a5.8,5.8,0,0,1,2.66,6.2,5.7,5.7,0,0,1-7.39,3.68A.25.25,0,0,0,42,40c0,3.81-3.81,6.53-7.41,6.33-3.91-.22-7.06-3.17-9.06-6.31a.25.25,0,0,0-.43,0c-2.16,2.81-5.56,5.2-9.19,5.45-1.75.11-3.73-.35-4.73-1.91s-1-3.57.52-4.65a.25.25,0,0,0-.13-.46,4.47,4.47,0,0,1-1.11-8.86c.31-.07.18-.55-.13-.48a5.16,5.16,0,0,0-4,5.5A5.18,5.18,0,0,0,11.52,39l-.12-.47a3.65,3.65,0,0,0-1.27,4,4.7,4.7,0,0,0,3.79,3.35c4.41.88,9-2.26,11.56-5.59h-.43c2.18,3.44,5.82,6.74,10.17,6.56,3.66-.14,7.28-3,7.23-6.83l-.31.24c4.85,1.78,9.73-3.09,7.63-7.9a6.26,6.26,0,0,0-2.24-2.72,7,7,0,0,0-1.7-.76c-1.3-.45-1-1.82-1.22-2.92a6.59,6.59,0,0,0-12.16-2.5l.46.06A6.16,6.16,0,0,0,26.49,20c-3.23.33-5.72,2.83-7.35,5.45l.39-.05c-1.75-2-4.83-3.87-7.53-2.5-2,1-3.15,3.63-1.86,5.6.17.27.61,0,.43-.25Z"/>
</svg>
