<svg id="Layer_1" data-name="Layer 1" xmlns="http://www.w3.org/2000/svg" viewBox="0 0 188.72 60.7">
  <defs>
    <style>
      .cls-1, .cls-2, .cls-3, .cls-4 {
        fill: none;
        stroke-miterlimit: 10;
      }

      .cls-1, .cls-4 {
        stroke: #ededed;
      }

      .cls-1, .cls-2 {
        stroke-width: 2px;
      }

      .cls-2, .cls-3 {
        stroke: #1d1d1b;
      }

      .cls-5 {
        fill: #fff;
      }

      .cls-6 {
        fill: #ededed;
      }
    </style>
  </defs>
  <ellipse class="cls-1" cx="28.28" cy="30.73" rx="27.28" ry="28.96"/>
  <ellipse class="cls-1" cx="94.36" cy="29.96" rx="27.28" ry="28.96"/>
  <ellipse class="cls-2" cx="160.44" cy="30.73" rx="27.28" ry="28.96"/>
  <g>
    <ellipse class="cls-3" cx="160.06" cy="30.73" rx="7.73" ry="7.77"/>
    <line class="cls-3" x1="160.06" y1="9.49" x2="160.06" y2="22.96"/>
    <line class="cls-3" x1="174.89" y1="15.28" x2="166.39" y2="25.68"/>
    <line class="cls-3" x1="154.71" y1="24.87" x2="146.63" y2="14.13"/>
    <line class="cls-3" x1="173.97" y1="47.11" x2="165.89" y2="36.37"/>
    <line class="cls-3" x1="154.56" y1="36.6" x2="146.06" y2="47"/>
    <line class="cls-3" x1="138.92" y1="30.73" x2="152.32" y2="30.73"/>
    <line class="cls-3" x1="160.06" y1="38.51" x2="160.06" y2="51.97"/>
    <line class="cls-3" x1="181.19" y1="30.73" x2="167.79" y2="30.73"/>
  </g>
  <g>
    <ellipse class="cls-4" cx="100.08" cy="19.5" rx="5.5" ry="5.09"/>
    <line class="cls-4" x1="100.08" y1="5.59" x2="100.08" y2="14.41"/>
    <line class="cls-4" x1="110.63" y1="9.38" x2="104.58" y2="16.19"/>
    <line class="cls-4" x1="96.28" y1="15.65" x2="90.53" y2="8.62"/>
    <line class="cls-4" x1="109.98" y1="30.22" x2="104.23" y2="23.18"/>
    <line class="cls-4" x1="96.17" y1="23.34" x2="90.12" y2="30.15"/>
    <line class="cls-4" x1="85.05" y1="19.5" x2="94.58" y2="19.5"/>
    <line class="cls-4" x1="100.08" y1="24.59" x2="100.08" y2="33.41"/>
    <line class="cls-4" x1="115.11" y1="19.5" x2="105.58" y2="19.5"/>
  </g>
  <g>
    <path class="cls-5" d="M77.76,29.36c-1.44-2,.25-5.05,2.63-5.57s4.83.89,6.38,2.77a10.76,10.76,0,0,1,6.33-5.19c2.72-.66,6,.59,7,3.22A6.35,6.35,0,0,1,111.85,28a2.44,2.44,0,0,0,.21,1.45,2.52,2.52,0,0,0,1.43.75,6,6,0,0,1,3.68,7.41A6,6,0,0,1,109.61,41c.17,3.86-4,6.9-7.83,6.58s-7.08-3.15-9.11-6.43A14.65,14.65,0,0,1,86.24,46c-2.23.87-4.93,1.12-6.89-.25s-2.43-4.78-.42-6.08a4.72,4.72,0,0,1-1.18-9.34"/>
    <path class="cls-6" d="M78,29.23c-1.25-1.9.15-4.47,2.19-5.12,2.43-.78,4.9.86,6.42,2.63a.26.26,0,0,0,.39,0c1.45-2.33,3.55-4.53,6.34-5.11a5.76,5.76,0,0,1,6.52,3.07.25.25,0,0,0,.45.06A6.2,6.2,0,0,1,109,22.92a6.42,6.42,0,0,1,2.57,4.41c.12,1.14-.23,2.25,1,2.83.6.29,1.26.4,1.84.74a5.59,5.59,0,0,1,1.79,1.7,5.68,5.68,0,0,1,.87,4.49,5.69,5.69,0,0,1-7.39,3.68.26.26,0,0,0-.32.24c0,3.82-3.81,6.54-7.41,6.34C98,47.13,94.88,44.18,92.89,41a.25.25,0,0,0-.43,0c-2.17,2.82-5.56,5.21-9.19,5.45-1.75.12-3.73-.34-4.73-1.9s-1-3.57.52-4.65a.26.26,0,0,0-.13-.47,4.47,4.47,0,0,1-1.11-8.85c.31-.07.18-.56-.13-.48a5.16,5.16,0,0,0-4,5.5A5.17,5.17,0,0,0,78.93,40l-.13-.46a3.66,3.66,0,0,0-1.26,4,4.68,4.68,0,0,0,3.79,3.34c4.41.89,9-2.26,11.56-5.59h-.43c2.18,3.45,5.82,6.75,10.17,6.57,3.65-.15,7.28-3,7.23-6.84l-.31.24c4.85,1.79,9.73-3.08,7.63-7.89a6.26,6.26,0,0,0-2.24-2.72,7,7,0,0,0-1.7-.76c-1.3-.45-1-1.82-1.22-2.92a6.59,6.59,0,0,0-12.16-2.5l.46.06A6.17,6.17,0,0,0,93.9,21c-3.23.33-5.72,2.83-7.35,5.45l.39-.05c-1.75-2-4.83-3.86-7.53-2.49-2,1-3.15,3.63-1.86,5.6.17.27.61,0,.43-.26Z"/>
  </g>
  <path class="cls-6" d="M11,28c-1.07-1.64.16-3.82,1.89-4.39,2.26-.75,4.54.88,5.94,2.49A.75.75,0,0,0,20,25.94c1.39-2.22,3.38-4.33,6.05-4.88,2.25-.46,5,.5,5.9,2.73a.76.76,0,0,0,1.37.18,5.68,5.68,0,0,1,8-1.61,5.87,5.87,0,0,1,2.32,4c.15,1.33-.17,2.55,1.25,3.26.6.29,1.26.39,1.84.73a5,5,0,0,1,1.61,1.53,5.2,5.2,0,0,1,.82,4.1,5.19,5.19,0,0,1-6.78,3.33.76.76,0,0,0-.95.73c0,3.54-3.58,6-6.91,5.83-3.72-.22-6.73-3.07-8.63-6.07a.76.76,0,0,0-1.29,0c-2.05,2.67-5.32,5-8.76,5.21a4.62,4.62,0,0,1-4.3-1.66c-.77-1.18-.91-3.06.34-4A.75.75,0,0,0,11.52,38a4,4,0,0,1-1-7.88c.94-.21.54-1.66-.4-1.44A5.66,5.66,0,0,0,5.79,34.7a5.68,5.68,0,0,0,5.73,4.77l-.38-1.4a4.15,4.15,0,0,0-1.49,4.59,5.2,5.2,0,0,0,4.13,3.7c4.67.94,9.43-2.3,12.13-5.82H24.62c2.27,3.59,6.07,7,10.6,6.81C39.14,47.19,43,44.14,43,40l-.94.72a6.78,6.78,0,0,0,7-1.61,6.21,6.21,0,0,0,1.18-7,6.77,6.77,0,0,0-2.42-2.9A11,11,0,0,0,46,28.4c-1-.45-.71-1.56-.85-2.51A7.09,7.09,0,0,0,32,23.21l1.37.18a6.65,6.65,0,0,0-6.9-3.9c-3.42.32-6,2.92-7.78,5.69L19.89,25C18,22.82,14.65,21,11.75,22.46c-2.21,1.14-3.48,4.08-2,6.28.52.81,1.82.06,1.29-.75Z"/>
</svg>
