<svg id="Layer_1" data-name="Layer 1" xmlns="http://www.w3.org/2000/svg" viewBox="0 0 525.59 309.19">
  <defs>
    <style>
      .cls-1, .cls-10, .cls-12, .cls-13, .cls-14, .cls-15, .cls-16, .cls-17, .cls-18, .cls-2, .cls-20, .cls-21, .cls-23, .cls-26, .cls-3, .cls-7, .cls-8, .cls-9 {
        fill: none;
      }

      .cls-1, .cls-10, .cls-11, .cls-12, .cls-17, .cls-2 {
        stroke: #415928;
      }

      .cls-1, .cls-10, .cls-11, .cls-12, .cls-13, .cls-14, .cls-15, .cls-16, .cls-17, .cls-18, .cls-19, .cls-2, .cls-20, .cls-21, .cls-23, .cls-25, .cls-26, .cls-3, .cls-4, .cls-6, .cls-7, .cls-8, .cls-9 {
        stroke-miterlimit: 10;
      }

      .cls-1, .cls-19, .cls-20, .cls-6, .cls-7, .cls-9 {
        stroke-width: 0.5px;
      }

      .cls-14, .cls-2, .cls-3, .cls-8 {
        stroke-width: 0.75px;
      }

      .cls-13, .cls-3 {
        stroke: #425a28;
      }

      .cls-4, .cls-5, .cls-6 {
        fill: #d9aca3;
      }

      .cls-18, .cls-23, .cls-4 {
        stroke: #d9aca3;
      }

      .cls-6, .cls-7 {
        stroke: #fff;
      }

      .cls-21, .cls-8, .cls-9 {
        stroke: #d9d9d9;
      }

      .cls-10 {
        stroke-width: 0.25px;
      }

      .cls-11 {
        fill: #6d8c3d;
      }

      .cls-14, .cls-15, .cls-16, .cls-19, .cls-20, .cls-25, .cls-26 {
        stroke: #6d8c3d;
      }

      .cls-16, .cls-17, .cls-21, .cls-25 {
        stroke-width: 2px;
      }

      .cls-19, .cls-22, .cls-25 {
        fill: #415928;
      }

      .cls-23 {
        stroke-width: 4px;
      }

      .cls-24 {
        fill: #fff;
      }

      .cls-26 {
        stroke-width: 3px;
      }
    </style>
  </defs>
  <g>
    <path class="cls-1" d="M6.58,262.71c.3.81.75,1.91,1.36,3.17a37.91,37.91,0,0,0,7.54,10.23c2.74,2.67,5.1,5,9.07,6.32a19.54,19.54,0,0,0,4.21.92" transform="translate(-0.12 0)"/>
    <path class="cls-2" d="M6.93,263.39l-.09-.2c.54.56,1.12,1.12,1.74,1.67a42.36,42.36,0,0,0,7.25,5.05A26.53,26.53,0,0,1,23,276.59C13.33,272.9,9,267.88,6.93,263.39Z" transform="translate(-0.12 0)"/>
  </g>
  <path class="cls-2" d="M1.64,248.9l-.7-1.3.63.25a51.72,51.72,0,0,1,7.35,3.82c3,1.89,8.24,6.34,13.69,13.33a83.29,83.29,0,0,1,9.24,14.84" transform="translate(-0.12 0)"/>
  <path class="cls-2" d="M51.21,223.33c-1.09,3.18-2.6,7.85-4.07,13.59a143,143,0,0,0-3.38,16c-1.86,12.92-.23,17.52-4.15,22.15a15.74,15.74,0,0,1-7.76,4.77" transform="translate(-0.12 0)"/>
  <path class="cls-2" d="M.94,247.6a116,116,0,0,0,26.52,33" transform="translate(-0.12 0)"/>
  <path class="cls-2" d="M116.48,165.18c.18,7.62,2.47,12.19,4.59,15,2.56,3.37,5.16,4.52,7.14,8.79a20.53,20.53,0,0,1,1.7,9.78c-.13,5.62,2.64,15.09,15.47,31.94" transform="translate(-0.12 0)"/>
  <path class="cls-2" d="M118,163.41a76.79,76.79,0,0,0,4.52,9.47c1.2,2.15,2,3.4,2.74,4.52a80.39,80.39,0,0,1,9,21.62c1.54,5.72,1,5.95,2.1,9.84,1.62,5.77,5.23,13.75,14.25,22.39" transform="translate(-0.12 0)"/>
  <path class="cls-2" d="M145.65,203.09a7.39,7.39,0,0,1,.5,1.66A8,8,0,0,1,145.1,210l-3.21,10.74" transform="translate(-0.12 0)"/>
  <path class="cls-3" d="M148.46,204.55a11,11,0,0,1-.58,5.09,10.38,10.38,0,0,1-1.36,2.57h0A14.15,14.15,0,0,0,145,215.9c-.71,3,.42,4.18-.61,7.34-.1.32-.2.57-.26.73" transform="translate(-0.12 0)"/>
  <path class="cls-2" d="M159.94,214.84a10.71,10.71,0,0,1-.21,5.56,18.42,18.42,0,0,1-1.42,2.93c-.71,1.54-1.26,4-.17,7.93" transform="translate(-0.12 0)"/>
  <path class="cls-2" d="M163.67,218.32a11.39,11.39,0,0,0-2.8,9.64,10.78,10.78,0,0,0,1.61,3.92" transform="translate(-0.12 0)"/>
  <path class="cls-4" d="M384.35,304.81c3.32-.16,7-.58,7.2-1.78.22-1.4-4.41-2.9-4.19-3.63.44-1.47,20.31,3.18,27.52,1.5a50.67,50.67,0,0,1,5.45-1c2-.24,3.66-.31,4.48-.34h3c6.61.08,6.58.09,6.62.08,3.79-.27,5.76-.42,7.84-1.69.59-.37,1.31-.9,1.81-.63s.19,1.33.34,3.83c.08,1.37.21,1.47.35,3.43.08,1,.1,1.88.11,2.44" transform="translate(-0.12 0)"/>
  <path class="cls-5" d="M49.15,302.36H19a20.06,20.06,0,0,1-6.61-12.15,19.6,19.6,0,0,1,1.43-10.37h38a25.82,25.82,0,0,1,1.43,8.4A26.64,26.64,0,0,1,49.15,302.36Z" transform="translate(-0.12 0)"/>
  <path class="cls-6" d="M12.7,286.38c4.7.35,9.61.59,14.73.67a257.08,257.08,0,0,0,25.74-.84" transform="translate(-0.12 0)"/>
  <path class="cls-6" d="M13.75,295.24a114.74,114.74,0,0,0,14.1,1.18,117.39,117.39,0,0,0,24.68-2.05" transform="translate(-0.12 0)"/>
  <line class="cls-7" x1="18.86" y1="279.84" x2="19.08" y2="301.72"/>
  <path class="cls-6" d="M26.12,279.84a58.18,58.18,0,0,1,1.21,6.4,72.19,72.19,0,0,1,.52,10.18c0,2.5-.08,4.55-.15,5.94" transform="translate(-0.12 0)"/>
  <line class="cls-7" x1="34.08" y1="279.84" x2="34.26" y2="302.36"/>
  <line class="cls-7" x1="40.57" y1="279.84" x2="40.85" y2="301.92"/>
  <path class="cls-6" d="M47.65,279.84A52.48,52.48,0,0,0,48,291.25c.07.44.14,1,.19,1.6a35.55,35.55,0,0,1-.37,6.84c-.07.67-.14,1.22-.18,1.62v.35" transform="translate(-0.12 0)"/>
  <line class="cls-8" x1="79.97" y1="261.96" x2="82.4" y2="303.58"/>
  <line class="cls-8" x1="76.04" y1="261.96" x2="76.6" y2="303.06"/>
  <line class="cls-8" x1="70.23" y1="261.96" x2="70.42" y2="303.06"/>
  <line class="cls-8" x1="65.93" y1="261.96" x2="64.43" y2="303.06"/>
  <line class="cls-8" x1="84.65" y1="261.96" x2="87.3" y2="303.58"/>
  <line class="cls-8" x1="90.08" y1="261.96" x2="93.08" y2="303.58"/>
  <line class="cls-8" x1="96.64" y1="261.96" x2="98.51" y2="303.08"/>
  <line class="cls-9" x1="102.07" y1="261.96" x2="102.81" y2="303.08"/>
  <line class="cls-8" x1="107.31" y1="261.96" x2="110.12" y2="304.33"/>
  <line class="cls-9" x1="111.24" y1="261.96" x2="113.11" y2="303.58"/>
  <path class="cls-2" d="M7.3,217.27l-.12-.44a2.12,2.12,0,0,1-.06.56c-1,9.28,2.73,16.56,4.65,20.6a174.94,174.94,0,0,1,9.3,25" transform="translate(-0.12 0)"/>
  <path class="cls-2" d="M31.19,269.63a292.89,292.89,0,0,0-13.38-33.42c-4.64-9.46-10.2-18.68-10.2-18.68-.18-.3-.33-.55-.43-.7" transform="translate(-0.12 0)"/>
  <path class="cls-2" d="M38.61,202.46v-.2a109.33,109.33,0,0,0-7.72,40.83" transform="translate(-0.12 0)"/>
  <path class="cls-2" d="M28.82,240.37a56.68,56.68,0,0,0,2.37,29.26" transform="translate(-0.12 0)"/>
  <path class="cls-2" d="M36.65,253.86A57.64,57.64,0,0,0,32.72,246a56.45,56.45,0,0,0-4-5.81v.42" transform="translate(-0.12 0)"/>
  <path class="cls-2" d="M38.61,202.26c.47,6.69.69,14,.53,21.68a237.8,237.8,0,0,1-2.49,29.92" transform="translate(-0.12 0)"/>
  <path class="cls-2" d="M51.21,223.33l.68-1.66A104.43,104.43,0,0,0,45.62,232c-5.4,10.21-3.34,10.64-8.53,20.92A51.11,51.11,0,0,0,31.3,269.3a2.6,2.6,0,0,1-.08.51" transform="translate(-0.12 0)"/>
  <g>
    <path class="cls-1" d="M56.9,245.23c-.12,1.14-.31,2.72-.63,4.58a55.27,55.27,0,0,1-5.09,15.89C49,270,47,273.93,42.63,277.33a24.76,24.76,0,0,1-4.79,2.88" transform="translate(-0.12 0)"/>
    <path class="cls-2" d="M56.9,245.23c-.38.83-1,2.09-1.82,3.57a59.91,59.91,0,0,1-6.85,9.3,37.42,37.42,0,0,0-6.07,11.3" transform="translate(-0.12 0)"/>
  </g>
  <path class="cls-1" d="M107.83,159.43q-3,7.24-5.69,15h0a74.68,74.68,0,0,1-4.59,15.69c-.71,1.71-1.26,2.89-1.42,3.24-2.33,5-6.12,22.52-12.53,68.17" transform="translate(-0.12 0)"/>
  <path class="cls-1" d="M107.83,159.43c-3.52,11-6.83,23-9.7,35.83a413.25,413.25,0,0,0-9.26,66.9" transform="translate(-0.12 0)"/>
  <path class="cls-1" d="M71.38,225.07c4.7.17,7.37,1.64,8.88,2.82.54.43,1.5,1.33,3.4,3.14,1.68,1.6,3,2.92,4,3.82" transform="translate(-0.12 0)"/>
  <path class="cls-1" d="M71.61,225.07a17.83,17.83,0,0,0,14.93,17.21" transform="translate(-0.12 0)"/>
  <path class="cls-1" d="M76.46,207.12a12.27,12.27,0,0,1,7.16,3.66c1.14,1.28,1.44,2.31,3.24,5.16a57.68,57.68,0,0,0,3.46,4.9" transform="translate(-0.12 0)"/>
  <path class="cls-1" d="M76.26,206.87a21.66,21.66,0,0,0,4.64,13.47,21,21,0,0,0,8.26,6.22" transform="translate(-0.12 0)"/>
  <path class="cls-1" d="M83.57,179.2a26.61,26.61,0,0,0,2.33,8.1,27.05,27.05,0,0,0,9,10.56" transform="translate(-0.12 0)"/>
  <path class="cls-1" d="M83.66,179.83l-.2-.92a16,16,0,0,1,4.17,2.44c2.7,2.21,4,4.77,5.26,7.51a33.88,33.88,0,0,1,2.48,7.2" transform="translate(-0.12 0)"/>
  <path class="cls-1" d="M89.16,170.8a17.85,17.85,0,0,0,1.45,5.93,18.76,18.76,0,0,0,7.91,8.59" transform="translate(-0.12 0)"/>
  <path class="cls-1" d="M93.84,162.74A19.23,19.23,0,0,0,95,168.5a19.48,19.48,0,0,0,6.18,8.32" transform="translate(-0.12 0)"/>
  <path class="cls-1" d="M93.68,163a3.58,3.58,0,0,1,2.42.42c.85.55,1,1.35,1.7,2.56a19.07,19.07,0,0,0,2.37,3,9.79,9.79,0,0,1,1.63,6.39" transform="translate(-0.12 0)"/>
  <path class="cls-1" d="M98.23,155a9,9,0,0,0,.22,4.13c.58,1.89,1.6,2.76,3.09,5a30.49,30.49,0,0,1,2.6,4.8" transform="translate(-0.12 0)"/>
  <path class="cls-1" d="M98.1,155.21a3.17,3.17,0,0,1,2,.6c.84.66.85,1.51,1.68,3.31a21.15,21.15,0,0,0,1.18,2.14c.71,1.29,1.42,3.44,1.32,7.15" transform="translate(-0.12 0)"/>
  <path class="cls-10" d="M94.11,163.22a13.12,13.12,0,0,0,2.23,4c.42.51.82.9,1.45,1.75a20.36,20.36,0,0,1,1.54,2.47c.6,1.09,1.39,2.59,2.29,4.46" transform="translate(-0.12 0)"/>
  <path class="cls-1" d="M89.3,171a17.19,17.19,0,0,1,3.79,2.45,19,19,0,0,1,6,10" transform="translate(-0.12 0)"/>
  <path class="cls-1" d="M104.14,149.28a15.77,15.77,0,0,0-.14,4.34,16.22,16.22,0,0,0,3,7.76" transform="translate(-0.12 0)"/>
  <path class="cls-1" d="M104.1,149.54h.28c1,.24,1.44,1.33,1.84,2.29,2,4.87,1.81,6.54,1.65,7.33v.23l-.15.44" transform="translate(-0.12 0)"/>
  <path class="cls-10" d="M76.58,207.28a10.12,10.12,0,0,1,3.54,2.92,14.58,14.58,0,0,1,1.91,4c1.45,3.69,1.13,4,2.11,5.28a16.53,16.53,0,0,0,3,2.79c.47.37,1.16.93,2,1.65" transform="translate(-0.12 0)"/>
  <path class="cls-10" d="M83.57,179.2a10.32,10.32,0,0,1,3.09,3.35c1,1.71.61,2.32,1.6,4.09,1.29,2.29,2.17,1.81,3.41,4.09.86,1.59.72,2.36,1.88,4.19a15.27,15.27,0,0,0,1.58,2" transform="translate(-0.12 0)"/>
  <path class="cls-1" d="M107.87,160.39a17.67,17.67,0,0,1,1.68-3.3c.48-.73.88-1.25,1.18-1.63a20.43,20.43,0,0,1,2.73-3,9.26,9.26,0,0,1,5.52-1.88" transform="translate(-0.12 0)"/>
  <path class="cls-1" d="M107.45,160.62l.84-.5c4.19-2.46,4.37-2.63,5.14-2.88,1.87-.63,2.26-.09,3.09-.81l.15-.14a20.74,20.74,0,0,0,1.36-3c.47-1.08.91-1.45.83-2.3a2.33,2.33,0,0,0-.11-.51" transform="translate(-0.12 0)"/>
  <path class="cls-1" d="M105.44,166.88a13.19,13.19,0,0,0,3.41-2.81,10.51,10.51,0,0,1,1.74-1.91,27.56,27.56,0,0,1,2.52-1.33c1.2-.68,2-1.24,2.38-1a.48.48,0,0,1,.17.23" transform="translate(-0.12 0)"/>
  <path class="cls-1" d="M105.49,167a8.38,8.38,0,0,0,3.07-.35,8.77,8.77,0,0,0,2.58-1.37,16.81,16.81,0,0,0,4.55-5.37" transform="translate(-0.12 0)"/>
  <path class="cls-1" d="M103.29,174.52c.74-.58,1.86-1.5,3.2-2.68,1.55-1.38,2-1.91,3-2.65a17.18,17.18,0,0,1,4.23-2.35" transform="translate(-0.12 0)"/>
  <path class="cls-1" d="M103.12,175.27a14.21,14.21,0,0,0,2.44-.13,8.51,8.51,0,0,0,2.53-.61c1-.45.94-.85,2.39-2,1.26-1,1.7-.94,2.47-1.79.56-.62,1.12-1.75.85-4l-.36.25" transform="translate(-0.12 0)"/>
  <path class="cls-10" d="M115.53,160a14.09,14.09,0,0,1-2.49,2c-.93.59-1.17.59-2,1.16-1.2.86-1.34,1.35-2.36,2.14a9.28,9.28,0,0,1-2.67,1.38" transform="translate(-0.12 0)"/>
  <path class="cls-10" d="M108,159.69a10.23,10.23,0,0,0-1.27-2.67,15.54,15.54,0,0,1-1.33-1.88,10.38,10.38,0,0,1-.64-2.75c-.1-.6-.27-1.56-.5-2.75" transform="translate(-0.12 0)"/>
  <path class="cls-1" d="M100.84,183.39a19.68,19.68,0,0,1,10-5.09" transform="translate(-0.12 0)"/>
  <path class="cls-1" d="M100.66,184.49a10.1,10.1,0,0,1,2.82-.57,15.32,15.32,0,0,0,1.93,0,5.48,5.48,0,0,0,3.39-1.82,7.27,7.27,0,0,0,1.87-3.65" transform="translate(-0.12 0)"/>
  <path class="cls-10" d="M100.91,183.87a9.64,9.64,0,0,0,3.89-1.67,10.41,10.41,0,0,1,1.59-1.13c.93-.51,1.39-.53,2.33-1a10.08,10.08,0,0,0,1.72-1.18" transform="translate(-0.12 0)"/>
  <path class="cls-1" d="M97.52,197.15a10.62,10.62,0,0,0,5.58-.58,11.41,11.41,0,0,0,3.91-2.71,14.54,14.54,0,0,0,2.9-4.1c-.92.16-1.82.37-2.72.62a24.92,24.92,0,0,0-9.06,4.88" transform="translate(-0.12 0)"/>
  <path class="cls-1" d="M95.29,209.41a18.87,18.87,0,0,1,11.76-8.87,11,11,0,0,1-.84,3.83,10.25,10.25,0,0,1-5,5.37,9.86,9.86,0,0,1-6.13.66" transform="translate(-0.12 0)"/>
  <path class="cls-10" d="M95.11,210.4a14.05,14.05,0,0,1,4.83-4c1.55-.76,2.46-.81,3.78-1.7a9.61,9.61,0,0,0,3.33-4.18" transform="translate(-0.12 0)"/>
  <path class="cls-1" d="M93.63,219.62a21.57,21.57,0,0,1,12.26-7" transform="translate(-0.12 0)"/>
  <path class="cls-1" d="M93,225.07a15.36,15.36,0,0,0,8-3.57,15.55,15.55,0,0,0,5.09-9.12" transform="translate(-0.12 0)"/>
  <path class="cls-1" d="M91.3,236.1a34.91,34.91,0,0,1,12.25-13.74" transform="translate(-0.12 0)"/>
  <path class="cls-1" d="M91,241a50.75,50.75,0,0,0,6.55-3.39,8.67,8.67,0,0,0,2.72-2.17c1.26-1.65,1.34-3.37,1.56-5.15a41.37,41.37,0,0,1,1.83-8.07" transform="translate(-0.12 0)"/>
  <path class="cls-10" d="M91.3,238a21.25,21.25,0,0,1,5.21-5.61c1.36-1,2-1.26,3-2.14a12.83,12.83,0,0,0,3.91-7.44" transform="translate(-0.12 0)"/>
  <path class="cls-2" d="M201.91,225.07a41.24,41.24,0,0,0-.87,14.81c.45,3.46,1.21,5.65,5.54,18.89,1.27,3.87,2.27,6.94,2.8,8.58" transform="translate(-0.12 0)"/>
  <path class="cls-2" d="M201.91,225.07c.82,1.27,1.66,2.67,2.46,4.2a53.2,53.2,0,0,1,3.77,9.18" transform="translate(-0.12 0)"/>
  <path class="cls-2" d="M210.79,198.16c-.84,4.08-1.58,8.49-2.13,13.21a147.75,147.75,0,0,0-.85,23.42" transform="translate(-0.12 0)"/>
  <line class="cls-2" x1="207.69" y1="234.79" x2="210.67" y2="267.35"/>
  <path class="cls-2" d="M210.79,198.16a82.86,82.86,0,0,1,2.65,9,86.32,86.32,0,0,1,2.26,21.25c0,7.64,1,19.71,5.79,39" transform="translate(-0.12 0)"/>
  <path class="cls-2" d="M203.63,182.11c.29,7.61.25,13.82.16,18.12-.14,6.46-.41,9,0,13.2a54.9,54.9,0,0,0,3.91,16" transform="translate(-0.12 0)"/>
  <line class="cls-2" x1="203.51" y1="182.11" x2="209.18" y2="206.53"/>
  <path class="cls-2" d="M216.14,176.52a25.59,25.59,0,0,0-2.25,6.65c-.7,3.7-.27,6.16-.17,9.71a55.86,55.86,0,0,1-.93,11.69" transform="translate(-0.12 0)"/>
  <path class="cls-2" d="M216.14,176.52a155.33,155.33,0,0,0,2,23.19c1.27,7.78,2.42,11.23,3.77,19.23a178.77,178.77,0,0,1,2.34,23.89" transform="translate(-0.12 0)"/>
  <path class="cls-2" d="M224.14,196.91a26.84,26.84,0,0,1-4.45,10.92" transform="translate(-0.12 0)"/>
  <path class="cls-2" d="M224.14,196.91A49.9,49.9,0,0,1,226,213.75c-.22,3.24-.68,4.92-.87,8.75a58.41,58.41,0,0,0,1,14.09" transform="translate(-0.12 0)"/>
  <path class="cls-2" d="M236,210.47a95.42,95.42,0,0,0-6.45,14.37c-1.62,4.57-2.24,7.44-3.44,11.75a188.58,188.58,0,0,1-7,20.39" transform="translate(-0.12 0)"/>
  <path class="cls-2" d="M236,210.47a95.75,95.75,0,0,1-2.4,21.07c-1.2,5.22-2.2,7.6-3.65,13.23a139.28,139.28,0,0,0-3.84,22.58" transform="translate(-0.12 0)"/>
  <path class="cls-2" d="M108,127.42a1.12,1.12,0,0,1-.19-1.55c.6-1,1.61-15.47-4.69-17.65-3-1-6.58,1-8.48,2.83-3.08,2.93-2.24,5.81-5.09,10.36a23.48,23.48,0,0,1-7,6.79c-9.62,7.24-13.25,25-14,29-4.17,20.49,3.22,37.18,5.94,42.66.3-.43.59-.87.88-1.31" transform="translate(-0.12 0)"/>
  <path class="cls-3" d="M107.56,127.27C122,113,126.9,110.39,128.23,111.41c.82.64,1.16,3,3.32,4.35.75.46,1.24.28,1.7.75,1.32,1.37-.05,4.7-.34,5.44-2.59,6.52-.49,11-4.1,21.86a68.21,68.21,0,0,1-15,24.79" transform="translate(-0.12 0)"/>
  <path class="cls-1" d="M79.33,193.09a17.05,17.05,0,0,0,1.21,6.15c2.93,7.2,10.08,9.88,11.62,10.41" transform="translate(-0.12 0)"/>
  <path class="cls-1" d="M79.49,193.33c2,.69,3.63,1.36,4.87,1.9A13.22,13.22,0,0,1,88,197.28a11.27,11.27,0,0,1,2,2.51,30.69,30.69,0,0,1,3,5.91" transform="translate(-0.12 0)"/>
  <path class="cls-2" d="M74.09,199.48l5.4-4.19" transform="translate(-0.12 0)"/>
  <path class="cls-2" d="M81.2,194l5.92-4.78" transform="translate(-0.12 0)"/>
  <line class="cls-2" x1="90.98" y1="185.17" x2="94.3" y2="182.22"/>
  <line class="cls-2" x1="97.51" y1="179.37" x2="101.1" y2="176.82"/>
  <path class="cls-11" d="M100.66,112.67q-.8,10.06-1.6,20.15" transform="translate(-0.12 0)"/>
  <path class="cls-12" d="M83.33,133.05a6.44,6.44,0,0,1,2.92-.9c2.35-.12,3.18,1.29,5.37,1.59,3,.4,4.06-1.89,6.24-1.59,1.57.21,3.59,1.74,5.47,7.66" transform="translate(-0.12 0)"/>
  <path class="cls-13" d="M124,112.82a36.37,36.37,0,0,0-8.7,10.23c-2,3.61-2.27,5.6-4.77,9.26-2.1,3.07-3.94,4.62-7.22,7.6-8.13,7.4-12.19,11.1-14.81,14.82-1.59,2.27-3,4.89-5.93,14.38a263.38,263.38,0,0,0-7.23,29.41" transform="translate(-0.12 0)"/>
  <path class="cls-12" d="M128.74,130.9a8,8,0,0,1-5.79.45c-2.23-.83-2.65-2.57-4.27-3.12s-4.3.11-9,5.27" transform="translate(-0.12 0)"/>
  <path class="cls-12" d="M95,147.75A23.15,23.15,0,0,1,88.9,149a24.93,24.93,0,0,1-5.39-.26c-2.73-.31-7.32,1.27-15.34,10.22" transform="translate(-0.12 0)"/>
  <path class="cls-12" d="M99.1,143.74a10.45,10.45,0,0,0,5.83.92c2.57-.38,3.17-1.63,5.2-1.75,2.9-.17,5.2,2.16,7.44,4.43a25.3,25.3,0,0,1,5.6,8.76" transform="translate(-0.12 0)"/>
  <path class="cls-12" d="M86.88,157.39c2.61,2.07,3.25,3.87,3.33,5.16.11,1.8-.86,2.76-.79,4.94,0,1.39,1.58,2.47,1.09,3.68a2.08,2.08,0,0,1-.2.36" transform="translate(-0.12 0)"/>
  <path class="cls-14" d="M154.08,52.39a48.76,48.76,0,0,1-7-9.35c-2.55-4.42-2.65-6.2-5-8.18a14.46,14.46,0,0,0-12.56-2.63c-7.87,2-11.29,10.28-12,12-1.68,4.11-.69,5.37-2.92,9.94-2.38,4.87-4.13,4.71-5.68,8.33-2.19,5.11.63,7,.13,15.34-.54,9-4,10-2.63,15.49.85,3.5,2.52,4.29,7.31,11.1a114.73,114.73,0,0,1,6.72,10.82" transform="translate(-0.12 0)"/>
  <path class="cls-14" d="M153.76,52.18c2.21-2,13.9-12.6,21.2-16.37,2.11-1.09,4.35-1.86,5.83-.92s1.15,2.73,2.9,3.83c1.52,1,2.63.16,3.78.59,3.78,1.4-.39,13.22,3.25,26.38,1.14,4.13,2.28,5.6,4,12.42,2,7.85,1.71,10.76.29,12.83-1.53,2.25-3,1.44-5.24,4.09-3.15,3.69-1.39,6.45-4.07,9.34s-5.48.93-9.31,3.79c-3.42,2.55-2.9,5.4-5.82,10.22-.14.22-.29.46-.47.72-3.06,4.43-6.51,6.59-10,9.2-8.16,6.08-9.62,10-16.79,11.93l-.41.11" transform="translate(-0.12 0)"/>
  <path class="cls-3" d="M143.19,140.66a29.09,29.09,0,0,0-6.41-11.21,27.47,27.47,0,0,0-4.61-4" transform="translate(-0.12 0)"/>
  <path class="cls-15" d="M151.48,66.93c-.84,3.08-2,7.57-3.08,13.07-1.75,8.77-2.65,13.26-2.65,19.24,0,8.22,1.7,9.64,1.77,17.77a60.49,60.49,0,0,1-2.06,16.06" transform="translate(-0.12 0)"/>
  <path class="cls-15" d="M151.31,67.1c10.8-6.62,15.59-12.86,17.94-17.5.93-1.84,3.05-6.52,7.93-9.11a16.09,16.09,0,0,1,6.51-1.77" transform="translate(-0.12 0)"/>
  <path class="cls-15" d="M177.6,104.82c.09-7-1.92-11.08-3.85-13.56-2.3-3-3.84-2.8-6.42-6.29-3.48-4.72-2.5-7.51-5.16-11.33-1.59-2.3-4.58-5.07-10.69-6.71" transform="translate(-0.12 0)"/>
  <path class="cls-15" d="M146.44,90.5a17.53,17.53,0,0,1,7.3,7.68c.69,1.51,1.19,4.67,2.14,10.95.83,5.42.94,6.9,2,9.06a17,17,0,0,0,4.78,5.78" transform="translate(-0.12 0)"/>
  <path class="cls-15" d="M145.75,99.24a4.75,4.75,0,0,0-3.33-.68c-2.23.48-3.22,3-4.66,5.28a26.74,26.74,0,0,1-6.92,7.38" transform="translate(-0.12 0)"/>
  <path class="cls-2" d="M158.79,129.3c.7,2.09,1.2,3.86,1.54,5.16,1.24,4.7,1.85,7,1.52,9.6-.27,2.08-.81,2.46-.89,4.68a15.06,15.06,0,0,0,.76,5.16" transform="translate(-0.12 0)"/>
  <path class="cls-2" d="M162.37,126.44a28.48,28.48,0,0,0-.06,6.78c.49,4.43,1.77,6.45,2.65,10.56a35.37,35.37,0,0,1,.61,10.21" transform="translate(-0.12 0)"/>
  <path class="cls-14" d="M158.78,170.53c-1.39-1.47-8.51-8.72-16.92-7.55-1.52.21-5.27.73-6.85,3.49-1,1.74-.78,3.77-.5,6.51a25.17,25.17,0,0,0,1.26,5.61s.39,1.39,1.15,3.47c1.37,3.75,2.52,5.72,3.35,7.61,2.36,5.38.52,6.31,2.28,9.88,2.92,5.92,8.24,3.8,14.23,11.07,2.7,3.27,2.86,5.21,5.88,6.93,3.36,1.91,6.67,1.51,8.68,1.48,4.51-.08,11.06,1.5,19.69,9.1" transform="translate(-0.12 0)"/>
  <path class="cls-14" d="M158.78,170.53c-1.62-8.37-.48-15.06,2.94-16.63,2.84-1.29,6.59,1.23,11.55,4.65.94.65,10.29,7.18,15.33,14.52,8.05,11.73,10.07,32.8,2.43,55.06" transform="translate(-0.12 0)"/>
  <path class="cls-15" d="M165.57,154a5,5,0,0,0-2.12,1.67c-1.92,2.78,0,7.09.65,8.85,1.4,3.76,2.3,9.65-.18,18.9" transform="translate(-0.12 0)"/>
  <path class="cls-15" d="M134.37,168.41a18.89,18.89,0,0,1,10.9.93c3,1.3,4.5,3.06,8.51,6.46,4.85,4.11,7,5.16,10.14,7.61,9.54,7.4,15.09,17.23,18.69,23.59A100.63,100.63,0,0,1,191,226.56" transform="translate(-0.12 0)"/>
  <path class="cls-15" d="M169.75,188.67a20.31,20.31,0,0,0,6.77-6c2.57-3.58,2.77-6.33,5.35-7.51s5.6-.07,8,1.14" transform="translate(-0.12 0)"/>
  <path class="cls-15" d="M166.73,185.76a64.14,64.14,0,0,1-8.28,2.26c-5.33,1.06-7.9.81-10.78,2.45a10.67,10.67,0,0,0-4,4" transform="translate(-0.12 0)"/>
  <path class="cls-15" d="M171.52,190.82c-2,1.74-4.34,4.36-4.36,7.61,0,3,1.88,4.56,3.21,7.78a16.33,16.33,0,0,1,.29,11.32" transform="translate(-0.12 0)"/>
  <path class="cls-15" d="M178.16,199.51a6.76,6.76,0,0,1,4.93-.55c2.82.93,3.21,3.9,6.44,6.6a14.27,14.27,0,0,0,5.88,2.88" transform="translate(-0.12 0)"/>
  <path class="cls-12" d="M175.77,138.5a6.26,6.26,0,0,1-2.22,3.42c-1.06.77-2,.78-3.43,1.24a14.74,14.74,0,0,0-4.8,2.64" transform="translate(-0.12 0)"/>
  <path class="cls-12" d="M177,141.3c-1.39,3.1-2.84,4-3.92,4.24a8.6,8.6,0,0,0-3,.66,5.92,5.92,0,0,0-1.87,1.54c-.66.81-.7,1.31-1.86,3-.16.24-.33.48-.51.7a6.42,6.42,0,0,1,.47-.9" transform="translate(-0.12 0)"/>
  <path class="cls-12" d="M258.91,172.76c.8-1-.53-2.86-1.31-5.67-1.12-4.06-.23-7.08,0-9.38.83-8.13-5.52-16.83-10.91-24.22-6.76-9.27-8.33-7.22-12-14.18-2.51-4.78-3.76-9.52-8.73-12.44-1.38-.82-1.42-.53-5.67-2-10.84-3.66-13.88-6.63-18-5.1a8.52,8.52,0,0,0-3.4,2.37,70.42,70.42,0,0,0,.6,9.4c1.41,10.5,4.55,15.06,3,16.42-3.27,2.84-19.2-14.85-26.24-10.75-2.21,1.29-2.64,4.25-3,6.89-1.89,13,9,26,18.85,32.67a48.06,48.06,0,0,0,15.06,6.79c7.31,7.53,13.81,9.78,18.33,10.45,10.5,1.57,18-4.16,28.25-1.29C254.7,173.05,257.94,174,258.91,172.76Z" transform="translate(-0.12 0)"/>
  <path class="cls-16" d="M247.31,63.82A281.88,281.88,0,0,1,277,128.09a285.61,285.61,0,0,1,11.39,116.73" transform="translate(-0.12 0)"/>
  <path class="cls-16" d="M274.61,245.19A39.29,39.29,0,0,0,274,240c-2.32-11.87-9.75-19.52-12.5-22.6-5.38-6-12.11-16.07-17.23-33.54" transform="translate(-0.12 0)"/>
  <path class="cls-16" d="M320.47,190.55a84.76,84.76,0,0,1-3.82,14c-7.21,19.57-20.16,32.25-28.46,39" transform="translate(-0.12 0)"/>
  <path class="cls-17" d="M312.9,242.83l1.77,54a45.49,45.49,0,0,1-4.59,2c-6.74,2.55-12.67,3.07-34.44,1.56-13.1-.91-17-1.52-19.1-4.77-1.36-2.11-1.15-4.06-1-8.36.31-8.83-.66-17.65-.6-26.48,0-4.12.07-10.8.07-19.29" transform="translate(-0.12 0)"/>
  <path class="cls-12" d="M261.18,298.91l.16,5.25" transform="translate(-0.12 0)"/>
  <line class="cls-12" x1="307.44" y1="299.76" x2="307.58" y2="306.19"/>
  <path class="cls-12" d="M261,303.69a87.47,87.47,0,0,0,9.57,2.26,95,95,0,0,0,18.14,1.36A125.9,125.9,0,0,0,308,305.73" transform="translate(-0.12 0)"/>
  <line class="cls-17" x1="259.12" y1="242.83" x2="259.46" y2="298.19"/>
  <line class="cls-17" x1="264.39" y1="243.71" x2="264.77" y2="299.48"/>
  <line class="cls-17" x1="270.02" y1="244.52" x2="269.73" y2="300.01"/>
  <line class="cls-17" x1="276.49" y1="245.04" x2="276.84" y2="300.55"/>
  <line class="cls-17" x1="283.84" y1="245.04" x2="285.24" y2="301.05"/>
  <line class="cls-17" x1="293.86" y1="244.52" x2="294.7" y2="301.3"/>
  <line class="cls-17" x1="299.66" y1="243.91" x2="300.49" y2="301.3"/>
  <line class="cls-17" x1="304.99" y1="243.63" x2="305.66" y2="300.24"/>
  <line class="cls-17" x1="309.35" y1="243.3" x2="309.96" y2="298.9"/>
  <path class="cls-12" d="M353.33,241.44a20.57,20.57,0,0,1,2.54,3.19A22.86,22.86,0,0,1,359.06,259" transform="translate(-0.12 0)"/>
  <path class="cls-12" d="M354.31,238.82a16.69,16.69,0,0,1,3.77,3.44,17,17,0,0,1,3.52,9.08" transform="translate(-0.12 0)"/>
  <line class="cls-12" x1="364.5" y1="234.32" x2="361.03" y2="248.59"/>
  <path class="cls-11" d="M367.63,239.07a36.31,36.31,0,0,0-1.76,4.51,37.17,37.17,0,0,0-1.63,9" transform="translate(-0.12 0)"/>
  <path class="cls-11" d="M373.6,243.34a30.25,30.25,0,0,0-4.42,3.3,31.47,31.47,0,0,0-4.82,5.49" transform="translate(-0.12 0)"/>
  <path class="cls-12" d="M375.86,244.63A36.6,36.6,0,0,0,364,258.9" transform="translate(-0.12 0)"/>
  <path class="cls-12" d="M373.38,220.54c-3.33-1.88-6.94-2-9.14-.23-2.54,2-2.3,5.77-2.18,7.37.61,8.12,8.78,13.75,11,15.26,1.86,1.28,2.68,1.55,4,2.35h0c1.12.8,2,1.35,2.08,1.4.56.34,2.5,2.13,8.06,7.92" transform="translate(-0.12 0)"/>
  <path class="cls-12" d="M373,220.46a56.92,56.92,0,0,1,6,10.86c2,4.78,2.47,7.8,5.48,16.14.95,2.64,1.8,4.8,2.36,6.22" transform="translate(-0.12 0)"/>
  <path class="cls-12" d="M361.6,206.74a16.38,16.38,0,0,1,1.64,2.69A18,18,0,0,1,364.72,220" transform="translate(-0.12 0)"/>
  <path class="cls-12" d="M363.27,203.6A25.38,25.38,0,0,1,367,219.14" transform="translate(-0.12 0)"/>
  <path class="cls-12" d="M364,178.4a14.49,14.49,0,0,1,2.13,3.38c1.29,2.86,1.81,6.53.37,12.64-1.11,4.72-1.78,4.08-4.85,12.32-2.92,7.82-6.48,19.59-6.66,20.48a1.36,1.36,0,0,1-.12.39,2.07,2.07,0,0,1-.79.89" transform="translate(-0.12 0)"/>
  <path class="cls-12" d="M364,178.4a3,3,0,0,0-1.74-.24c-2.06.38-2.18,3.08-4.14,4.12-2.13,1.13-3.91-1-6.22-.58-3.44.67-5,6.52-5.92,10.09-1.31,5.11-3.71,14.47.62,25.29A36.66,36.66,0,0,0,354.31,229" transform="translate(-0.12 0)"/>
  <path class="cls-12" d="M358.07,182.28a43.32,43.32,0,0,0-2.88,4.76c-8,15.46-4.48,32.24-1.86,40.87" transform="translate(-0.12 0)"/>
  <path class="cls-12" d="M373,191.46a8.59,8.59,0,0,0-3.16,2c-4.57,4.68-1.52,13.46-1.14,14.52a20.85,20.85,0,0,0,6.68,9.29" transform="translate(-0.12 0)"/>
  <path class="cls-12" d="M388.76,224.71c.7,1,3.25,4.25,6.28,3.93a3.5,3.5,0,0,0,.63-.12" transform="translate(-0.12 0)"/>
  <path class="cls-12" d="M373,191.46a30.68,30.68,0,0,1,4.41,4.56c3.72,4.77,3.4,7.34,6.86,13.17,2.79,4.69,3.76,4.31,6.51,9a43.65,43.65,0,0,1,4.39,10.34" transform="translate(-0.12 0)"/>
  <path class="cls-12" d="M344.36,210.53a10.79,10.79,0,0,0-5,2.4c-1.49,1.31-1.86,2.41-5.41,9.68-2.56,5.25-2.57,5-3,6.17-1.33,3.8-.84,5-2.11,8.79-.25.74-.49,1.35-.73,1.88a47.1,47.1,0,0,1-2.34,4.52c-1,1.57-2.13,4.8-3.24,12" transform="translate(-0.12 0)"/>
  <path class="cls-12" d="M356.54,220.92a7,7,0,0,1,1.51,2c.84,1.69,1.05,3.89-2.16,12.7-3.12,8.57-4.52,9.38-5.56,9.87-1.91.89-3.33.31-6.25,1.94-2,1.12-2.09,1.85-3.79,2.57a5.81,5.81,0,0,1-1.83.47c-2.28.16-3.16-.16-4.52-.09-2.51.12-3.68,2.83-7.51,4.72a14.09,14.09,0,0,1-4.31,1.27" transform="translate(-0.12 0)"/>
  <path class="cls-2" d="M323,255.91a97.75,97.75,0,0,0,8.91-12.4c3.64-6,4.89-9.53,9-14.68a53.94,53.94,0,0,1,7.32-7.56" transform="translate(-0.12 0)"/>
  <path class="cls-4" d="M393.48,220q21.09,2,42.53,2a.49.49,0,0,1,.24,0,.4.4,0,0,1,.19.15" transform="translate(-0.12 0)"/>
  <path class="cls-4" d="M436.4,222v.22q2.88,37.89,5.82,75.77" transform="translate(-0.12 0)"/>
  <path class="cls-4" d="M387.19,254.61q1.29,22.74,2.59,45.47" transform="translate(-0.12 0)"/>
  <path class="cls-4" d="M445,297.41a.56.56,0,0,0-.05-.32c-.05-.06-.3,0-.32,0-9,3.72-19.42,1.8-29.11,2.84-6.47.7-15.9.71-28.41-2.56-.81,2.51-1.61,5-2.42,7.54" transform="translate(-0.12 0)"/>
  <line class="cls-18" x1="444.87" y1="307.03" x2="444.87" y2="297.09"/>
  <path class="cls-4" d="M411.88,221.39a45.21,45.21,0,0,1,1.71,7.16c1.34,8.79-.81,12.35.75,19.5.18.83.73,3.22,1.27,6.56.22,1.32.43,2.8.61,4.42.22,2,.37,3.75.46,5.39.21,3.71.17,6.8.11,9-.28,10.36-1.33,11.53-.92,17.17a43.45,43.45,0,0,0,1.71,9.18" transform="translate(-0.12 0)"/>
  <path class="cls-4" d="M430.13,222.1a31.17,31.17,0,0,0-.4,8.07c.23,2.78.68,3.69,1.12,6.7a50.51,50.51,0,0,1,.32,10.5c-.27,5.4-1,6.7-1.23,11.28-.16,3.58.21,6.2.94,11.44,1.47,10.6,3,13.07,3.16,20.09a49.08,49.08,0,0,1-.72,9.22" transform="translate(-0.12 0)"/>
  <path class="cls-4" d="M395.45,220.12a41,41,0,0,1,1.86,10c.29,5.18-.57,7.71-1.62,14.16-1,6-2.44,14.45-1.64,24.13.38,4.72.93,5.78,1.46,11.7a118.17,118.17,0,0,1,.16,19" transform="translate(-0.12 0)"/>
  <path class="cls-4" d="M389.66,238.59a39.41,39.41,0,0,1,10-.32,37.88,37.88,0,0,1,7.3,1.44c4.22,1.2,12.54,1.49,30.55-2.64" transform="translate(-0.12 0)"/>
  <path class="cls-4" d="M439.22,259a54.71,54.71,0,0,0-15.75-.48c-7.35.85-10.34,2.41-16.47,3A46.18,46.18,0,0,1,387.43,259" transform="translate(-0.12 0)"/>
  <path class="cls-4" d="M440.63,277.21c-1.89.44-4.53,1-7.72,1.58a117.47,117.47,0,0,1-14.47,1.93c-6.17.39-9.26.59-13.08-.15-3-.58-4.57-1.45-7.65-1.43a19,19,0,0,0-8,1.94,93,93,0,0,0,37.16.12A89.89,89.89,0,0,0,440.63,277.21Z" transform="translate(-0.12 0)"/>
  <path class="cls-11" d="M406.53,157.93c.28,3.29.64,8.21.9,14.2.43,9.59.31,15.42.39,23.29.07,6.16.27,15,.89,25.72" transform="translate(-0.12 0)"/>
  <path class="cls-12" d="M412,138.8a149.45,149.45,0,0,1,1,34.08c-.58,6.76-1.31,9.6-1.68,15.69a103,103,0,0,0,3.38,32.88" transform="translate(-0.12 0)"/>
  <path class="cls-15" d="M418.44,118.11c-6,2.06-10.27,6.6-10.53,11.52-.3,5.67,4.85,10,6.39,11.3,3.06,2.6,4.56,2.2,9.64,5.49a51.08,51.08,0,0,1,7.55,6.05c3.79,3.42,12.37,6.93,33.64,6.87" transform="translate(-0.12 0)"/>
  <path class="cls-15" d="M418.44,118.11A24.59,24.59,0,0,1,432,112c14.22-1.4,24.18,12.14,26.27,15,5.72,7.77,11.7,21,7,31.49-.22.51-.43.91-.57,1.18" transform="translate(-0.12 0)"/>
  <path class="cls-14" d="M418.44,118.11a17.16,17.16,0,0,1,9.26,2.68c2.94,1.94,3.15,3.63,7.23,6.08a13.55,13.55,0,0,1,3.75,2.75c1.39,1.56,1.29,2.38,2.53,3.43,1.59,1.36,3,1.08,4.84,1.71,2.62.91,4,2.94,5.8,5.52,3,4.26,7.61,10.77,13.28,19.06" transform="translate(-0.12 0)"/>
  <path class="cls-12" d="M411.37,45.48a153,153,0,0,0-1.6,19c-.17,7.73.4,9.28.42,20.34,0,9.46-.38,10.82-.28,18.23a194.19,194.19,0,0,0,1.25,19.59" transform="translate(-0.12 0)"/>
  <path class="cls-15" d="M410.39,46.11c7-4.33,9.14-8.56,9.79-11.71.6-2.93-.24-4.23,1-7.78,1.35-3.89,3.16-4.52,4.52-8.76a28.35,28.35,0,0,0,1-6.41A90.23,90.23,0,0,0,427,.06" transform="translate(-0.12 0)"/>
  <path class="cls-15" d="M426.82.41a36.67,36.67,0,0,0-7.48,6.92c-2.27,2.79-3.71,5.57-6.5,11a77.3,77.3,0,0,0-4,8.43c-1,3-2.26,9.4,1.63,19" transform="translate(-0.12 0)"/>
  <path class="cls-19" d="M410.39,45.2c6.32-14.28,8.43-21.29,9.1-25,.05-.3.14-.82.3-1.53A33.24,33.24,0,0,1,422,12c1.21-2.74,2.75-6.39,4.66-10.87" transform="translate(-0.12 0)"/>
  <path class="cls-12" d="M410.39,45.2c-.42,1.44-1,3.6-1.55,6.24C407.15,59.52,407,66.11,407,77.11c0,8.49,0,12.73.16,16.42.39,10.22.7,26.55.25,53" transform="translate(-0.12 0)"/>
  <path class="cls-12" d="M410.28,85.25a32.74,32.74,0,0,1,9.22-9.1A34.67,34.67,0,0,1,433.7,71c4.52-.74,11.49-1.88,19,1,11.3,4.42,16,15.12,17.11,17.8" transform="translate(-0.12 0)"/>
  <path class="cls-12" d="M410.34,90.86a79.85,79.85,0,0,1,15,2.12c11.79,2.82,13.56,6.1,20,5.23,5.34-.71,6.14-3.21,16.29-6.16a76.77,76.77,0,0,1,8.61-2" transform="translate(-0.12 0)"/>
  <path class="cls-12" d="M410.39,87.32c10.14-7.16,16.23-8.17,20-7.6a20.69,20.69,0,0,0,6.47.34c4.23-.51,5.52-2.15,8.63-2.27s5.2,1.37,8.18,3.18a116.69,116.69,0,0,0,15.7,7.94" transform="translate(-0.12 0)"/>
  <path class="cls-15" d="M346.26,75.6c4.94-9,10.12-11.91,13.91-12.95,4.56-1.25,6,.54,12.82-.49,8.44-1.29,10.17-4.68,15.94-5.3,4-.44,10.08.44,18.29,7.41" transform="translate(-0.12 0)"/>
  <path class="cls-15" d="M346.19,75.24A18.77,18.77,0,0,1,357,72.3a19.25,19.25,0,0,1,10.1,4.12c4.92,3.39,15.3,4.69,39.59-5.41" transform="translate(-0.12 0)"/>
  <path class="cls-20" d="M407,67.49c-11.88,4.29-20.85,4.07-26.86,3.05-7.29-1.23-13.5-4.16-22-2a28.11,28.11,0,0,0-9.88,4.76" transform="translate(-0.12 0)"/>
  <path class="cls-12" d="M358.76,89.88a14.14,14.14,0,0,1,5.8-3.1c2.49-.62,4.15-.22,6.38-.21,4.94,0,8.26-1.83,10.07-2.45,3.92-1.36,11.23-.57,26.16,9.41" transform="translate(-0.12 0)"/>
  <path class="cls-12" d="M359.3,89.75c1.29,1.19,3.33,3.11,5.83,5.54,3.05,3,3.55,3.56,4.87,4.35,2.54,1.52,3.63,1.08,8.51,2.35,6.05,1.58,5.9,2.66,9.39,3,3.12.25,5.43-.4,8.88-1.46a39.49,39.49,0,0,0,10.46-5" transform="translate(-0.12 0)"/>
  <path class="cls-1" d="M359.9,89a15.15,15.15,0,0,1,9.77-.47c1.34.45,1.49.76,4.55,2.28,3.75,1.87,6.4,3.19,9.12,3.76,3.66.76,5.14-.32,9.59-.74a35.85,35.85,0,0,1,13.88,1.54" transform="translate(-0.12 0)"/>
  <path class="cls-15" d="M342.28,118.11a24.16,24.16,0,0,1,11-9.8c4.8-2,9.06-1.77,16.42-1.29,5.94.39,10.14.67,15.27,2.41h0a26.9,26.9,0,0,1,10.34,3.24c.7.43,1.78,1.15,6.38,6.74,2.55,3.1,4.58,5.74,5.95,7.58" transform="translate(-0.12 0)"/>
  <path class="cls-15" d="M342.28,118.11c6.53,8.31,10.64,9.73,13.23,9.38a12.93,12.93,0,0,1,5.47,0,14.29,14.29,0,0,1,4.53,2.27c2.2,1.37,4.53,1.94,9.2,3.07,5.16,1.24,17.06,2.09,32.53.24" transform="translate(-0.12 0)"/>
  <path class="cls-20" d="M342.28,118.11c8.09-3.75,13.83-3.57,17.64-2.63,2.78.69,4.32,1.72,8.52,2.55a41.29,41.29,0,0,0,12,.53c5.21-.36,13.61,1.4,27.47,11.07" transform="translate(-0.12 0)"/>
  <path class="cls-12" d="M361.09,165.76c-.49-2.19-1.2-7,1.36-11.24,1.23-2.06,3.11-3.78,11.24-7,5.17-2,22.46-8.83,25.78-4.07.55.79.35,1.36,1.16,2.13,2.4,2.27,6.55-.37,8.53,1.36,1.57,1.37.95,4.73.39,6.4-3.09,9.24-19.4,11.86-25.2,12.79A67.55,67.55,0,0,1,361.09,165.76Z" transform="translate(-0.12 0)"/>
  <path class="cls-1" d="M361.09,165.76a25.1,25.1,0,0,1,10.07-8.65c3.13-1.41,4.61-1.17,8.44-3.15,4.19-2.17,5-3.81,8-5.59,2.61-1.54,6.7-3.08,13-2.77" transform="translate(-0.12 0)"/>
  <path class="cls-13" d="M478.49,278.05c2.86-19.7.77-27.25-1.83-30.41-.62-.75-3-3.3-2.45-6.12.4-2.21,2.22-2.8,3.78-4.73,2.26-2.79,1.95-7.1,1.32-15.72-.55-7.47-.82-11.21-2.83-13.45-.9-1-2.51-2.37-2.27-4,.21-1.44,1.66-2,2.62-3,1.56-1.53,2.35-4.46.53-12.24a75.1,75.1,0,0,0-7.52-19.22c-1.66-.55-5.3-1.49-7.69.35-1.74,1.34-1.77,3.34-2.1,9.43-.68,12.93-1.38,20.25,1.15,23.91a7.2,7.2,0,0,1,1.13,2.31,9.08,9.08,0,0,1-.74,6c-2,4.7-3.12,14.92-.31,22.31,1.4,3.7,3.43,5.76,2.76,9.36-.37,2-1.27,2.79-2.24,4.63-1.49,2.83-1.76,5.49-1.4,14,.21,4.86.58,10.43,1.2,16.6" transform="translate(-0.12 0)"/>
  <path class="cls-13" d="M487,278.05a94.15,94.15,0,0,1-2.33-13.86c-.48-5.37-.15-7-.12-15.15.07-16.24-1.18-25.74-1-33.73a47.16,47.16,0,0,0-.17-6.29c-.29-2.83-.62-3.26-.53-4.72.22-3.35,2.17-4.54,3-6.82,1.45-4.09-2.39-7.06-4.72-13.11-2-5.22-1.46-10.82-.35-22a115.39,115.39,0,0,1,2.62-15.56c.64-.83,7.1-9,12.23-7.34,2.2.72,3.34,3,4.72,6.65,4,10.88,3.43,15.88,5.85,32.88.67,4.75,1.61,10.66-1.58,13.46-1.29,1.14-2.95,1.48-3.49,3.15-.7,2.13,1.13,4.32,2.27,6.11,1.5,2.36,2.1,6.23,3.32,14,1.27,8.1.86,10.45,1.75,21,1.12,13.22,2.16,14.11,2.31,22a92.92,92.92,0,0,1-1.61,19" transform="translate(-0.12 0)"/>
  <path class="cls-21" d="M444.09,278.05h60.58a52.53,52.53,0,0,0,13.43.47c2.66-.25,5-.7,6.14.63,1,1.17.23,2.85-.63,6.3-1.51,6.05-.45,5.6-2.2,13.07-1.2,5.09-1.83,7.65-3.15,8.66-2.31,1.76-4.82.78-11.66.32-3.21-.22-.77.13-12,0-9.4-.11-9.63-.33-19.06-.47s-14.26-.22-14.8-.16c-5.28.53-8,1.45-10.24-.32-1.62-1.27-2.15-3.67-3.13-8.42-.78-3.78-.81-5.77-1.28-9.37A92.63,92.63,0,0,0,444.09,278.05Z" transform="translate(-0.12 0)"/>
  <path class="cls-22" d="M497.81,176.75c-1.25.92-2.94,1.28-3.15.92s.57-.63,2.14-2.47a7.21,7.21,0,0,1,2.27-2.16c.09,0,1.29-.64,1.55-.32s-.59,1.44-1.27,2.34A7.75,7.75,0,0,1,497.81,176.75Z" transform="translate(-0.12 0)"/>
  <path class="cls-22" d="M511.51,232.69c-1.25.92-2.95,1.28-3.16.92s.58-.63,2.15-2.47a7.24,7.24,0,0,1,2.27-2.17c.08,0,1.29-.64,1.55-.32s-.59,1.45-1.28,2.34A7.73,7.73,0,0,1,511.51,232.69Z" transform="translate(-0.12 0)"/>
  <path class="cls-22" d="M471,234.08c-1.24.92-2.94,1.28-3.15.92s.57-.63,2.14-2.47a7.35,7.35,0,0,1,2.27-2.17c.09,0,1.29-.64,1.55-.32s-.59,1.44-1.27,2.34A7.33,7.33,0,0,1,471,234.08Z" transform="translate(-0.12 0)"/>
  <path class="cls-22" d="M480,247.37c-1.24.92-2.94,1.28-3.15.92s.57-.63,2.14-2.47a7.35,7.35,0,0,1,2.27-2.17c.09,0,1.29-.64,1.55-.32s-.59,1.44-1.27,2.34A7.33,7.33,0,0,1,480,247.37Z" transform="translate(-0.12 0)"/>
  <path class="cls-22" d="M477,175.44c-.68-.79-1-1.95-.73-2.12s.46.35,1.79,1.3a4.55,4.55,0,0,1,1.58,1.41c0,.05.49.84.27,1.05s-1-.3-1.67-.7A4.73,4.73,0,0,1,477,175.44Z" transform="translate(-0.12 0)"/>
  <path class="cls-22" d="M468.57,263c-.68-.79-1-1.94-.73-2.12s.46.35,1.79,1.3a4.65,4.65,0,0,1,1.58,1.41c0,.06.48.85.26,1s-1-.29-1.67-.7A4.72,4.72,0,0,1,468.57,263Z" transform="translate(-0.12 0)"/>
  <path class="cls-22" d="M482.74,270.34c-.68-.79-1-1.94-.73-2.12s.46.35,1.79,1.3a4.55,4.55,0,0,1,1.58,1.41c0,.06.49.85.27,1.05s-1-.29-1.68-.7A4.9,4.9,0,0,1,482.74,270.34Z" transform="translate(-0.12 0)"/>
  <path class="cls-22" d="M487.64,264.22c-.67-.79-1-2-.72-2.12s.45.35,1.78,1.3a4.58,4.58,0,0,1,1.59,1.41c0,.05.48.84.26,1.05s-1-.3-1.67-.7A4.73,4.73,0,0,1,487.64,264.22Z" transform="translate(-0.12 0)"/>
  <path class="cls-22" d="M467.62,193.3c.82-.65,2-.92,2.14-.66s-.36.45-1.35,1.74a4.58,4.58,0,0,1-1.46,1.54c-.06,0-.86.46-1.06.23s.33-1,.76-1.65A4.87,4.87,0,0,1,467.62,193.3Z" transform="translate(-0.12 0)"/>
  <path class="cls-22" d="M473.65,170c.81-.66,2-.92,2.14-.67s-.36.45-1.35,1.75a4.58,4.58,0,0,1-1.46,1.54c-.06,0-.86.45-1.06.23s.33-1,.75-1.65A4.91,4.91,0,0,1,473.65,170Z" transform="translate(-0.12 0)"/>
  <path class="cls-22" d="M511.92,268c.82-.65,2-.91,2.14-.66s-.36.45-1.35,1.75a4.55,4.55,0,0,1-1.46,1.53c-.06,0-.86.46-1.06.24s.33-1,.76-1.66A4.87,4.87,0,0,1,511.92,268Z" transform="translate(-0.12 0)"/>
  <path class="cls-22" d="M481.43,234.68c-.68-.79-1-2-.73-2.12s.45.35,1.78,1.3a4.58,4.58,0,0,1,1.59,1.41s.48.84.26,1-1-.3-1.67-.7A4.72,4.72,0,0,1,481.43,234.68Z" transform="translate(-0.12 0)"/>
  <path class="cls-22" d="M499.44,192.75c-1,.75-2.43,1-2.61.72s.47-.52,1.75-2a5.78,5.78,0,0,1,1.86-1.79c.07,0,1.06-.52,1.28-.24s-.47,1.2-1,1.94A5.94,5.94,0,0,1,499.44,192.75Z" transform="translate(-0.12 0)"/>
  <path class="cls-22" d="M509,186.12c-1,.76-2.44,1-2.61.73s.47-.52,1.75-2A5.87,5.87,0,0,1,510,183c.07,0,1.07-.52,1.29-.25s-.47,1.2-1,1.94A6.27,6.27,0,0,1,509,186.12Z" transform="translate(-0.12 0)"/>
  <path class="cls-22" d="M490.33,218.89c-.71.25-1.61,0-1.7-.24s.34-.24,1.27-1c.54-.42.79-.69,1.32-.75,0,0,.71-.06.83.2s-.4.74-.81,1.11A2.65,2.65,0,0,1,490.33,218.89Z" transform="translate(-0.12 0)"/>
  <path class="cls-22" d="M501.67,145.92c-.71.25-1.61,0-1.7-.24s.34-.24,1.27-1c.54-.42.79-.7,1.32-.75.05,0,.71-.06.83.2s-.4.74-.81,1.11A2.65,2.65,0,0,1,501.67,145.92Z" transform="translate(-0.12 0)"/>
  <path class="cls-22" d="M480.9,208.22c-.48-.57-.6-1.49-.38-1.66s.35.23,1.36.84c.59.35.94.48,1.18,1,0,0,.31.64.1.84s-.82-.11-1.32-.36A2.71,2.71,0,0,1,480.9,208.22Z" transform="translate(-0.12 0)"/>
  <path class="cls-22" d="M479.07,194.05c-.48.58-.61,1.5-.38,1.67s.34-.23,1.36-.84c.58-.35.93-.48,1.17-1,0,0,.31-.64.11-.84s-.83.11-1.33.36A2.74,2.74,0,0,0,479.07,194.05Z" transform="translate(-0.12 0)"/>
  <path class="cls-22" d="M479.69,216.6c-.48.57-.61,1.49-.38,1.67s.34-.23,1.36-.84c.58-.36.93-.49,1.17-1,0-.05.31-.65.11-.85s-.83.11-1.33.36A2.77,2.77,0,0,0,479.69,216.6Z" transform="translate(-0.12 0)"/>
  <path class="cls-22" d="M471.32,254.22c-.48.57-.61,1.49-.38,1.67s.34-.23,1.35-.85c.59-.35.94-.48,1.18-1,0,0,.31-.64.11-.84s-.83.11-1.33.36A2.64,2.64,0,0,0,471.32,254.22Z" transform="translate(-0.12 0)"/>
  <path class="cls-22" d="M465,209c-.48-.57-.61-1.49-.38-1.67s.34.23,1.36.84c.58.36.93.49,1.17,1,0,0,.31.64.11.84s-.83-.11-1.33-.36A2.74,2.74,0,0,1,465,209Z" transform="translate(-0.12 0)"/>
  <path class="cls-22" d="M503.29,226.68c-1,.75-2.43,1-2.6.72s.47-.52,1.74-2a5.78,5.78,0,0,1,1.86-1.79c.07,0,1.06-.51,1.29-.24s-.47,1.2-1,1.94A6.21,6.21,0,0,1,503.29,226.68Z" transform="translate(-0.12 0)"/>
  <path class="cls-22" d="M503.94,250.58c-1,.75-2.44,1-2.61.72s.47-.52,1.74-2a5.78,5.78,0,0,1,1.86-1.79c.07,0,1.07-.51,1.29-.24s-.47,1.2-1,1.94A6.41,6.41,0,0,1,503.94,250.58Z" transform="translate(-0.12 0)"/>
  <path class="cls-22" d="M490.8,166.14c-1-1.15-1.57-2.8-1.23-3s.69.51,2.67,1.88a7.22,7.22,0,0,1,2.38,2c.05.08.77,1.22.48,1.51s-1.5-.44-2.46-1A7.76,7.76,0,0,1,490.8,166.14Z" transform="translate(-0.12 0)"/>
  <path class="cls-22" d="M480.07,146.94c-.74-.79-1.22-1.83-1-1.94s.46.37,1.78,1.39a7.13,7.13,0,0,1,1.64,1.46c0,.05.58.8.43,1s-.94-.42-1.57-.87A6.77,6.77,0,0,1,480.07,146.94Z" transform="translate(-0.12 0)"/>
  <path class="cls-22" d="M492.08,186.43c-1-1.15-1.57-2.81-1.23-3.05s.69.51,2.67,1.89a7.29,7.29,0,0,1,2.38,2c.05.08.76,1.22.47,1.51s-1.49-.44-2.45-1A7.66,7.66,0,0,1,492.08,186.43Z" transform="translate(-0.12 0)"/>
  <path class="cls-22" d="M455.05,220.76c-1-1.15-1.57-2.8-1.23-3s.69.5,2.67,1.88a7.12,7.12,0,0,1,2.38,2.05c.05.08.77,1.22.48,1.51s-1.5-.45-2.46-1A7.76,7.76,0,0,1,455.05,220.76Z" transform="translate(-0.12 0)"/>
  <path class="cls-22" d="M483.16,171.38c-.59-.68-.79-1.76-.53-2s.42.28,1.63,1c.71.43,1.12.6,1.42,1.16,0,.05.4.76.17,1s-1-.15-1.57-.46A3.64,3.64,0,0,1,483.16,171.38Z" transform="translate(-0.12 0)"/>
  <path class="cls-22" d="M496,208.94c-1-1.14-1.57-2.8-1.23-3s.69.51,2.67,1.89a7.21,7.21,0,0,1,2.39,2c.05.08.76,1.22.47,1.51s-1.5-.44-2.46-1A7.6,7.6,0,0,1,496,208.94Z" transform="translate(-0.12 0)"/>
  <path class="cls-22" d="M455.05,189.63c-1-1.15-1.57-2.81-1.23-3s.69.51,2.67,1.89a7.17,7.17,0,0,1,2.38,2c.05.08.77,1.22.48,1.51s-1.5-.44-2.46-1A8.14,8.14,0,0,1,455.05,189.63Z" transform="translate(-0.12 0)"/>
  <path class="cls-22" d="M496.62,234c-1.23-.94-2-2.48-1.75-2.77s.76.37,3,1.38a7.2,7.2,0,0,1,2.71,1.58c.06.07,1,1.07.73,1.4s-1.55-.16-2.6-.58A7.62,7.62,0,0,1,496.62,234Z" transform="translate(-0.12 0)"/>
  <path class="cls-22" d="M456.29,249.85c-1.23-.95-2.05-2.48-1.75-2.78s.76.38,3,1.38a7.14,7.14,0,0,1,2.71,1.59c.06.07,1,1.06.73,1.4s-1.55-.17-2.6-.58A7.77,7.77,0,0,1,456.29,249.85Z" transform="translate(-0.12 0)"/>
  <path class="cls-22" d="M507.83,206.55c-1.13.58-2.63.55-2.79.17s.53-.47,2-1.83a5,5,0,0,1,2.08-1.53c.08,0,1.15-.31,1.37,0s-.58,1.22-1.22,1.9A5.54,5.54,0,0,1,507.83,206.55Z" transform="translate(-0.12 0)"/>
  <path class="cls-22" d="M476.58,159.65c-1-1.15-1.57-2.81-1.23-3.05s.69.51,2.67,1.89a7.17,7.17,0,0,1,2.38,2c.06.08.77,1.22.48,1.51s-1.5-.44-2.46-1A7.66,7.66,0,0,1,476.58,159.65Z" transform="translate(-0.12 0)"/>
  <path class="cls-22" d="M497.77,260.26c-1-1.14-1.56-2.8-1.23-3s.69.51,2.67,1.89a7.21,7.21,0,0,1,2.39,2c0,.08.76,1.22.47,1.51s-1.5-.44-2.46-1A7.6,7.6,0,0,1,497.77,260.26Z" transform="translate(-0.12 0)"/>
  <path class="cls-22" d="M457.93,271c-.76-.85-1.12-2.1-.86-2.29s.51.37,2,1.37a5.13,5.13,0,0,1,1.77,1.5c0,.06.55.91.32,1.14s-1.13-.3-1.85-.73A5.2,5.2,0,0,1,457.93,271Z" transform="translate(-0.12 0)"/>
  <path class="cls-22" d="M505.44,156.28c-1,.75-2.43,1-2.61.72s.47-.52,1.75-2a5.65,5.65,0,0,1,1.86-1.78c.07,0,1.06-.52,1.28-.24s-.47,1.19-1,1.94A5.71,5.71,0,0,1,505.44,156.28Z" transform="translate(-0.12 0)"/>
  <path class="cls-13" d="M465.13,168.46c-3.35,13.77-2.07,21.66-.08,26.41a29.83,29.83,0,0,1,2.56,9.5,30.27,30.27,0,0,1-1.05,10.71c-2.18,8.65.46,16.4,2.28,26.54a154.87,154.87,0,0,1,1.93,36.43" transform="translate(-0.12 0)"/>
  <path class="cls-13" d="M487.6,142.3c-3.57,14.33-2.66,25-1,32.36,1.29,5.8,3.44,11.34,3.95,20.68a72.34,72.34,0,0,1-1,16.75c-1.56,9.48-2,27.58,2.83,65.42" transform="translate(-0.12 0)"/>
  <path class="cls-13" d="M487.6,142.3A13.31,13.31,0,0,1,492,146a15.08,15.08,0,0,1,2.69,8.69c.77,22.12.54,32.76,2.9,43.64.65,3,1.1,4.21,1.86,8.27a115.6,115.6,0,0,1,1.86,19.65c.45,24.07.42,47.42.41,51.32" transform="translate(-0.12 0)"/>
  <path class="cls-12" d="M285.17,110.45c.6-2.25-.59-2.88-.65-7.19,0-2.64.39-3.67,0-3.81-.78-.3-4,4.22-5.27,9.67s-.18,10.95.61,11c.45,0,.55-1.77,2.11-4.84S284.65,112.38,285.17,110.45Z" transform="translate(-0.12 0)"/>
  <path class="cls-12" d="M277.89,103.08c1.18-8.84.55-16.84,0-16.86-.28,0-.36,2.06-1.41,6.86-1.1,5-1.65,5.64-2.18,8.39-1.24,6.35-.2,12.84.72,12.91S277.34,107.19,277.89,103.08Z" transform="translate(-0.12 0)"/>
  <path class="cls-12" d="M273.67,80.77c-1.67,3.6-3.3,4.15-4.82,6.86-2.47,4.42-1.81,9.57-1.15,9.69.42.08,1.24-2.19,2.85-6.75,3-8.39,4.57-14.57,4.6-14.56A16.56,16.56,0,0,1,273.67,80.77Z" transform="translate(-0.12 0)"/>
  <path class="cls-12" d="M294.77,152.09c3.33-2.09,5.27-1.6,8-3,4.52-2.33,6.1-7.11,5.47-7.61-.4-.31-2.25,1.15-5.93,4.09-6.8,5.43-11.17,9.79-11.2,9.76A13.34,13.34,0,0,1,294.77,152.09Z" transform="translate(-0.12 0)"/>
  <path class="cls-12" d="M266.08,78.26c-3,4.24-4,9.57-3.26,9.93s3.56-3.28,5.38-7.17a26.29,26.29,0,0,0,2.51-12.74,16.62,16.62,0,0,1-1.25,5C268.42,75.67,267.32,76.52,266.08,78.26Z" transform="translate(-0.12 0)"/>
  <path class="cls-12" d="M262.17,71.2c-1.46,3.58-2.5,7.2-2.22,7.3s.9-2.39,3.23-5.74c1.55-2.22,2.41-2.79,3.05-4.66s.71-4.32.18-4.48C265.41,63.31,262.42,70.6,262.17,71.2Z" transform="translate(-0.12 0)"/>
  <path class="cls-12" d="M255.12,58.52c-2.27,4.08-.7,12.5.45,12.54s2.35-7.47,2.47-13.3c.06-3.48-.28-6.34-.52-6.34s-.15,1.63-.91,3.89A16.7,16.7,0,0,1,255.12,58.52Z" transform="translate(-0.12 0)"/>
  <g>
    <path class="cls-12" d="M324.13,216.35c-3,.78-4.07-.14-6.43.25-3.85.65-6.7,4.07-6.47,4.65.14.36,1.91-.32,5.45-1.68,6.52-2.52,11-4.84,11.05-4.82A11,11,0,0,1,324.13,216.35Z" transform="translate(-0.12 0)"/>
    <path class="cls-12" d="M322.17,209.17c-4,.11-7.7,2.43-7.59,3.18s3.65.83,6.88,0a19.27,19.27,0,0,0,9-5.35,11.64,11.64,0,0,1-3.66,1.91C324.84,209.47,323.81,209.12,322.17,209.17Z" transform="translate(-0.12 0)"/>
    <path class="cls-12" d="M324.7,202.19c-2.87.93-5.57,2.2-5.5,2.47s1.88-.68,5-.82c2.09-.09,2.83.24,4.27-.35s3-1.92,2.83-2.41C331,200.15,325.18,202,324.7,202.19Z" transform="translate(-0.12 0)"/>
    <path class="cls-12" d="M329.22,189.63c-3.54.6-8,6.58-7.47,7.48s5.66-2.47,9.29-5.71c2.16-1.93,3.76-3.81,3.65-4s-1.07.82-2.81,1.53A10.65,10.65,0,0,1,329.22,189.63Z" transform="translate(-0.12 0)"/>
    <path class="cls-12" d="M305.44,241.46c-2.45-.6-3-1.69-4.87-2.32-3.06-1-6.18.34-6.18.84,0,.32,1.52.52,4.56.91,5.59.71,9.64.79,9.64.82A9.28,9.28,0,0,1,305.44,241.46Z" transform="translate(-0.12 0)"/>
    <path class="cls-12" d="M306.06,235.48c-3-1.48-6.46-1.24-6.59-.65s2.49,2,5.14,2.68a14.37,14.37,0,0,0,8.24-.38,9.1,9.1,0,0,1-3.29,0A12.75,12.75,0,0,1,306.06,235.48Z" transform="translate(-0.12 0)"/>
    <path class="cls-12" d="M310,231.41c-2.41-.44-4.79-.57-4.82-.35s1.6.24,4,1.35c1.58.75,2,1.28,3.28,1.42s2.78-.23,2.81-.65C315.28,232.4,310.37,231.48,310,231.41Z" transform="translate(-0.12 0)"/>
    <path class="cls-12" d="M317,224.06c-2.83-.94-7.87,1.67-7.75,2.51s4.94.42,8.58-.51c2.18-.56,3.92-1.3,3.89-1.48s-1,.17-2.54,0A8.56,8.56,0,0,1,317,224.06Z" transform="translate(-0.12 0)"/>
  </g>
  <path class="cls-12" d="M297.75,169.78c4.63-.52,10.58-6.67,9.95-7.63s-7.45,2.4-12.27,5.69c-2.87,2-5,3.9-4.87,4.09s1.42-.82,3.71-1.51A16.42,16.42,0,0,1,297.75,169.78Z" transform="translate(-0.12 0)"/>
  <path class="cls-12" d="M248.25,50.38c3.09,3.93-.06,11.42-.41,11.35s.83-2.64,0-6.47-3-6.16-2.47-6.59S247.26,49.13,248.25,50.38Z" transform="translate(-0.12 0)"/>
  <path class="cls-12" d="M241.48,52.79a36.6,36.6,0,0,1,2,3.21c2,3.44,3.23,5.29,3.09,5.39s-1.38-2.41-3.9-3.81A6,6,0,0,1,241,56.42a6.72,6.72,0,0,1-1.33-2c-.82-1.76-1.35-4.28-.83-4.51S240.52,51.44,241.48,52.79Z" transform="translate(-0.12 0)"/>
  <path class="cls-12" d="M249.57,72.49c-.22.27-1.42-.9-3.94-1.57-2.06-.55-3-.23-4.59-.39-4.35-.45-7.72-3.84-7.48-4.33s3.06,1.54,8.14,1.83a10.86,10.86,0,0,1,3.54.4C248.1,69.45,249.86,72.14,249.57,72.49Z" transform="translate(-0.12 0)"/>
  <path class="cls-12" d="M283.7,179.22c-.14.31-1.61-.49-4.21-.45-2.13,0-2.94.59-4.53.86-4.31.74-8.47-1.61-8.37-2.15s3.36.66,8.33-.43a11,11,0,0,1,3.51-.57C281.47,176.69,283.88,178.8,283.7,179.22Z" transform="translate(-0.12 0)"/>
  <path class="cls-12" d="M273.13,129.85c-.14.31-1.61-.48-4.22-.42-2.13,0-2.93.61-4.52.9-4.31.77-8.48-1.55-8.38-2.09s3.36.63,8.32-.49a11,11,0,0,1,3.51-.61C270.88,127.33,273.31,129.43,273.13,129.85Z" transform="translate(-0.12 0)"/>
  <path class="cls-12" d="M253.42,78.34c0,.46-5.5,2.1-11.15.23-1.25-.41-1-.48-6.16-2.75-4.29-1.87-5-2-5-2.36.13-.88,6.42-1.81,11.41.91,1.34.73,1.3,1,2.89,1.84C249.8,78.46,253.42,78,253.42,78.34Z" transform="translate(-0.12 0)"/>
  <path class="cls-12" d="M279.81,155.93c.15.64-3.83,4-9.09,2.45-1.17-.35-.94-.51-6-2.74-4.13-1.84-4.81-2-4.87-2.41-.19-1.27,4.67-3.79,9.68-.87,1.33.78,1.4,1.2,3,2.06C276.87,156.79,279.68,155.41,279.81,155.93Z" transform="translate(-0.12 0)"/>
  <path class="cls-12" d="M277.28,146.65c.06.35-4.19,2.29-8.95,1.53-1.06-.17-.82-.26-5.28-1.37-3.67-.92-4.29-1-4.29-1.22,0-.69,4.95-2.17,9.29-.68,1.16.4,1.17.63,2.54,1.07C274.38,147.18,277.24,146.37,277.28,146.65Z" transform="translate(-0.12 0)"/>
  <path class="cls-12" d="M257.34,85.42c.05.54-3.12,1.33-5.25,1.64a19.74,19.74,0,0,1-9.13-.58,22.21,22.21,0,0,1-4.9-2.32c-1.44-.85-3.21-1.89-3.07-2.24.22-.55,4.78,1.48,11.54,2.49C252.93,85.36,257.28,84.79,257.34,85.42Z" transform="translate(-0.12 0)"/>
  <path class="cls-12" d="M261,92.17c.09.86-6.58,3.51-13.11,2-.4-.09-2.07-.64-5.4-1.74-7.12-2.35-7.41-2.64-7.38-2.74a17.28,17.28,0,0,1,3.81.33c2.65.34,5.32.58,8,.91C256.18,92.15,260.93,91.45,261,92.17Z" transform="translate(-0.12 0)"/>
  <path class="cls-12" d="M267.48,107.23a14.54,14.54,0,0,1-1.91-.91c-4.42-2-7.53-2-13.61-2.74-5.17-.66-7.76-1-10.63-2-4.26-1.55-8.16-4-8-4.46.13-.3,1.92.41,4.4.83,5.52.94,8.26-.59,11.83-.74C259.18,96.79,267.71,106.89,267.48,107.23Z" transform="translate(-0.12 0)"/>
  <path class="cls-12" d="M277.48,142.32a10.78,10.78,0,0,1-1.3-.69c-3-1.55-5.14-1.49-9.29-2.08-3.53-.49-5.3-.73-7.26-1.52-2.91-1.18-5.57-3-5.43-3.37s1.31.31,3,.62c3.77.71,5.64-.45,8.07-.56C271.82,134.42,277.64,142.06,277.48,142.32Z" transform="translate(-0.12 0)"/>
  <path class="cls-12" d="M269.39,114.12c-.08.14-1.34-.72-3.57-1.41-3.9-1.21-5.78-.34-10.46-.75a24.79,24.79,0,0,1-7.46-1.58c-4.73-1.89-8.4-5.49-8-6.3.35-.61,2.85.8,9.11,2.24s7,.73,10.79,2.07C265.45,110.36,269.54,113.85,269.39,114.12Z" transform="translate(-0.12 0)"/>
  <path class="cls-12" d="M270.78,122.43c-.1.33-1.14.07-3.78.1-4.77.07-5.5,1-7.64.62-4-.67-7.3-4.84-6.66-6.08s5.18,0,8.12.82C266,119.28,271,121.69,270.78,122.43Z" transform="translate(-0.12 0)"/>
  <path class="cls-12" d="M287.74,119.59c2.78-4.84,3.43-9.78,3-9.93s-.88,2.36-3.46,5.57c-1,1.3-1.71,1.82-3.22,3.82a12.65,12.65,0,0,0-2.05,3.2c-.56,1.57-.29,2.6-.15,5,.25,4.08-.17,6.75,0,6.76a24.42,24.42,0,0,1,2.26-9.17C285.42,122.3,286.1,122.43,287.74,119.59Z" transform="translate(-0.12 0)"/>
  <path class="cls-12" d="M274.88,196.7c-1.82-.87-1.37-1.91-4-4.28-1.61-1.45-2.56-1.77-2.39-2,.38-.62,5.55-.08,9.81,2.16s6.93,5.84,6.39,6.33c-.31.29-1.5-.64-4.53-1.39S276.45,197.45,274.88,196.7Z" transform="translate(-0.12 0)"/>
  <path class="cls-12" d="M276.26,187.68c-7.31-1.94-13.06-5-12.8-5.46.14-.22,1.75.39,5.92,1.13,4.36.76,5.11.53,7.46,1,5.44,1.09,9.85,4,9.44,4.75S279.65,188.58,276.26,187.68Z" transform="translate(-0.12 0)"/>
  <path class="cls-12" d="M278.24,205.41c-3.56-1-6.18-2.88-6.05-3.09s1.51.68,4.21,1.09c1.1.16,1.65.15,3.29.44a9.88,9.88,0,0,1,2.45.61,8,8,0,0,1,2.42,2.06c1.8,1.81,3.25,2.79,3.17,2.86a19.1,19.1,0,0,0-5.35-3.06C280.59,205.71,280.33,206,278.24,205.41Z" transform="translate(-0.12 0)"/>
  <path class="cls-12" d="M288,132.59c-3.24,3.91-4,7.91-3.5,8s1-1.91,4-4.5c1.22-1.05,2-1.48,3.75-3.1a10.26,10.26,0,0,0,2.37-2.59c.66-1.27.35-2.1.18-4.05-.29-3.31.2-5.47,0-5.48a14.92,14.92,0,0,1-2.62,7.43C290.74,130.39,289.94,130.29,288,132.59Z" transform="translate(-0.12 0)"/>
  <path class="cls-12" d="M296.39,141.29c4.47-5.92,5.51-12,4.83-12.15-.48-.13-1.4,2.89-5.56,6.81-1.68,1.6-2.73,2.23-5.17,4.68-1.82,1.83-2.74,2.76-3.28,3.92-.91,1.93-.48,3.18-.24,6.13.4,5-.29,8.26,0,8.28s-.24-5.4,3.62-11.23C292.66,144.61,293.76,144.77,296.39,141.29Z" transform="translate(-0.12 0)"/>
  <path class="cls-12" d="M301.54,159.22c4.85-2,7.38-5.29,7-5.64s-1.83,1.26-5.86,2.18c-1.64.38-2.55.4-5,1a10.81,10.81,0,0,0-3.44,1.23c-1.2.84-1.28,1.74-2,3.59-1.23,3.14-2.68,4.87-2.49,5s1.46-3.32,5.86-5.49C298,159.93,298.69,160.4,301.54,159.22Z" transform="translate(-0.12 0)"/>
  <path class="cls-12" d="M301,186c3.77-1.09,5.5-.09,8.55-.7,5-1,7.82-5.17,7.35-5.82-.3-.41-2.48.49-6.83,2.3-8,3.36-13.42,6.35-13.44,6.32A12.9,12.9,0,0,1,301,186Z" transform="translate(-0.12 0)"/>
  <path class="cls-12" d="M299,203.84c4.6.77,12-3.51,11.66-4.61s-7.82.27-13.35,2.11c-3.31,1.1-5.89,2.37-5.82,2.6s1.6-.4,4-.44A17.26,17.26,0,0,1,299,203.84Z" transform="translate(-0.12 0)"/>
  <path class="cls-12" d="M305.55,176.07c5.93-4.46,8.58-10,8-10.35s-2.14,2.39-7.21,5c-2.06,1.07-3.25,1.4-6.27,3.08-2.24,1.26-3.39,1.91-4.23,2.87-1.39,1.6-1.33,2.93-1.91,5.82-1,4.92-2.54,7.87-2.27,8s1.25-5.26,6.56-9.8C301.05,178.24,302.07,178.69,305.55,176.07Z" transform="translate(-0.12 0)"/>
  <path class="cls-12" d="M305.58,194.72c5.22-.6,8.55-3.06,8.25-3.5s-2.1.7-6.24.49c-1.67-.09-2.56-.32-5-.38a10.57,10.57,0,0,0-3.63.24c-1.39.49-1.72,1.33-2.92,2.91-2,2.68-3.91,3.94-3.76,4.1s2.32-2.8,7.15-3.68C302,194.43,302.52,195.08,305.58,194.72Z" transform="translate(-0.12 0)"/>
  <g>
    <path class="cls-12" d="M265.67,210.07c1.1-2.73,2.32-2.95,3.34-5,1.67-3.31.89-7.64.38-7.84-.32-.12-.83,1.64-1.83,5.16-1.85,6.51-2.74,11.39-2.77,11.38A12.12,12.12,0,0,1,265.67,210.07Z" transform="translate(-0.12 0)"/>
    <path class="cls-12" d="M273.34,223.31c2.35-1.89,3.49-8.71,2.82-9.27s-3.24,4.28-4.74,8.45a17.49,17.49,0,0,0-1.26,4.82c.11.09.5-1.1,1.5-2.38A8.89,8.89,0,0,1,273.34,223.31Z" transform="translate(-0.12 0)"/>
    <path class="cls-12" d="M250.72,186.24c-.13-4.76-1.47-8.92-1.75-8.91s.33,2.17,0,5.56c-.13,1.37-.31,2-.45,4.08a13.34,13.34,0,0,0,0,3.22c.23,1.44.73,2.17,1.63,4.06,1.53,3.19,2.21,5.47,2.31,5.42a31.11,31.11,0,0,1-1.9-8.07C250.39,189.15,250.8,189,250.72,186.24Z" transform="translate(-0.12 0)"/>
    <path class="cls-12" d="M255.33,196.57c-.42,4.16.54,7.6.85,7.55s-.1-1.86.65-4.89c.3-1.23.57-1.81,1-3.67a10.81,10.81,0,0,0,.41-2.83c-.08-1.23-.54-1.79-1.29-3.3-1.29-2.56-1.76-4.45-1.88-4.39a18.85,18.85,0,0,1,1.11,6.78C256.05,194,255.58,194.12,255.33,196.57Z" transform="translate(-0.12 0)"/>
    <path class="cls-12" d="M262.86,200.9c.41-6.17-1.09-11.34-1.52-11.27s.22,2.76-.7,7.22c-.37,1.81-.73,2.65-1.22,5.39a15.49,15.49,0,0,0-.45,4.18c.17,1.83.83,2.71,2,5,1.93,3.89,2.68,6.72,2.84,6.64a28.91,28.91,0,0,1-1.87-10.15C262,204.74,262.62,204.52,262.86,200.9Z" transform="translate(-0.12 0)"/>
    <path class="cls-12" d="M271.8,213.64c1.95-3.16,2.21-6.58,1.87-6.73s-.57,1.59-2.45,3.61c-.76.82-1.25,1.12-2.35,2.4a6.36,6.36,0,0,0-1.45,2.07c-.37,1-.11,1.8.13,3.51.41,2.91.21,4.75.35,4.78a14,14,0,0,1,1.31-6.26C270.1,215.34,270.65,215.49,271.8,213.64Z" transform="translate(-0.12 0)"/>
    <path class="cls-12" d="M279.75,225.88c1.7-5.46,1.25-10.73.8-10.83s-.35,2.6-2.21,6.32c-.75,1.5-1.29,2.14-2.36,4.45a12.14,12.14,0,0,0-1.32,3.64c-.22,1.73.27,2.77.95,5.28,1.14,4.25,1.3,7.11,1.48,7.1s-1.11-4.61.23-9.94C278,229.05,278.75,229.09,279.75,225.88Z" transform="translate(-0.12 0)"/>
  </g>
  <g>
    <path class="cls-12" d="M247.25,208.44c-2.93-.32-3.7.65-6,.6-3.7-.08-7.16-2.81-7.1-3.35,0-.35,1.84,0,5.42.81,6.61,1.43,11.34,2.94,11.34,2.91A12.54,12.54,0,0,0,247.25,208.44Z" transform="translate(-0.12 0)"/>
    <path class="cls-12" d="M255.32,221.43c-2.77,1.19-9.32-1-9.51-1.88s5.31-.83,9.69-.2a18.07,18.07,0,0,1,4.85,1.16c0,.14-1.21-.08-2.82.21A8.52,8.52,0,0,0,255.32,221.43Z" transform="translate(-0.12 0)"/>
    <path class="cls-12" d="M233.26,184c-4.14-2.36-7.18-5.5-7-5.74s1.76,1.31,4.9,2.63c1.27.53,1.91.67,3.81,1.53a13.34,13.34,0,0,1,2.85,1.49,13.69,13.69,0,0,1,2.81,3.35c2.1,2.86,3.79,4.53,3.7,4.6a31.55,31.55,0,0,0-6.22-5.48C236,185.1,235.69,185.41,233.26,184Z" transform="translate(-0.12 0)"/>
    <path class="cls-12" d="M240.2,193c3.88,1.58,6.46,4,6.27,4.3s-1.59-1-4.62-1.73c-1.23-.31-1.87-.34-3.7-.86a10.38,10.38,0,0,1-2.69-1c-1.05-.65-1.33-1.32-2.31-2.7-1.65-2.34-3.09-3.64-3-3.72a18.88,18.88,0,0,0,5.46,4.18C237.56,192.36,237.93,192,240.2,193Z" transform="translate(-0.12 0)"/>
    <path class="cls-12" d="M240.48,201.64c-5.64-2.54-9.49-6.3-9.23-6.65s2.33,1.5,6.7,2.78c1.77.52,2.69.61,5.33,1.46a15.57,15.57,0,0,1,3.9,1.58c1.54,1,2,2,3.48,4.08,2.52,3.53,4.67,5.52,4.53,5.62a29.54,29.54,0,0,0-8.08-6.42C244.29,202.66,243.79,203.13,240.48,201.64Z" transform="translate(-0.12 0)"/>
    <path class="cls-12" d="M247.51,215.52c-3.7.24-6.85-1.15-6.81-1.51s1.66.24,4.33-.47c1.08-.29,1.59-.57,3.22-.94a6.48,6.48,0,0,1,2.51-.31c1.11.18,1.64.76,3,1.78,2.38,1.72,4.1,2.41,4.05,2.55a14,14,0,0,0-6.14-1.79C249.81,214.82,249.68,215.38,247.51,215.52Z" transform="translate(-0.12 0)"/>
    <path class="cls-12" d="M254.57,228.3c-5.62-1.07-10.06-3.94-9.93-4.39s2.45.92,6.61,1c1.68,0,2.5-.13,5,0a11.83,11.83,0,0,1,3.83.54c1.63.63,2.32,1.55,4.21,3.32,3.22,3,5.66,4.5,5.57,4.66s-3.54-3.16-8.87-4.48C258.17,228.28,257.87,228.92,254.57,228.3Z" transform="translate(-0.12 0)"/>
  </g>
  <path class="cls-12" d="M179.8,129.63a23,23,0,0,1,7.76-.29c5.22.72,7.57,2.95,15.06,5.89,3.94,1.55,6.53,2.2,7.85,2.62,6.1,1.94,17.8,9.32,41.9,31.51" transform="translate(-0.12 0)"/>
  <path class="cls-12" d="M205,102.94c5.08,6.49,6,11.58,5.89,15.06-.08,2.34-.62,3.67-.66,6.76a29.33,29.33,0,0,0,2.54,12.1" transform="translate(-0.12 0)"/>
  <path class="cls-12" d="M224.14,111.22a29.28,29.28,0,0,0-3.63,3.5c-7.33,8.45-7.84,19.05-7.72,24" transform="translate(-0.12 0)"/>
  <path class="cls-12" d="M187.88,146.11c5-.7,7.12-2.49,8.11-4.06.73-1.15.9-2.24,2.12-3.7a10.9,10.9,0,0,1,4.51-3.12" transform="translate(-0.12 0)"/>
  <path class="cls-12" d="M212.79,138.75c1.16,1.29,2.52,3.2,2,4.94-.71,2.38-4.33,2.37-6.56,4.48-1.79,1.7-3.08,5.16-.57,12.93" transform="translate(-0.12 0)"/>
  <path class="cls-12" d="M219.11,142.22c4.36-3.51,7.65-4,9.86-3.7,3.54.42,5,2.73,9,3.35a14.7,14.7,0,0,0,8.64-1.53" transform="translate(-0.12 0)"/>
  <path class="cls-12" d="M226.1,147.06c-1.26,1.05-2.83,2.72-2.95,4.87-.16,3,2.69,4.51,4.23,8.11.89,2.07,1.56,5.31.17,10.23" transform="translate(-0.12 0)"/>
  <path class="cls-15" d="M151.48,66.93a43,43,0,0,1-14.68-2.14c-3.79-1.27-4.85-2.28-7.75-2.31-5.69-.06-10.05,3.71-11.91,5.32A24.62,24.62,0,0,0,111,75.9" transform="translate(-0.12 0)"/>
  <path class="cls-15" d="M128.05,32.69a17.22,17.22,0,0,1,5,3.29c4.27,4.05,5.14,9.29,5.79,11.92,1.18,4.81,4.22,11.46,12.59,19" transform="translate(-0.12 0)"/>
  <path class="cls-15" d="M152.42,66.41c6.64-5.11,11.49-5.68,14.79-5.15,4.16.68,6.52,3.21,10.72,2.21,3.58-.86,4.55-3.34,7-3.09,2.7.27,4.72,3.45,6.17,6.9" transform="translate(-0.12 0)"/>
  <path class="cls-15" d="M115.17,98.25c2-5.61,4.81-8.24,6.93-9.61,5-3.24,9.4-1.52,16.64-4a29.73,29.73,0,0,0,10-5.89" transform="translate(-0.12 0)"/>
  <path class="cls-23" d="M232.27,304.25H205.41a154.13,154.13,0,0,0-1.19-22c-.62-4.88-1.43-9.45-2.37-13.7h32A39,39,0,0,1,235,279.74c-.22,5.16-1.41,7.69-2.22,14.14A71.9,71.9,0,0,0,232.27,304.25Z" transform="translate(-0.12 0)"/>
  <path class="cls-12" d="M255.39,242a109.92,109.92,0,0,0,19.68,2.88c6.21.34,12.62,0,25.18-.74,5.51-.32,10.05-.63,13.15-.86" transform="translate(-0.12 0)"/>
  <path class="cls-12" d="M280.11,163.62c.07.86-5.22,3.51-10.4,2-.32-.09-1.64-.64-4.28-1.74-5.65-2.35-5.88-2.64-5.86-2.74a10.85,10.85,0,0,1,3,.33c2,.33,4.21.58,6.32.92C276.28,163.6,280,162.91,280.11,163.62Z" transform="translate(-0.12 0)"/>
  <path class="cls-12" d="M275.28,174c1.7,0,1.91-1.19,4.93-2.25,1.85-.65,2.67-.52,2.69-.86.06-.76-3.8-2.58-7.88-2.39s-7.74,2.41-7.62,3.12c.07.41,1.36.07,3.84.73S273.82,174,275.28,174Z" transform="translate(-0.12 0)"/>
  <path class="cls-12" d="M186.47,119.22a6.63,6.63,0,0,1,.9-1.9,8.75,8.75,0,0,1,3-2.47,5.52,5.52,0,0,1,2.61-1.19,3.76,3.76,0,0,1,2.42.89c1.1,1,.83,1.91,1.77,4.07a15.15,15.15,0,0,0,2.24,3.56,18.23,18.23,0,0,0,3.26,3.19" transform="translate(-0.12 0)"/>
  <path class="cls-12" d="M188.66,120.78a2.57,2.57,0,0,1,.1-.73,3.75,3.75,0,0,1,1.52-2c.9-.7,1.66-1.29,2.31-1.08,1.22.38.34,3,2.11,5.21.85,1.08,1.45,1,3.44,2.44a21.49,21.49,0,0,1,3.71,3.42" transform="translate(-0.12 0)"/>
  <path class="cls-24" d="M144.08,221.87h0a1,1,0,0,0-.37-.78,1.08,1.08,0,0,0-.45-.2,1.29,1.29,0,0,0-.55,0l-.39.06a2,2,0,0,0-.69.34l-.25.25a1.06,1.06,0,0,0-.25.56h0a1,1,0,0,0,.37.78.84.84,0,0,0,.45.2,1.24,1.24,0,0,0,.54.06l.4-.07a1.79,1.79,0,0,0,.69-.34l.25-.24a1.09,1.09,0,0,0,.25-.57Z" transform="translate(-0.12 0)"/>
  <path class="cls-24" d="M142.47,222.79a1,1,0,1,0-1-1A1,1,0,0,0,142.47,222.79Z" transform="translate(-0.12 0)"/>
  <path class="cls-24" d="M142.6,222.77a1,1,0,1,0-1-1A1,1,0,0,0,142.6,222.77Z" transform="translate(-0.12 0)"/>
  <path class="cls-24" d="M142.66,222.69a1,1,0,1,0-1-1A1,1,0,0,0,142.66,222.69Z" transform="translate(-0.12 0)"/>
  <path class="cls-24" d="M142.67,222.64a1,1,0,1,0-1-1A1,1,0,0,0,142.67,222.64Z" transform="translate(-0.12 0)"/>
  <path class="cls-24" d="M142.25,223a1,1,0,1,0-1-1A1,1,0,0,0,142.25,223Z" transform="translate(-0.12 0)"/>
  <path class="cls-24" d="M142.17,223a1,1,0,1,0-1-1A1,1,0,0,0,142.17,223Z" transform="translate(-0.12 0)"/>
  <path class="cls-24" d="M142.67,222.82a2.06,2.06,0,0,0,.37-.29l-.2.16.24-.14a.94.94,0,0,1,.22-.12l-.24.1h-.16a1,1,0,0,0,1-1v-.26a1,1,0,0,0-.26-.44l-.2-.16a1,1,0,0,0-.51-.14h-.3l-.32.14-.19.1-.19.11a2.63,2.63,0,0,0-.37.29l.2-.16h0a.77.77,0,0,0-.28.26.75.75,0,0,0-.18.34.9.9,0,0,0,0,.4.81.81,0,0,0,.12.37l.16.2a.87.87,0,0,0,.44.26h.27a1,1,0,0,0,.5-.14Z" transform="translate(-0.12 0)"/>
  <path class="cls-24" d="M142.63,223.8a1,1,0,1,0-1-1A1,1,0,0,0,142.63,223.8Z" transform="translate(-0.12 0)"/>
  <path class="cls-24" d="M142.93,223.9h.27l.24-.11h0l.2-.15h0l.15-.2h0v-.12l-.16.2.2-.25v-.06a.89.89,0,0,0,.12-.38.9.9,0,0,0,0-.4l-.1-.23a.7.7,0,0,0-.26-.28.38.38,0,0,0-.22-.13.73.73,0,0,0-.38-.09h-.27a.92.92,0,0,0-.44.25h0l-.16.2h0v.07a.81.81,0,0,0-.12.37.9.9,0,0,0,0,.4l.1.24a.7.7,0,0,0,.26.28.61.61,0,0,0,.22.13.73.73,0,0,0,.38.08h.27a.87.87,0,0,0,.44-.26h0l.1-.12.11-.15-1.73-1h0a.81.81,0,0,0-.12.37.68.68,0,0,0,0,.4l.1.24a.7.7,0,0,0,.26.28.5.5,0,0,0,.22.13.86.86,0,0,0,.39.09h.26a.87.87,0,0,0,.44-.26h0l.15-.2h0l-1.37.36h0l-.2-.16h0l-.15-1.21h0l.16-.2-.06.06h0a1.84,1.84,0,0,0-.17.22h0a.89.89,0,0,0-.12.38.9.9,0,0,0,0,.4,1.08,1.08,0,0,0,.46.59l.24.1a1,1,0,0,0,.53,0l.24-.1a1,1,0,0,0,.36-.36h0l-.16.2a.23.23,0,0,1,.07-.07l.08-.11.09-.11h0l-.16.2h0l-1.57-1.21h0l.16-.2-.09.09h0l-.09.11-.08.12h0l-.1.24v.53a.7.7,0,0,0,.18.34.39.39,0,0,0,.18.18.38.38,0,0,0,.22.13.43.43,0,0,0,.25.07.9.9,0,0,0,.4,0h0l.24-.1h0l.11-.09.11-.09h0l.18-.23.08-.12-.15.2h0a.75.75,0,0,0,.21-.32.86.86,0,0,0,.09-.39.85.85,0,0,0-.09-.38.72.72,0,0,0-.21-.33l-.2-.15a1,1,0,0,0-.5-.14h-.27a.92.92,0,0,0-.44.25l-.19.24h0l-.06.09.15-.2h0l.2-.16h0l.24-.1h0l1.13,1.47h0l-.15.21.09-.11v0l.16-.21h0a.81.81,0,0,0,.12-.37.68.68,0,0,0,0-.4l-.1-.24a.7.7,0,0,0-.26-.28.5.5,0,0,0-.22-.13.85.85,0,0,0-.38-.09h-.27a.87.87,0,0,0-.44.26h0a1.84,1.84,0,0,0-.17.22v0l.15-.2h0l-.16.21h0l1.73,1h0l-.16.21.06-.07c.07-.07.12-.16.18-.23h0l.1-.24a.68.68,0,0,0,0-.4.54.54,0,0,0-.06-.25.75.75,0,0,0-.21-.32l-.1-.08-.11-.08a.81.81,0,0,0-.37-.12.9.9,0,0,0-.4,0l-.24.1a1,1,0,0,0-.36.36h0l.15-.21h0l1.57,1.21h0a.81.81,0,0,0,.12-.37.9.9,0,0,0,0-.4.75.75,0,0,0-.18-.34.77.77,0,0,0-.28-.26l-.24-.1a1,1,0,0,0-.53,0l-.24.1a1,1,0,0,0-.36.36h0l.15-.2h0l1.57,1.21.07-.11-.16.2h0l-1.57-1.21V222l.16-.2v0a1.84,1.84,0,0,0-.17.22h0v.09l.16-.2h0l.2-.15h0l.24-.1h.38a.43.43,0,0,0-.16,0,.76.76,0,0,0-.39.08.85.85,0,0,0-.32.21.83.83,0,0,0-.2.32.66.66,0,0,0-.09.39v.26a1.13,1.13,0,0,0,.26.45l.2.15a1,1,0,0,0,.51.14Z" transform="translate(-0.12 0)"/>
  <path class="cls-24" d="M141.88,224.23a1.76,1.76,0,0,0,.3.24,1,1,0,0,0,1,0,1.35,1.35,0,0,0,.44-.45.86.86,0,0,1,.1-.16l-1.87-.5h0v-.27a2.9,2.9,0,0,0-.09.59,1.76,1.76,0,0,0,.07.4v.18a1.36,1.36,0,0,0,.22.73l.15.2a.89.89,0,0,0,.33.21,1,1,0,0,0,.65,0,1.5,1.5,0,0,0,.44-.26,1,1,0,0,0,.29-.71v-.06a1.5,1.5,0,0,0,0-.3.69.69,0,0,0,0-.13,2.86,2.86,0,0,1-.07-.28V224a1,1,0,0,1,0-.35v.27a2.78,2.78,0,0,1,.14-.55,1,1,0,0,0-1.47-1.13l-.2.16a1,1,0,0,0-.26.44,3,3,0,0,0-.09,1.11A3,3,0,0,0,142,225a.75.75,0,0,0,.18.34.7.7,0,0,0,.28.26,1,1,0,0,0,.77.1,1.06,1.06,0,0,0,.6-.46,1,1,0,0,0,.1-.77,2.5,2.5,0,0,1-.07-.26v.27a5.61,5.61,0,0,1,0-.58,5.81,5.81,0,0,1,0-.59v.26l.06-.23-1.93-.53a3.89,3.89,0,0,0-.18.95,3.4,3.4,0,0,0,.08.63c0,.1.08.19.1.29v-.2l1.87-.5-.06-.09.1.24V224a1.78,1.78,0,0,0-.07-.39v.11a.21.21,0,0,1,0-.11v.26c0-.18.07-.35.08-.53v-.27a.75.75,0,0,0-.18-.34,1,1,0,0,0-.52-.36,1.19,1.19,0,0,0-.53,0,1.1,1.1,0,0,0-.6.46c0,.07-.08.14-.13.21l.16-.21h0l.2-.16h0l.24-.1H143l.24.1h0l.2.15-.06-.06a1,1,0,1,0-1.42,1.41Z" transform="translate(-0.12 0)"/>
  <path class="cls-24" d="M160.4,213.45c-.05.07-.12.14-.17.22h0l-.06.13v.12h0V214a.68.68,0,0,0,0,.4.81.81,0,0,0,.12.37,1.1,1.1,0,0,0,.6.46h.26a1,1,0,0,0,.51-.13l.2-.16a1,1,0,0,0,.26-.44v-.1l-.1.24h0l-.16.21h0a.83.83,0,0,0,.2-.32.73.73,0,0,0,.09-.38.75.75,0,0,0-.09-.39.83.83,0,0,0-.2-.32l-.21-.16a1,1,0,0,0-.5-.13h-.27a1,1,0,0,0-.44.26Z" transform="translate(-0.12 0)"/>
  <path class="cls-24" d="M160.25,213.8h0l.15-.21h0l.2-.16h0l.24-.1h.54l.24.1h0l.2.16h0l-.2-.16a.81.81,0,0,0-.37-.12.62.62,0,0,0-.27,0,.81.81,0,0,0-.37.12l-.2.16-.16.2a.81.81,0,0,0-.12.37.9.9,0,0,0,0,.4h0v-.26a.91.91,0,0,0,.14.51l1.57-1.21h0l.15.2h0a1.12,1.12,0,0,0-.16-.22l-.2-.15h0a.66.66,0,0,0-.24-.11h-.27a.73.73,0,0,0-.38.08.76.76,0,0,0-.23.13.84.84,0,0,0-.25.28,1,1,0,0,0,0,1,1.09,1.09,0,0,0,.39.38l-.21-.15h0l-.16-.2h0l.16.2h0l-.16-.2h0l-.1-.24h0a.78.78,0,0,0,0,.14.74.74,0,0,0,.22.33,1.07,1.07,0,0,0,.45.26l-.73-1a1.31,1.31,0,0,0,0,.28.75.75,0,0,0,.18.34.77.77,0,0,0,.28.26l.24.1a1.19,1.19,0,0,0,.53,0h-.53l-.24-.1h0a.81.81,0,0,0,.37.12.9.9,0,0,0,.4,0,1.08,1.08,0,0,0,.59-.46l.1-.24a1,1,0,0,0,0-.53l-.1-.24a1,1,0,0,0-.36-.36l-.12,0a.24.24,0,0,0-.12,0h-.53l1.23.7h0v.26h0v-.27a.75.75,0,0,0-.18-.34.58.58,0,0,0-.17-.18,1.06,1.06,0,0,0-.35-.18h0l.24.1h0l.2.16h0l.15.2h0l.1.24h0s-.08-.19-.06-.12,0-.09-.05-.13h0l-.16-.2h0l.16.2v-.05h0l-.16-.21h0l-.21-.17.2.16h0l.16.2h0l.1.24h0v.26h0v.27h0l-.1.23h0l-1.13.46h0l-.24-.1h0l-.21-.16h0l-.16-.2h0l.08.1a.44.44,0,0,1,.08.11.83.83,0,0,0,.32.2.75.75,0,0,0,.39.09h.27a.75.75,0,0,0,.34-.18.58.58,0,0,0,.18-.17.91.91,0,0,0,.17-.34v-.27a1,1,0,0,0-.14-.51h0l.1.24h0v0l-1.67,1a1,1,0,0,0,.45.27,1.28,1.28,0,0,0,.55,0l.25-.11a1.09,1.09,0,0,0,.37-.37.7.7,0,0,0,.11-.37.68.68,0,0,0,0-.4.75.75,0,0,0-.18-.34.77.77,0,0,0-.28-.26l-.24-.1a1,1,0,0,0-.53,0l-.24.1a1,1,0,0,0-.36.36Z" transform="translate(-0.12 0)"/>
  <path class="cls-24" d="M165.19,148.52a2.2,2.2,0,0,0,1.1-.29c.21-.12.38-.28.6-.38l-.24.1h.12l-.77-1.83h0l.24-.1c-.2.08-.41.11-.61.18a1.83,1.83,0,0,0-1,.77,1,1,0,0,0,.35,1.37,1.22,1.22,0,0,0,.24.1,1.71,1.71,0,0,0,1.07-.12,8.65,8.65,0,0,0,.87-.41,1,1,0,0,0,.41-.48,1,1,0,0,0,0-.65,1.5,1.5,0,0,0-.26-.44,1,1,0,0,0-.71-.29,1.62,1.62,0,0,0-.49.08.85.85,0,0,1-.22.09l1.26,1h0v.27a0,0,0,0,1,0-.05l-.11.24v-.07l-.15.2.05-.05-.2.15h.07a1,1,0,0,0,.46-.59,1,1,0,0,0-.05-.65A1,1,0,0,0,166,146a6.28,6.28,0,0,0-.73.25l-.23.12a2.5,2.5,0,0,0-.39.34l-.16.21a.81.81,0,0,0-.12.37,1,1,0,0,0,.12.64,1.2,1.2,0,0,0,.36.35,1,1,0,0,0,.77.11l.33-.13.13-.08c.09,0,.17-.11.26-.15l-.24.11a6.94,6.94,0,0,0,1.1-.42,1,1,0,0,0,.41-.48.91.91,0,0,0,0-.65,1.17,1.17,0,0,0-.26-.44,1,1,0,0,0-.7-.29,2.07,2.07,0,0,0-1.23.37l1.22,1.57h0l-.21.16a.82.82,0,0,1,.2-.12l-.23.1a2.42,2.42,0,0,1,.46-.13,1.57,1.57,0,0,0,.8-.38,1,1,0,0,0,0-1.41h0a1,1,0,0,0-.7-.29,1.05,1.05,0,0,0-.71.29h0l.2-.15h0l.24-.11a3.89,3.89,0,0,1-.49.12,2.35,2.35,0,0,0-1,.5,1.05,1.05,0,0,0-.29.71,1,1,0,0,0,.21.6.87.87,0,0,0,.52.36,1,1,0,0,0,.77-.1l.25-.14-.23.1a1.09,1.09,0,0,1,.31-.08h-.11l-.51-1.86L166,146l.24-.1-.6.19a2.06,2.06,0,0,0-.48.21c-.09,0-.17.11-.26.15l.24-.1H165l1,1.67a.54.54,0,0,1,.15-.15l-.2.16a.92.92,0,0,1,.27-.16l-.24.1a4,4,0,0,1,.49-.15l-.77-1.83a1.22,1.22,0,0,0-.48.45,1.37,1.37,0,0,0-.2.65,1,1,0,0,0,.14.5.73.73,0,0,0,.26.29,1,1,0,0,0,.87.17c.13,0,.25-.1.39-.12h-.21l-.5-1.87a4.65,4.65,0,0,1-.63.32l.24-.1a1.9,1.9,0,0,1-.39.11h.42l.6,1.47v-.06l-.15.2.1-.1-.2.16a.72.72,0,0,1,.21-.12l-.24.1a1.58,1.58,0,0,0,.39-.12,3.19,3.19,0,0,0,.59-.21,1,1,0,0,0,.46-.6,1,1,0,0,0,0-.65,1,1,0,0,0-.41-.48,1,1,0,0,0-.77-.1,2.24,2.24,0,0,0-.66.32,1.45,1.45,0,0,1-.43.26l.24-.1a1.11,1.11,0,0,1-.31.09h.11a1,1,0,0,0-.71.3,1,1,0,0,0-.29.7,1,1,0,0,0,1,1Z" transform="translate(-0.12 0)"/>
  <path class="cls-24" d="M164.77,149.3a2.44,2.44,0,0,0,.71-.1l-1-1.68a.23.23,0,0,1-.07.07l.2-.16a4.94,4.94,0,0,0-.59.43l1.42,1.41.12-.11-.2.15a1,1,0,0,1,.17-.1l-.24.1h-.17l-1-1.27v.14l.1-.24-.06.13a1.18,1.18,0,0,0-.12.64,1,1,0,0,0,1.49.73,2.32,2.32,0,0,0,.48-.4l-.2.16h.06l-1.42-1.2v.11l.11-.24a1.75,1.75,0,0,1-.18.29l.16-.2,0,.06a1,1,0,0,0,0,1.41.93.93,0,0,0,.7.29h.27a1,1,0,0,0,.44-.26l.22-.19-.21.15h0L164.54,148l-.33.5a1,1,0,0,0,1.57,1.21,4.58,4.58,0,0,0,.34-.43l-1.73-1c-.08.12-.13.25-.21.37l.15-.2h0l1.57,1.22a1.18,1.18,0,0,1,.11-.19l-.15.21.06-.07-1.67-1v.12l.1-.24a2.53,2.53,0,0,0-.24.53,1,1,0,0,0,1.83.77c.07-.12.16-.23.24-.35l-1.83-.77v.09l.1-.24-.09.17,1.72,1a1.37,1.37,0,0,1,.13-.2l-.15.2.06-.07-1.67-1h0l.1-.24c-.06.14-.15.26-.22.39A1,1,0,0,0,165.9,150l.26-.26-1.57-1.21a2.26,2.26,0,0,1-.16.26l.16-.2-.09.09.2-.16h0a1.08,1.08,0,0,0-.46.59,1,1,0,0,0,1.47,1.13,2,2,0,0,0,.52-.43l-1.57-1.21a3.28,3.28,0,0,0-.2.31l1.72,1a.75.75,0,0,1,.07-.12l-.16.21.12-.13-1.57-1.21c0,.09-.11.17-.17.26a1,1,0,0,0,.36,1.36,1,1,0,0,0,.77.1,1.1,1.1,0,0,0,.6-.46h0l-.16.21.18-.18a1,1,0,0,0-1.41-1.42h0c-.11.1-.21.23-.33.32l.2-.15a2.35,2.35,0,0,0-.53.41,1,1,0,0,0,.44,1.67h.26a1,1,0,0,0,.51-.13,2.7,2.7,0,0,0,.94-.93l-.16.2a.18.18,0,0,0,.05-.07l-1.67-1v.08l.1-.24a.09.09,0,0,1,0,.07l.16-.2a.18.18,0,0,1-.07.05l1.42,1.42a2,2,0,0,1,.2-.21l-1.71-.7V149l.1-.24-.09.14.15-.2-.07.09a1.05,1.05,0,0,0-.29.71,1,1,0,0,0,.29.7,1,1,0,0,0,1.41,0l.37-.31-1.42-1.42a10.4,10.4,0,0,0-.85,1,2.69,2.69,0,0,0-.61,1.45,1,1,0,0,0,1,1,1,1,0,0,0,.72-.3,1.18,1.18,0,0,0,.29-.71h0v.27a1.71,1.71,0,0,1,.09-.3l-.1.24a2.62,2.62,0,0,1,.3-.51l-.15.2a8,8,0,0,1,.77-.87,1,1,0,0,0-1.42-1.42l-.36.32,1.41,1.41a1.53,1.53,0,0,0,.49-1.08,1,1,0,0,0-1.71-.71l-.2.2a1,1,0,0,0,0,1.41,1,1,0,0,0,.72.3h.27a1,1,0,0,0,.44-.26,1.28,1.28,0,0,0,.39-.65,1,1,0,0,0-.46-1.13,1.09,1.09,0,0,0-.5-.13,1,1,0,0,0-.71.29c-.13.16-.25.33-.38.5l.15-.2a2.39,2.39,0,0,1-.22.23l.2-.15-.18.1,1.21,1.57.09-.09-.2.16c.16-.12.33-.22.48-.35s.19-.2.3-.3l-1.42-1.41a3.62,3.62,0,0,0-.36.42l1.73,1a1.32,1.32,0,0,0,.16-.25,1,1,0,0,0-1.57-1.21,1.31,1.31,0,0,0-.33.44,1.09,1.09,0,0,0-.1.77,1,1,0,0,0,.45.6,1,1,0,0,0,1.37-.36h0l.2-.31a1,1,0,0,0-.25-1.29,1,1,0,0,0-1.32.08,1.7,1.7,0,0,1-.24.22l.21-.15h-.08l1,1.72a1.9,1.9,0,0,0,.49-.49l.15-.24a1,1,0,0,0-1.58-1.21l-.25.25L166,150a6,6,0,0,0,.34-.67v-.27a.76.76,0,0,0-.08-.39.94.94,0,0,0-.41-.47,1,1,0,0,0-1.21.15,2.36,2.36,0,0,0-.35.48,1,1,0,0,0,1.62,1.18,1.62,1.62,0,0,0,.1-.18,1.73,1.73,0,0,0,.22-.5,1,1,0,0,0-1.83-.77c-.07.12-.16.23-.24.35l1.83.77v-.07l-.1.23a2.06,2.06,0,0,0,.25-.57,1,1,0,0,0,0-.65,1,1,0,0,0-.41-.48,1,1,0,0,0-1.21.16,2.09,2.09,0,0,0-.33.45,1,1,0,0,0,.26,1.29.93.93,0,0,0,.6.21,1,1,0,0,0,.71-.29,2.6,2.6,0,0,0,.27-.38,1.71,1.71,0,0,1,.13-.23,1,1,0,0,0-1.73-1,.44.44,0,0,1-.08.11l.15-.2-.09.11,1.57,1.22c.1-.17.22-.33.33-.5a1,1,0,0,0-.16-1.21.92.92,0,0,0-.44-.25,1,1,0,0,0-.77.1c-.16.12-.3.26-.45.38l1.41,1.41a2.2,2.2,0,0,0,.52-.9,1,1,0,0,0-1.47-1.13,4.51,4.51,0,0,0-.47.4l.2-.16h-.07l1.37,1.37a2.25,2.25,0,0,0,.2-.51,1,1,0,0,0-.18-.87,1,1,0,0,0-.78-.39,1.64,1.64,0,0,0-1.13.54,1,1,0,0,0,1.41,1.42h0l.07-.06-.2.16c.19-.15.4-.26.58-.43a1,1,0,0,0-1-1.67.51.51,0,0,0-.29.06h.11a1,1,0,0,0,0,2Z" transform="translate(-0.12 0)"/>
  <g>
    <path class="cls-16" d="M139.48,304l34.67-.24" transform="translate(-0.12 0)"/>
    <g>
      <path class="cls-25" d="M181.67,253.83l.83-21.51" transform="translate(-0.12 0)"/>
      <g>
        <path class="cls-25" d="M128.89,233.06,130.55,252h.25" transform="translate(-0.12 0)"/>
        <path class="cls-16" d="M130.55,252l51.12,1.82v-1.16" transform="translate(-0.12 0)"/>
        <path class="cls-16" d="M132.25,252.46l7.23,51.59h.6" transform="translate(-0.12 0)"/>
      </g>
      <path class="cls-16" d="M179.72,253.83c-.23,3.69-.57,9.09-1,15.64-.51,7.09-.76,10.63-1.1,13.75a148.4,148.4,0,0,1-3.89,21" transform="translate(-0.12 0)"/>
      <path class="cls-25" d="M129,233.87l-.07-.81,53.61-.74a10,10,0,0,1,0,1.22" transform="translate(-0.12 0)"/>
    </g>
  </g>
  <path class="cls-21" d="M118.1,303.58H59.49c.31-2.41.71-5.72,1.13-9.66.58-5.52,1.09-10.27,1.41-16.07.22-4.09.4-9.49.27-15.89H115c-.21,4.84-.23,10,0,15.31A180.38,180.38,0,0,0,118.1,303.58Z" transform="translate(-0.12 0)"/>
  <path class="cls-12" d="M373,191.46c.75-3.08,2.67-9.8,5.75-10,3.64-.27,7.08,8.7,8.87,13.37,1.68,4.4,2.41,7.78,4.3,17.21,1.22,6.1,2.31,11.65,3.25,16.53" transform="translate(-0.12 0)"/>
  <path class="cls-12" d="M372.7,220.73c.19-.42,2.1-4.42,5.93-4.95s6.65,2.83,7.63,4c2.29,2.73,3.3,6.19,3.4,13.25a81.2,81.2,0,0,1-2.58,21.22" transform="translate(-0.12 0)"/>
  <path class="cls-26" d="M344.4,300.12a76.62,76.62,0,0,1-16.14-2.51,20.11,20.11,0,0,1-7.73-5.6c-3.87-5-1.32-9.72-.45-17.22a60.12,60.12,0,0,0-.31-15.91h55.9c-.09,3.07-.15,8,.27,14.18,1,14.8,3.52,18-.64,21.49C367.6,301,349.28,300.35,344.4,300.12Z" transform="translate(-0.12 0)"/>
  <g>
    <path class="cls-12" d="M308.43,214.8c-1.15-2.61-2.49-2.89-3.57-4.84-1.76-3.17-.8-7.16-.23-7.32.37-.09.89,1.58,1.91,4.92,1.88,6.17,2.74,10.77,2.77,10.76A9.76,9.76,0,0,0,308.43,214.8Z" transform="translate(-0.12 0)"/>
    <path class="cls-12" d="M301.77,217.37c-2.25-3-2.64-7-2-7.32s2.78,2.21,4,5a17,17,0,0,1,1.15,9.53,10.58,10.58,0,0,0-.68-3.74C303.56,219.15,302.7,218.59,301.77,217.37Z" transform="translate(-0.12 0)"/>
    <path class="cls-12" d="M297.9,223.1c-1-2.61-1.56-5.29-1.32-5.39s.58,1.75,2.3,4.11c1.15,1.58,1.84,1.93,2.23,3.31s.27,3.25-.2,3.42C300,228.87,298.06,223.55,297.9,223.1Z" transform="translate(-0.12 0)"/>
    <path class="cls-12" d="M290.92,233.41c-1.61-2.93.38-9.5,1.36-9.63s1.42,5.51,1.06,10c-.21,2.66-.73,4.88-.93,4.9s0-1.23-.47-2.9A9.38,9.38,0,0,0,290.92,233.41Z" transform="translate(-0.12 0)"/>
    <path class="cls-12" d="M316.75,187.15c-1.89-1.45-3.05-1.24-4.63-2.26-2.59-1.66-3.35-4.7-3-5s1.29.82,3.36,2.82c3.82,3.69,6.25,6.6,6.27,6.59A8.19,8.19,0,0,0,316.75,187.15Z" transform="translate(-0.12 0)"/>
    <path class="cls-12" d="M312.53,190.93c-2.9-1.38-4.73-4-4.35-4.45s3,.69,5.05,2.27a13.2,13.2,0,0,1,4.53,6.23,8.15,8.15,0,0,0-1.95-2.38A12.69,12.69,0,0,0,312.53,190.93Z" transform="translate(-0.12 0)"/>
    <path class="cls-12" d="M311.69,196.06c-1.75-1.51-3.24-3.18-3.09-3.33a39.09,39.09,0,0,0,3.36,2.15c1.5.74,2.17.78,3,1.61s1.44,2.16,1.15,2.42C315.56,199.39,312,196.31,311.69,196.06Z" transform="translate(-0.12 0)"/>
    <path class="cls-12" d="M310.16,205.28c-2.38-1.54-3.32-6.68-2.61-7.06s3.21,3.37,4.63,6.56a10.28,10.28,0,0,1,1.14,3.66c-.12.05-.48-.86-1.48-1.86A8.48,8.48,0,0,0,310.16,205.28Z" transform="translate(-0.12 0)"/>
  </g>
</svg>
