<svg id="Layer_1" data-name="Layer 1" xmlns="http://www.w3.org/2000/svg" viewBox="0 0 527.26 308.69">
  <defs>
    <style>
      .cls-1, .cls-11 {
        fill: #8b8b8c;
      }

      .cls-1 {
        stroke: #8b8b8c;
      }

      .cls-1, .cls-10, .cls-12, .cls-13, .cls-14, .cls-15, .cls-16, .cls-17, .cls-18, .cls-19, .cls-2, .cls-20, .cls-21, .cls-22, .cls-23, .cls-24, .cls-25, .cls-26, .cls-27, .cls-28, .cls-29, .cls-3, .cls-31, .cls-4, .cls-5, .cls-6, .cls-7, .cls-8, .cls-9 {
        stroke-miterlimit: 10;
      }

      .cls-14, .cls-15, .cls-16, .cls-19, .cls-2, .cls-23, .cls-24, .cls-31, .cls-5, .cls-7, .cls-8, .cls-9 {
        fill: none;
      }

      .cls-15, .cls-17, .cls-2, .cls-5, .cls-8 {
        stroke: #1d1d1b;
      }

      .cls-10, .cls-25, .cls-3, .cls-4 {
        fill: #d9aca3;
      }

      .cls-3, .cls-4 {
        stroke: #fff;
      }

      .cls-27, .cls-28, .cls-4, .cls-5, .cls-6, .cls-7 {
        stroke-width: 0.5px;
      }

      .cls-13, .cls-18, .cls-20, .cls-22, .cls-26, .cls-27, .cls-30, .cls-6 {
        fill: #415928;
      }

      .cls-12, .cls-13, .cls-14, .cls-16, .cls-20, .cls-21, .cls-22, .cls-23, .cls-28, .cls-6, .cls-7, .cls-9 {
        stroke: #415928;
      }

      .cls-8, .cls-9 {
        stroke-width: 0.25px;
      }

      .cls-10, .cls-24, .cls-25 {
        stroke: #d9aca3;
      }

      .cls-12, .cls-17, .cls-21, .cls-28, .cls-29 {
        fill: #6d8c3d;
      }

      .cls-12, .cls-13, .cls-14, .cls-15, .cls-17, .cls-18 {
        stroke-width: 0.75px;
      }

      .cls-18, .cls-19, .cls-26, .cls-27 {
        stroke: #6d8c3d;
      }

      .cls-22 {
        stroke-width: 2px;
      }

      .cls-23, .cls-24, .cls-25 {
        stroke-width: 3px;
      }

      .cls-29, .cls-31 {
        stroke: #425a28;
      }
    </style>
  </defs>
  <path class="cls-1" d="M383.76,304.8c3.34-.16,7.07-.58,7.27-1.79.22-1.39-4.45-2.9-4.24-3.62.45-1.48,20.51,3.18,27.79,1.51a46.87,46.87,0,0,1,5.51-1c2-.24,3.69-.31,4.52-.34,1.11,0,1.9,0,3,0l6.68.09c3.83-.28,5.82-.42,7.92-1.69.6-.37,1.32-.9,1.83-.63s.19,1.33.35,3.83c.08,1.36.21,1.47.35,3.43.08,1,.1,1.88.11,2.44"/>
  <path class="cls-2" d="M149.82,301.22,132.61,300a34.73,34.73,0,0,1-11.14-13.81c-4.06-9.55-1.6-17.53-.53-32a174.22,174.22,0,0,0-.37-29.55l66.39,0c-.11,5.71-.18,14.94.32,26.33,1.19,27.5,4.18,33.44-.76,39.93C179.2,300.55,162.38,302.14,149.82,301.22Z"/>
  <rect class="cls-2" x="130.27" y="300.35" width="46.02" height="7.03"/>
  <path class="cls-3" d="M49.15,302.36H19a20.06,20.06,0,0,1-6.61-12.15,19.62,19.62,0,0,1,1.43-10.37H51.83a25.81,25.81,0,0,1,1.43,8.4A26.66,26.66,0,0,1,49.15,302.36Z"/>
  <path class="cls-4" d="M12.7,286.38c4.7.35,9.61.59,14.73.67a256.61,256.61,0,0,0,25.74-.84"/>
  <path class="cls-4" d="M13.75,295.24a115,115,0,0,0,14.1,1.18,117,117,0,0,0,24.68-2.05"/>
  <line class="cls-4" x1="18.98" y1="279.84" x2="19.2" y2="301.72"/>
  <path class="cls-4" d="M26.12,279.84a58,58,0,0,1,1.21,6.4,71.92,71.92,0,0,1,.52,10.18c0,2.5-.08,4.55-.15,5.94"/>
  <line class="cls-4" x1="34.2" y1="279.84" x2="34.38" y2="302.36"/>
  <line class="cls-4" x1="40.69" y1="279.84" x2="40.97" y2="301.92"/>
  <path class="cls-4" d="M47.65,279.84A52.2,52.2,0,0,0,48,291.25c.07.44.14,1,.19,1.6a35.87,35.87,0,0,1-.37,6.84c-.07.67-.14,1.22-.18,1.62v.35"/>
  <path class="cls-5" d="M115.27,305.62H61.42c.28-2.79.64-6.62,1-11.18.54-6.39,1-11.88,1.29-18.6.21-4.73.37-11,.26-18.4h48.44c-.2,5.61-.22,11.53,0,17.72A260.2,260.2,0,0,0,115.27,305.62Z"/>
  <line class="cls-5" x1="80.34" y1="257.44" x2="82.58" y2="305.62"/>
  <line class="cls-5" x1="76.73" y1="257.44" x2="77.25" y2="305.02"/>
  <line class="cls-5" x1="71.4" y1="257.44" x2="71.57" y2="305.02"/>
  <line class="cls-5" x1="67.44" y1="257.44" x2="66.06" y2="305.02"/>
  <line class="cls-5" x1="84.65" y1="257.44" x2="87.08" y2="305.62"/>
  <line class="cls-5" x1="89.64" y1="257.44" x2="92.39" y2="305.62"/>
  <line class="cls-5" x1="95.66" y1="257.44" x2="97.38" y2="305.04"/>
  <line class="cls-5" x1="100.65" y1="257.44" x2="101.34" y2="305.04"/>
  <line class="cls-5" x1="105.47" y1="257.44" x2="108.05" y2="306.48"/>
  <line class="cls-5" x1="109.08" y1="257.44" x2="110.8" y2="305.62"/>
  <path class="cls-6" d="M.21,247.58a153.67,153.67,0,0,0,25.91,32.26"/>
  <path class="cls-6" d="M.21,247.58a41.75,41.75,0,0,1,8.71,4.09c6.3,3.9,9.92,8.48,13.69,13.33a85.61,85.61,0,0,1,9.24,14.84"/>
  <path class="cls-7" d="M7,216.48A179.29,179.29,0,0,0,21.07,263"/>
  <path class="cls-6" d="M31,269.27a234.63,234.63,0,0,0-13.15-33.06C14.28,229,10.61,222.41,7,216.48"/>
  <path class="cls-7" d="M38.61,202.26a106.76,106.76,0,0,0-5.69,19.37,108.17,108.17,0,0,0-2,21.24"/>
  <path class="cls-7" d="M28.82,240.37A60.46,60.46,0,0,0,28,253.12,59.53,59.53,0,0,0,30.16,267"/>
  <path class="cls-7" d="M36.3,253.82A44.82,44.82,0,0,0,32.72,246a43.4,43.4,0,0,0-4-5.81"/>
  <path class="cls-7" d="M38.61,202.26c.49,6.64.72,13.9.53,21.68A219.62,219.62,0,0,1,36.3,254.1"/>
  <path class="cls-6" d="M50.69,223.41a107.67,107.67,0,0,0-5.86,9.78c-3.14,5.94-4.84,10.53-8.53,20.91-3,8.52-5.5,15.56-7.23,20.52"/>
  <path class="cls-6" d="M50.69,223.41c-.93,3.25-2.21,7.88-3.55,13.51-1.79,7.49-2.68,11.24-3.38,16-1.88,12.88-.2,17.49-4.15,22.15a15.72,15.72,0,0,1-7.76,4.77"/>
  <path class="cls-6" d="M63.31,249a5.13,5.13,0,0,0-2.13-.12c-3.69.6-5.37,5.31-7.46,8.64C52,260.32,48.77,264,42.46,267"/>
  <path class="cls-6" d="M63.31,249c-.35,1.09-.89,2.65-1.62,4.48a55.67,55.67,0,0,1-6,11.66A52.2,52.2,0,0,1,48,273.73a73.57,73.57,0,0,1-7.33,6.11"/>
  <path class="cls-5" d="M107.83,159.43q-3,7.24-5.69,15s-3.29,9.34-6,18.94c-3.39,11.94-8.19,34.54-11.47,64.11"/>
  <path class="cls-5" d="M107.83,159.43c-3.53,10.94-6.86,22.91-9.7,35.83a388.25,388.25,0,0,0-8.49,62.18"/>
  <path class="cls-5" d="M71.38,225.07c4.7.17,7.37,1.64,8.88,2.82.54.43,1.5,1.33,3.4,3.14,1.68,1.6,3,2.92,4,3.82"/>
  <path class="cls-5" d="M71.61,225.07a17.82,17.82,0,0,0,14.93,17.21"/>
  <path class="cls-5" d="M76.46,207.12a12.24,12.24,0,0,1,7.16,3.66c1.14,1.28,1.44,2.31,3.24,5.16a58.56,58.56,0,0,0,3.46,4.9"/>
  <path class="cls-5" d="M76.26,206.87a21.66,21.66,0,0,0,4.64,13.47,21.08,21.08,0,0,0,8.26,6.22"/>
  <path class="cls-5" d="M83.57,179.2a26.45,26.45,0,0,0,2.33,8.1,27,27,0,0,0,9,10.56"/>
  <path class="cls-5" d="M83.66,179.83l-.2-.92a15.92,15.92,0,0,1,4.17,2.44c2.7,2.21,4,4.77,5.26,7.51a34,34,0,0,1,2.48,7.2"/>
  <path class="cls-5" d="M89.16,170.8a17.88,17.88,0,0,0,1.45,5.93,18.73,18.73,0,0,0,7.91,8.59"/>
  <path class="cls-5" d="M93.84,162.74A19.09,19.09,0,0,0,95,168.5a19.46,19.46,0,0,0,6.18,8.32"/>
  <path class="cls-5" d="M93.68,163a3.56,3.56,0,0,1,2.42.42c.85.55,1,1.35,1.7,2.56a19.5,19.5,0,0,0,2.37,3,9.78,9.78,0,0,1,1.63,6.39"/>
  <path class="cls-5" d="M98.23,155a9,9,0,0,0,.22,4.13c.58,1.89,1.6,2.76,3.09,5a31.21,31.21,0,0,1,2.6,4.8"/>
  <path class="cls-5" d="M98.1,155.21a3.17,3.17,0,0,1,2,.6c.84.66.85,1.51,1.68,3.31a21,21,0,0,0,1.18,2.14c.71,1.29,1.42,3.44,1.32,7.15"/>
  <path class="cls-8" d="M94.11,163.22a13.06,13.06,0,0,0,2.23,4c.42.51.82.9,1.45,1.75a20.52,20.52,0,0,1,1.54,2.47c.6,1.09,1.39,2.59,2.29,4.46"/>
  <path class="cls-5" d="M89.3,171a17.08,17.08,0,0,1,3.79,2.45,19,19,0,0,1,6,10"/>
  <path class="cls-7" d="M104.14,149.28a15.77,15.77,0,0,0-.14,4.34,16.27,16.27,0,0,0,3,7.76"/>
  <path class="cls-7" d="M104.1,149.54a1.23,1.23,0,0,1,.28,0c1,.24,1.44,1.33,1.84,2.29,2,4.87,1.81,6.54,1.65,7.33a2.07,2.07,0,0,1,0,.23l-.15.44"/>
  <path class="cls-8" d="M76.58,207.28a10.11,10.11,0,0,1,3.54,2.92,14.55,14.55,0,0,1,1.91,4c1.45,3.69,1.13,4,2.11,5.28a16.51,16.51,0,0,0,3,2.79c.47.37,1.16.93,2,1.65"/>
  <path class="cls-8" d="M83.57,179.2a10.31,10.31,0,0,1,3.09,3.35c1,1.71.61,2.32,1.6,4.09,1.29,2.29,2.17,1.81,3.41,4.09.86,1.59.72,2.36,1.88,4.19a14.52,14.52,0,0,0,1.58,2"/>
  <path class="cls-5" d="M107.87,160.39a17.67,17.67,0,0,1,1.68-3.3c.48-.73.88-1.25,1.18-1.63a20.26,20.26,0,0,1,2.73-3,9.25,9.25,0,0,1,5.52-1.88"/>
  <path class="cls-5" d="M107.45,160.62l.84-.5c4.19-2.46,4.37-2.63,5.14-2.88,1.87-.63,2.26-.09,3.09-.81l.15-.14a20.61,20.61,0,0,0,1.36-3c.47-1.08.91-1.45.83-2.3a2.2,2.2,0,0,0-.11-.51"/>
  <path class="cls-5" d="M105.44,166.88a13,13,0,0,0,3.41-2.81,10.67,10.67,0,0,1,1.74-1.91,27,27,0,0,1,2.52-1.33c1.2-.68,2-1.24,2.38-1a.49.49,0,0,1,.17.23"/>
  <path class="cls-5" d="M105.49,167a8.38,8.38,0,0,0,3.07-.35,8.8,8.8,0,0,0,2.58-1.37,16.89,16.89,0,0,0,4.55-5.37"/>
  <path class="cls-5" d="M103.29,174.52c.74-.58,1.86-1.5,3.2-2.68,1.55-1.38,2-1.91,3-2.65a17.38,17.38,0,0,1,4.23-2.35"/>
  <path class="cls-5" d="M103.12,175.27a14.26,14.26,0,0,0,2.44-.13,8.46,8.46,0,0,0,2.53-.61c1-.45.94-.85,2.39-2,1.26-1,1.7-.94,2.47-1.79.56-.62,1.12-1.75.85-4l-.36.25"/>
  <path class="cls-8" d="M115.53,160a14.36,14.36,0,0,1-2.49,2c-.93.59-1.17.59-2,1.16-1.2.86-1.34,1.35-2.36,2.14a9.13,9.13,0,0,1-2.67,1.38"/>
  <path class="cls-9" d="M108,159.69a10.43,10.43,0,0,0-1.27-2.67,15.61,15.61,0,0,1-1.33-1.88,10.24,10.24,0,0,1-.64-2.75c-.1-.6-.27-1.56-.5-2.75"/>
  <path class="cls-5" d="M100.85,183.41a19.81,19.81,0,0,1,4.07-3,19.45,19.45,0,0,1,6-2.13"/>
  <path class="cls-5" d="M100.66,184.49a10,10,0,0,1,2.82-.57c1,0,1.23.08,1.93,0a5.49,5.49,0,0,0,3.39-1.82,7.27,7.27,0,0,0,1.87-3.65"/>
  <path class="cls-8" d="M100.91,183.87a9.61,9.61,0,0,0,3.89-1.67,10.36,10.36,0,0,1,1.59-1.13c.93-.51,1.39-.53,2.33-1a9.67,9.67,0,0,0,1.72-1.18"/>
  <path class="cls-5" d="M97.52,197.15a10.53,10.53,0,0,0,5.58-.58,11.28,11.28,0,0,0,3.91-2.71,14.56,14.56,0,0,0,2.9-4.1,26.74,26.74,0,0,0-2.72.62,24.91,24.91,0,0,0-9.06,4.88"/>
  <path class="cls-5" d="M95.29,209.41a18.9,18.9,0,0,1,11.76-8.87,10.94,10.94,0,0,1-.84,3.83,10.24,10.24,0,0,1-5,5.37,9.83,9.83,0,0,1-6.13.66"/>
  <path class="cls-8" d="M95.11,210.4a14,14,0,0,1,4.83-4c1.55-.76,2.46-.81,3.78-1.7a9.58,9.58,0,0,0,3.33-4.18"/>
  <path class="cls-5" d="M93.63,219.62a21.59,21.59,0,0,1,12.26-7"/>
  <path class="cls-5" d="M93,225.07a15.35,15.35,0,0,0,8-3.57,15.57,15.57,0,0,0,5.09-9.12"/>
  <path class="cls-5" d="M91.3,236.1a35,35,0,0,1,12.25-13.74"/>
  <path class="cls-5" d="M91,241a49.82,49.82,0,0,0,6.55-3.39,8.74,8.74,0,0,0,2.72-2.17c1.26-1.65,1.34-3.37,1.56-5.15a41,41,0,0,1,1.83-8.07"/>
  <path class="cls-8" d="M91.3,238a21.23,21.23,0,0,1,5.21-5.61c1.36-1,2-1.26,3-2.14a12.88,12.88,0,0,0,3.91-7.44"/>
  <path class="cls-10" d="M232.33,306.46H205.46a183.76,183.76,0,0,0-1.18-24.09c-.62-5.35-1.44-10.36-2.37-15h32a47,47,0,0,1,1.18,12.25c-.22,5.66-1.4,8.43-2.21,15.5A85.82,85.82,0,0,0,232.33,306.46Z"/>
  <circle class="cls-11" cx="210.79" cy="275.92" r="1.41"/>
  <circle class="cls-11" cx="226.38" cy="286.91" r="1.41"/>
  <circle class="cls-11" cx="226.91" cy="277.18" r="3.41"/>
  <circle class="cls-11" cx="211.52" cy="286.91" r="3.45"/>
  <circle class="cls-11" cx="223.28" cy="297.25" r="2.82"/>
  <circle class="cls-11" cx="211.52" cy="301.45" r="2.14"/>
  <path class="cls-12" d="M201.91,225.07a41.25,41.25,0,0,0-.87,14.81c.45,3.46,1.21,5.65,5.54,18.89,1.27,3.87,2.27,6.94,2.8,8.58"/>
  <path class="cls-12" d="M201.91,225.07c.82,1.27,1.66,2.67,2.46,4.2a52.69,52.69,0,0,1,3.77,9.18"/>
  <path class="cls-12" d="M210.79,198.16c-.84,4.08-1.58,8.49-2.13,13.21a147.82,147.82,0,0,0-.85,23.42"/>
  <line class="cls-12" x1="207.81" y1="234.79" x2="210.79" y2="267.35"/>
  <path class="cls-12" d="M210.79,198.16a83.62,83.62,0,0,1,2.65,9,86.21,86.21,0,0,1,2.26,21.25c0,7.64,1,19.71,5.79,39"/>
  <path class="cls-12" d="M203.63,182.11c.29,7.61.25,13.82.16,18.12-.14,6.46-.41,9,0,13.2a55,55,0,0,0,3.91,16"/>
  <line class="cls-12" x1="203.63" y1="182.11" x2="209.3" y2="206.53"/>
  <path class="cls-12" d="M216.14,176.52a25.4,25.4,0,0,0-2.25,6.65c-.7,3.7-.27,6.16-.17,9.71a55.81,55.81,0,0,1-.93,11.69"/>
  <path class="cls-12" d="M216.14,176.52a155.21,155.21,0,0,0,2,23.19c1.27,7.78,2.42,11.23,3.77,19.23a178.88,178.88,0,0,1,2.34,23.89"/>
  <path class="cls-12" d="M224.14,196.91a26.63,26.63,0,0,1-1.79,6.12,27.26,27.26,0,0,1-2.66,4.8"/>
  <path class="cls-12" d="M224.14,196.91A49.89,49.89,0,0,1,226,213.75c-.22,3.24-.68,4.92-.87,8.75a58.51,58.51,0,0,0,1,14.09"/>
  <path class="cls-12" d="M236,210.47a94.84,94.84,0,0,0-6.45,14.37c-1.62,4.57-2.24,7.44-3.44,11.75a188.33,188.33,0,0,1-7,20.39"/>
  <path class="cls-12" d="M236,210.47a95.54,95.54,0,0,1-2.4,21.07c-1.2,5.22-2.2,7.6-3.65,13.23a138.67,138.67,0,0,0-3.84,22.58"/>
  <path class="cls-13" d="M116.48,165.18c.18,7.62,2.47,12.19,4.59,15,2.56,3.37,5.16,4.52,7.14,8.79a20.85,20.85,0,0,1,1.7,9.78c0,5.41,2.18,13.68,12.42,25.92"/>
  <path class="cls-13" d="M118,163.41a77.43,77.43,0,0,0,4.52,9.47c1.2,2.15,2,3.4,2.74,4.52a80.59,80.59,0,0,1,9,21.62c1.72,6.39.77,5.91,2.1,9.84a38.6,38.6,0,0,0,10.49,15.78"/>
  <path class="cls-14" d="M107.45,127.44c2.46-10-.18-17.83-4.36-19.22-2.7-.9-6.35.8-8.48,2.83-3.08,2.93-2.24,5.81-5.09,10.36a23.52,23.52,0,0,1-7,6.79c-9.62,7.24-13.25,25-14,29-4.17,20.49,3.22,37.18,5.94,42.66.3-.43.59-.87.88-1.31"/>
  <path class="cls-15" d="M107.45,127.44c14.54-14.38,19.44-17.06,20.78-16,.76.6,1,2.88,3.32,4.35.75.46,1.24.28,1.7.75,1.32,1.37-.05,4.7-.34,5.44-2.59,6.52-.49,11-4.1,21.86a68.17,68.17,0,0,1-15,24.79"/>
  <path class="cls-5" d="M79.33,193.09a17,17,0,0,0,1.21,6.15c2.93,7.2,10.08,9.88,11.62,10.41"/>
  <path class="cls-5" d="M79.49,193.33c2,.69,3.63,1.36,4.87,1.9A13.13,13.13,0,0,1,88,197.28a11.17,11.17,0,0,1,2,2.51,30.8,30.8,0,0,1,3,5.91"/>
  <path class="cls-14" d="M74.09,199.48l5.4-4.19"/>
  <path class="cls-14" d="M81.2,194l5.92-4.78"/>
  <line class="cls-14" x1="91.1" y1="185.17" x2="94.42" y2="182.22"/>
  <line class="cls-14" x1="97.63" y1="179.37" x2="101.22" y2="176.82"/>
  <path class="cls-16" d="M100.66,112.67q-.8,10.06-1.6,20.15"/>
  <path class="cls-16" d="M82.81,130.86A14.08,14.08,0,0,1,92,129.15c5.24.93,9.58,5.13,11.25,10.76"/>
  <path class="cls-16" d="M124,112.82a36.19,36.19,0,0,0-8.7,10.23c-2,3.61-2.27,5.6-4.77,9.26-2.1,3.07-3.94,4.62-7.22,7.6-8.13,7.4-12.19,11.1-14.81,14.82-1.59,2.27-3,4.89-5.93,14.38a263.73,263.73,0,0,0-7.23,29.41"/>
  <path class="cls-16" d="M130.16,129.68a16.25,16.25,0,0,0-20.25,4.09"/>
  <path class="cls-16" d="M95,147.75A23.51,23.51,0,0,1,88.9,149a24.53,24.53,0,0,1-5.39-.26c-2.73-.31-7.32,1.27-15.34,10.22"/>
  <path class="cls-16" d="M99.1,143.74a10.47,10.47,0,0,0,5.83.92c2.57-.38,3.17-1.63,5.2-1.75,2.9-.17,5.2,2.16,7.44,4.43a25.23,25.23,0,0,1,5.6,8.76"/>
  <path class="cls-16" d="M86.88,157.39c2.61,2.07,3.25,3.87,3.33,5.16.11,1.8-.86,2.76-.79,4.94A8.42,8.42,0,0,0,91,171.94"/>
  <path class="cls-14" d="M154.08,52.39a48.88,48.88,0,0,1-7-9.35c-2.55-4.42-2.65-6.2-5-8.18a14.48,14.48,0,0,0-12.56-2.63c-7.87,2-11.29,10.28-12,12-1.68,4.11-.69,5.37-2.92,9.94-2.38,4.87-4.13,4.71-5.68,8.33-2.19,5.11.63,7,.13,15.34-.54,9-4,10-2.63,15.49.85,3.5,2.52,4.29,7.31,11.1a114.38,114.38,0,0,1,6.72,10.82"/>
  <path class="cls-15" d="M153.76,52.18c2.21-2,13.9-12.6,21.2-16.37,2.11-1.09,4.35-1.86,5.83-.92s1.15,2.73,2.9,3.83c1.52,1,2.63.16,3.78.59,3.78,1.4-.39,13.22,3.25,26.38,1.14,4.13,2.28,5.6,4,12.42,2,7.85,1.71,10.76.29,12.83-1.53,2.25-3,1.44-5.24,4.09-3.15,3.69-1.39,6.45-4.07,9.34s-5.48.93-9.31,3.79c-3.42,2.55-2.9,5.4-5.82,10.22-.14.22-.29.46-.47.72-3.06,4.43-6.51,6.59-10,9.2-8.16,6.08-9.62,10-16.79,11.93l-.41.11"/>
  <path class="cls-17" d="M143.19,140.66a29.2,29.2,0,0,0-6.41-11.21,27.47,27.47,0,0,0-4.61-4"/>
  <path class="cls-16" d="M151.48,66.93c-.84,3.08-2,7.57-3.08,13.07-1.75,8.77-2.65,13.26-2.65,19.24,0,8.22,1.7,9.64,1.77,17.77a60.49,60.49,0,0,1-2.06,16.06"/>
  <path class="cls-16" d="M151.31,67.1c10.8-6.62,15.59-12.86,17.94-17.5.93-1.84,3.05-6.52,7.93-9.11a16.11,16.11,0,0,1,6.51-1.77"/>
  <path class="cls-16" d="M152.42,66.41c6.64-5.11,11.49-5.68,14.79-5.15,4.16.68,6.52,3.21,10.72,2.21,3.58-.86,4.55-3.34,7-3.09,2.7.27,4.72,3.45,6.17,6.9"/>
  <path class="cls-16" d="M128.05,32.69a17.24,17.24,0,0,1,5,3.29c4.27,4.05,5.14,9.29,5.79,11.92,1.18,4.81,4.22,11.46,12.59,19"/>
  <path class="cls-16" d="M151.48,66.93a42.9,42.9,0,0,1-14.68-2.14c-3.79-1.27-4.85-2.28-7.75-2.31-5.69-.06-10.05,3.71-11.91,5.32A24.7,24.7,0,0,0,111,75.9"/>
  <path class="cls-16" d="M115.17,98.25c2-5.61,4.81-8.24,6.93-9.61,5-3.24,9.4-1.52,16.64-4a29.69,29.69,0,0,0,10-5.89"/>
  <path class="cls-16" d="M177.6,104.82c.09-7-1.92-11.08-3.85-13.56-2.3-3-3.84-2.8-6.42-6.29-3.48-4.72-2.5-7.51-5.16-11.33-1.59-2.3-4.58-5.07-10.69-6.71"/>
  <path class="cls-16" d="M146.44,90.5a17.56,17.56,0,0,1,7.3,7.68c.69,1.51,1.19,4.67,2.14,10.95.83,5.42.94,6.9,2,9.06a17,17,0,0,0,4.78,5.78"/>
  <path class="cls-16" d="M145.75,99.24a4.8,4.8,0,0,0-3.33-.68c-2.23.48-3.22,3-4.66,5.28a26.69,26.69,0,0,1-6.92,7.38"/>
  <path class="cls-14" d="M158.79,129.3c.7,2.09,1.2,3.86,1.54,5.16,1.24,4.7,1.85,7,1.52,9.6-.27,2.08-.81,2.46-.89,4.68a15.11,15.11,0,0,0,.76,5.16"/>
  <path class="cls-14" d="M162.37,126.44a29,29,0,0,0-.06,6.78c.49,4.43,1.77,6.45,2.65,10.56a35.23,35.23,0,0,1,.61,10.21"/>
  <path class="cls-13" d="M156.78,210.62a24.59,24.59,0,0,1-1.78,12.2l-.19,1.55"/>
  <path class="cls-13" d="M160.19,214.2a20.61,20.61,0,0,0-1.38,10.17"/>
  <path class="cls-18" d="M158.78,170.53c-1.39-1.47-8.51-8.72-16.92-7.55-1.52.21-5.27.73-6.85,3.49-1,1.74-.78,3.77-.5,6.51a25,25,0,0,0,1.26,5.61s.39,1.39,1.15,3.47c1.37,3.75,2.52,5.72,3.35,7.61,2.36,5.38.52,6.31,2.28,9.88,2.92,5.92,8.24,3.8,14.23,11.07,2.7,3.27,2.86,5.21,5.88,6.93,3.36,1.91,6.67,1.51,8.68,1.48,4.51-.08,11.06,1.5,19.69,9.1"/>
  <path class="cls-18" d="M158.78,170.53c-1.62-8.37-.48-15.06,2.94-16.63,2.84-1.29,6.59,1.23,11.55,4.65.94.65,10.29,7.18,15.33,14.52,8.05,11.73,10.07,32.8,2.43,55.06"/>
  <path class="cls-19" d="M165.57,154a5,5,0,0,0-2.12,1.67c-1.92,2.78,0,7.09.65,8.85,1.4,3.76,2.3,9.65-.18,18.9"/>
  <path class="cls-19" d="M134.37,168.41a18.93,18.93,0,0,1,10.9.93c3,1.3,4.5,3.06,8.51,6.46,4.85,4.11,7,5.16,10.14,7.61,9.54,7.4,15.09,17.23,18.69,23.59A100.47,100.47,0,0,1,191,226.56"/>
  <path class="cls-19" d="M169.75,188.67a20.27,20.27,0,0,0,6.77-6c2.57-3.58,2.77-6.33,5.35-7.51s5.6-.07,8,1.14"/>
  <path class="cls-19" d="M166.73,185.76a64.66,64.66,0,0,1-8.28,2.26c-5.33,1.06-7.9.81-10.78,2.45a10.65,10.65,0,0,0-4,4"/>
  <path class="cls-19" d="M171.52,190.82c-2,1.74-4.34,4.36-4.36,7.61,0,3,1.88,4.56,3.21,7.78a16.32,16.32,0,0,1,.29,11.32"/>
  <path class="cls-19" d="M178.16,199.51a6.79,6.79,0,0,1,4.93-.55c2.82.93,3.21,3.9,6.44,6.6a14.32,14.32,0,0,0,5.88,2.88"/>
  <path class="cls-20" d="M189.24,154.75a13,13,0,0,1-1.54,4.68c-.63,1.13-1.14,1.62-2.14,3.07a32.33,32.33,0,0,0-2.46,4.18"/>
  <path class="cls-20" d="M192,156.81a16,16,0,0,1-1.57,4.2,39.84,39.84,0,0,1-2.3,3.4,25.29,25.29,0,0,0-2.51,5"/>
  <path class="cls-21" d="M258.91,172.76c.8-1-.53-2.86-1.31-5.67-1.12-4.06-.23-7.08,0-9.38.83-8.13-5.52-16.83-10.91-24.22-6.76-9.27-8.33-7.22-12-14.18-2.51-4.78-3.76-9.52-8.73-12.44-1.38-.82-1.42-.53-5.67-2-10.84-3.66-13.88-6.63-18-5.1a8.5,8.5,0,0,0-3.4,2.37,68.84,68.84,0,0,0,.6,9.4c1.41,10.5,4.55,15.06,3,16.42-3.27,2.84-19.2-14.85-26.24-10.75-2.21,1.29-2.64,4.25-3,6.89-1.89,13,9,26,18.85,32.67a48,48,0,0,0,15.06,6.79c7.31,7.53,13.81,9.78,18.33,10.45,10.5,1.57,18-4.16,28.25-1.29C254.7,173.05,257.94,174,258.91,172.76Z"/>
  <path class="cls-2" d="M255.39,242a109.62,109.62,0,0,0,19.68,2.88c6.21.34,12.62,0,25.18-.74,5.51-.32,10.05-.63,13.15-.86"/>
  <path class="cls-2" d="M247.31,63.82A276.87,276.87,0,0,1,277,128.09,280.7,280.7,0,0,1,287.88,243.3"/>
  <path class="cls-2" d="M286.41,244.73c-.68-1-1.73-2.66-3.1-4.91-3.92-6.45-7.72-13.51-12.51-22.61-4.29-8.17-10.27-19.68-17.22-33.53"/>
  <path class="cls-2" d="M349.4,149.07a148,148,0,0,0-19.46,17.49c-25.63,27.56-34.95,58.94-38.69,78"/>
  <path class="cls-2" d="M312.9,242.83l1.77,54a46.61,46.61,0,0,1-4.59,2c-6.74,2.55-12.67,3.07-34.44,1.56-13.1-.91-17-1.52-19.1-4.77-1.36-2.11-1.15-4.06-1-8.36.31-8.83-.66-17.65-.6-26.48,0-4.12.07-10.8.07-19.29"/>
  <path class="cls-2" d="M261.18,298.91l.16,5.25"/>
  <line class="cls-2" x1="307.56" y1="299.76" x2="307.7" y2="306.19"/>
  <path class="cls-2" d="M261,303.69a88.11,88.11,0,0,0,9.57,2.26,95.08,95.08,0,0,0,18.14,1.36A125,125,0,0,0,308,305.73"/>
  <line class="cls-2" x1="259.24" y1="242.83" x2="259.58" y2="298.19"/>
  <line class="cls-2" x1="264.51" y1="243.71" x2="264.89" y2="299.48"/>
  <line class="cls-2" x1="270.14" y1="244.52" x2="269.85" y2="300.01"/>
  <line class="cls-2" x1="276.61" y1="245.04" x2="276.96" y2="300.55"/>
  <line class="cls-2" x1="283.96" y1="245.04" x2="285.36" y2="301.05"/>
  <line class="cls-2" x1="293.98" y1="244.52" x2="294.82" y2="301.3"/>
  <line class="cls-2" x1="299.78" y1="243.91" x2="300.61" y2="301.3"/>
  <line class="cls-2" x1="305.11" y1="243.63" x2="305.78" y2="300.24"/>
  <line class="cls-2" x1="309.47" y1="243.3" x2="310.08" y2="298.9"/>
  <path class="cls-22" d="M338.32,259.13l1.67,12.3h.24"/>
  <path class="cls-22" d="M391.1,272.61l.83-14"/>
  <path class="cls-22" d="M340,271.43l51.11,1.18c0-.25,0-.5,0-.75"/>
  <path class="cls-22" d="M338.39,259.66l-.07-.53,53.61-.48c0,.26,0,.53,0,.79"/>
  <path class="cls-23" d="M341.69,271.72q3.62,16.74,7.22,33.48l.6,0"/>
  <path class="cls-23" d="M389.15,272.61c-.22,2.39-.56,5.9-1,10.15-.51,4.6-.77,6.9-1.11,8.92a66.39,66.39,0,0,1-3.89,13.65"/>
  <path class="cls-23" d="M348.91,305.18l34.68-.15"/>
  <path class="cls-21" d="M353.33,241.44a20.45,20.45,0,0,1,2.54,3.19A22.82,22.82,0,0,1,359.06,259"/>
  <path class="cls-16" d="M354.31,238.82a16.59,16.59,0,0,1,3.77,3.44,17,17,0,0,1,3.52,9.08"/>
  <line class="cls-21" x1="364.62" y1="234.32" x2="361.15" y2="248.59"/>
  <path class="cls-21" d="M367.63,239.07a36.35,36.35,0,0,0-1.76,4.51,37,37,0,0,0-1.63,9"/>
  <path class="cls-21" d="M373.6,243.34a30.12,30.12,0,0,0-4.42,3.3,31.37,31.37,0,0,0-4.82,5.49"/>
  <path class="cls-21" d="M375.86,244.63A36.61,36.61,0,0,0,364,258.9"/>
  <path class="cls-16" d="M373.38,220.54c-3.33-1.88-6.94-2-9.14-.23-2.54,2-2.3,5.77-2.18,7.37.61,8.12,8.78,13.75,11,15.26,1.86,1.28,2.68,1.55,4,2.35h0c1.12.8,2,1.35,2.08,1.4.56.34,2.5,2.13,8.06,7.92"/>
  <path class="cls-16" d="M372.7,220.73c.19-.42,2.1-4.42,5.93-4.95s6.65,2.83,7.63,4c2.29,2.73,3.3,6.19,3.4,13.25a81.44,81.44,0,0,1-2.58,21.22"/>
  <path class="cls-16" d="M373,220.46a57.34,57.34,0,0,1,6,10.86c2,4.78,2.47,7.8,5.48,16.14.95,2.64,1.8,4.8,2.36,6.22"/>
  <path class="cls-21" d="M361.6,206.74a16.1,16.1,0,0,1,1.64,2.69A18,18,0,0,1,364.72,220"/>
  <path class="cls-21" d="M363.27,203.6a25.82,25.82,0,0,1,2.09,4.18A26.13,26.13,0,0,1,367,219.14"/>
  <path class="cls-16" d="M364,178.4a14.62,14.62,0,0,1,2.13,3.38c1.29,2.86,1.81,6.53.37,12.64-1.11,4.72-1.78,4.08-4.85,12.32-2.92,7.82-6.48,19.59-6.66,20.48a1.56,1.56,0,0,1-.12.39,2.1,2.1,0,0,1-.79.89"/>
  <path class="cls-16" d="M364,178.4a3,3,0,0,0-1.74-.24c-2.06.38-2.18,3.08-4.14,4.12-2.13,1.13-3.91-1-6.22-.58-3.44.67-5,6.52-5.92,10.09-1.31,5.11-3.71,14.47.62,25.29A36.71,36.71,0,0,0,354.31,229"/>
  <path class="cls-16" d="M358.07,182.28a42.63,42.63,0,0,0-2.88,4.76c-8,15.46-4.48,32.24-1.86,40.87"/>
  <path class="cls-21" d="M373,191.46a8.58,8.58,0,0,0-3.16,2c-4.57,4.68-1.52,13.46-1.14,14.52a20.84,20.84,0,0,0,6.68,9.29"/>
  <path class="cls-21" d="M373,191.46c.75-3.08,2.67-9.8,5.75-10,3.64-.27,7.08,8.7,8.87,13.37,1.68,4.4,2.41,7.78,4.3,17.21,1.22,6.1,2.31,11.65,3.25,16.53"/>
  <path class="cls-16" d="M388.76,224.71c.7,1,3.25,4.25,6.28,3.93a3.5,3.5,0,0,0,.63-.12"/>
  <path class="cls-21" d="M373,191.46a30.48,30.48,0,0,1,4.41,4.56c3.72,4.77,3.4,7.34,6.86,13.17,2.79,4.69,3.76,4.31,6.51,9a43.54,43.54,0,0,1,4.39,10.34"/>
  <path class="cls-21" d="M344.36,210.53a10.77,10.77,0,0,0-5,2.4c-1.49,1.31-1.86,2.41-5.41,9.68-2.56,5.25-2.57,5-3,6.17-1.33,3.8-.84,5-2.11,8.79-.25.74-.49,1.35-.73,1.88a48.71,48.71,0,0,1-2.34,4.52c-1,1.57-2.13,4.8-3.24,12"/>
  <path class="cls-21" d="M356.54,220.92a7,7,0,0,1,1.51,2c.84,1.69,1.05,3.89-2.16,12.7-3.12,8.57-4.52,9.38-5.56,9.87-1.91.89-3.33.31-6.25,1.94-2,1.12-2.09,1.85-3.79,2.57a5.8,5.8,0,0,1-1.83.47c-2.28.16-3.16-.16-4.52-.09-2.51.12-3.68,2.83-7.51,4.72a13.87,13.87,0,0,1-4.31,1.27"/>
  <path class="cls-12" d="M323,255.91a98.55,98.55,0,0,0,8.91-12.4c3.64-6,4.89-9.53,9-14.68a53.72,53.72,0,0,1,7.32-7.56"/>
  <path class="cls-24" d="M393.48,220q21.09,2,42.53,2a.43.43,0,0,1,.24,0,.38.38,0,0,1,.19.15"/>
  <path class="cls-24" d="M436.4,222v.22q2.88,37.89,5.82,75.77"/>
  <path class="cls-1" d="M445,297.41c0-.14,0-.26-.05-.32s-.3,0-.32,0c-9.07,3.72-19.53,1.8-29.28,2.84-6.5.7-16,.71-28.57-2.56l-2.43,7.54"/>
  <line class="cls-1" x1="444.99" y1="307.03" x2="444.99" y2="297.09"/>
  <path class="cls-1" d="M411.88,221.39a124.42,124.42,0,0,0,2.46,26.66,103,103,0,0,1,1.88,11,101,101,0,0,1,.57,14.38c-.1,5.86,0,14.54.79,26.35"/>
  <path class="cls-1" d="M430.13,222.1c.27,6.29.53,11.35.72,14.77a94.17,94.17,0,0,1,.32,10.5c-.27,5.4-1,6.7-1.23,11.28a49.07,49.07,0,0,0,.94,11.44c.92,5.49,2,14.43,2.44,29.31"/>
  <path class="cls-1" d="M395.45,220.12a121.08,121.08,0,0,1,.24,24.21c-.86,9.27-2.45,14.27-1.64,24.13.38,4.72.93,5.78,1.46,11.7a117.78,117.78,0,0,1,.16,19"/>
  <line class="cls-25" x1="389.66" y1="238.59" x2="437.55" y2="237.07"/>
  <line class="cls-25" x1="439.22" y1="258.95" x2="391.89" y2="259.44"/>
  <path class="cls-25" d="M440.63,277.21c-1.73.33-4.43.86-7.72,1.58-4,.88-6.36,1.48-7.44,1.73-6.62,1.54-11.21.43-20.11.05a136.86,136.86,0,0,0-16.6.32"/>
  <path class="cls-21" d="M406.53,157.93c.28,3.29.64,8.21.9,14.2.43,9.59.31,15.42.39,23.29.07,6.16.27,15,.89,25.72"/>
  <path class="cls-21" d="M412,138.8a149.56,149.56,0,0,1,1,34.08c-.58,6.76-1.31,9.6-1.68,15.69a103,103,0,0,0,3.38,32.88"/>
  <path class="cls-26" d="M418.44,118.11c-6,2.06-10.27,6.6-10.53,11.52-.3,5.67,4.85,10,6.39,11.3,3.06,2.6,4.56,2.2,9.64,5.49a51.34,51.34,0,0,1,7.55,6.05c3.79,3.42,12.37,6.93,33.64,6.87"/>
  <path class="cls-26" d="M418.44,118.11A24.58,24.58,0,0,1,432,112c14.22-1.4,24.18,12.14,26.27,15,5.72,7.77,11.7,21,7,31.49-.22.51-.43.91-.57,1.18"/>
  <path class="cls-27" d="M418.44,118.11a17.24,17.24,0,0,1,9.26,2.68c2.94,1.94,3.15,3.63,7.23,6.08a13.62,13.62,0,0,1,3.75,2.75c1.39,1.56,1.29,2.38,2.53,3.43,1.59,1.36,3,1.08,4.84,1.71,2.62.91,4,2.94,5.8,5.52,3,4.26,7.61,10.77,13.28,19.06"/>
  <path class="cls-21" d="M411.37,45.48a152.8,152.8,0,0,0-1.6,19c-.17,7.73.4,9.28.42,20.34,0,9.46-.38,10.82-.28,18.23a193.7,193.7,0,0,0,1.25,19.59"/>
  <path class="cls-26" d="M410.39,46.11c7-4.33,9.14-8.56,9.79-11.71.6-2.93-.24-4.23,1-7.78,1.35-3.89,3.16-4.52,4.52-8.76a28.2,28.2,0,0,0,1-6.41A89.24,89.24,0,0,0,427,.06"/>
  <path class="cls-26" d="M426.82.41a36.46,36.46,0,0,0-7.48,6.92c-2.27,2.79-3.71,5.57-6.5,11a77,77,0,0,0-4,8.43c-1,3-2.26,9.4,1.63,19"/>
  <path class="cls-27" d="M410.39,45.2c6.32-14.28,8.43-21.29,9.1-25,.05-.3.14-.82.3-1.53A33,33,0,0,1,422,12c1.21-2.74,2.75-6.39,4.66-10.87"/>
  <path class="cls-21" d="M410.39,45.2c-.42,1.44-1,3.6-1.55,6.24C407.15,59.52,407,66.11,407,77.11c0,8.49,0,12.73.16,16.42.39,10.22.7,26.55.25,53"/>
  <path class="cls-21" d="M410.28,85.25a32.71,32.71,0,0,1,9.22-9.1A34.68,34.68,0,0,1,433.7,71c4.52-.74,11.49-1.88,19,1,11.3,4.42,16,15.12,17.11,17.8"/>
  <path class="cls-21" d="M410.34,90.86a79.88,79.88,0,0,1,15,2.12c11.79,2.82,13.56,6.1,20,5.23,5.34-.71,6.14-3.21,16.29-6.16a76.22,76.22,0,0,1,8.61-2"/>
  <path class="cls-28" d="M410.39,87.32c10.14-7.16,16.23-8.17,20-7.6a20.71,20.71,0,0,0,6.47.34c4.23-.51,5.52-2.15,8.63-2.27s5.2,1.37,8.18,3.18a116.21,116.21,0,0,0,15.7,7.94"/>
  <path class="cls-26" d="M346.26,75.6c4.94-9,10.12-11.91,13.91-12.95,4.56-1.25,6,.54,12.82-.49,8.44-1.29,10.17-4.68,15.94-5.3,4-.44,10.08.44,18.29,7.41"/>
  <path class="cls-26" d="M346.19,75.24A18.81,18.81,0,0,1,357,72.3a19.2,19.2,0,0,1,10.1,4.12c4.92,3.39,15.3,4.69,39.59-5.41"/>
  <path class="cls-27" d="M407,67.49c-11.88,4.29-20.85,4.07-26.86,3.05-7.29-1.23-13.5-4.16-22-2a28,28,0,0,0-9.88,4.76"/>
  <path class="cls-21" d="M358.76,89.88a14.14,14.14,0,0,1,5.8-3.1c2.49-.62,4.15-.22,6.38-.21,4.94,0,8.26-1.83,10.07-2.45,3.92-1.36,11.23-.57,26.16,9.41"/>
  <path class="cls-21" d="M359.3,89.75c1.29,1.19,3.33,3.11,5.83,5.54,3.05,3,3.55,3.56,4.87,4.35,2.54,1.52,3.63,1.08,8.51,2.35,6.05,1.58,5.9,2.66,9.39,3,3.12.25,5.43-.4,8.88-1.46a39.57,39.57,0,0,0,10.46-5"/>
  <path class="cls-28" d="M359.9,89a15.16,15.16,0,0,1,9.77-.47c1.34.45,1.49.76,4.55,2.28,3.75,1.87,6.4,3.19,9.12,3.76,3.66.76,5.14-.32,9.59-.74a35.81,35.81,0,0,1,13.88,1.54"/>
  <path class="cls-26" d="M342.28,118.11a24.18,24.18,0,0,1,11-9.8c4.8-2,9.06-1.77,16.42-1.29,5.94.39,10.14.67,15.27,2.41h0s5.92.5,10.34,3.24c.7.43,1.78,1.15,6.38,6.74,2.55,3.1,4.58,5.74,5.95,7.58"/>
  <path class="cls-26" d="M342.28,118.11c6.53,8.31,10.64,9.73,13.23,9.38a12.79,12.79,0,0,1,5.47,0,14.16,14.16,0,0,1,4.53,2.27c2.2,1.37,4.53,1.94,9.2,3.07,5.16,1.24,17.06,2.09,32.53.24"/>
  <path class="cls-27" d="M342.28,118.11c8.09-3.75,13.83-3.57,17.64-2.63,2.78.69,4.32,1.72,8.52,2.55a41.15,41.15,0,0,0,12,.53c5.21-.36,13.61,1.4,27.47,11.07"/>
  <path class="cls-21" d="M361.09,165.76c-.49-2.19-1.2-7,1.36-11.24,1.23-2.06,3.11-3.78,11.24-7,5.17-2,22.46-8.83,25.78-4.07.55.79.35,1.36,1.16,2.13,2.4,2.27,6.55-.37,8.53,1.36,1.57,1.37.95,4.73.39,6.4-3.09,9.24-19.4,11.86-25.2,12.79A67.64,67.64,0,0,1,361.09,165.76Z"/>
  <path class="cls-28" d="M361.09,165.76a25.09,25.09,0,0,1,10.07-8.65c3.13-1.41,4.61-1.17,8.44-3.15,4.19-2.17,5-3.81,8-5.59,2.61-1.54,6.7-3.08,13-2.77"/>
  <path class="cls-29" d="M478.49,278.05c2.86-19.7.77-27.25-1.83-30.41-.62-.75-3-3.3-2.45-6.12.4-2.21,2.22-2.8,3.78-4.73,2.26-2.79,1.95-7.1,1.32-15.72-.55-7.47-.82-11.21-2.83-13.45-.9-1-2.51-2.37-2.27-4,.21-1.44,1.66-2,2.62-3,1.56-1.53,2.35-4.46.53-12.24a75.23,75.23,0,0,0-7.52-19.22c-1.66-.55-5.3-1.49-7.69.35-1.74,1.34-1.77,3.34-2.1,9.43-.68,12.93-1.38,20.25,1.15,23.91a7.2,7.2,0,0,1,1.13,2.31,9.09,9.09,0,0,1-.74,6c-2,4.7-3.12,14.92-.31,22.31,1.4,3.7,3.43,5.76,2.76,9.36-.37,2-1.27,2.79-2.24,4.63-1.49,2.83-1.76,5.49-1.4,14,.21,4.86.58,10.43,1.2,16.6"/>
  <path class="cls-29" d="M487,278.05a93.27,93.27,0,0,1-2.33-13.86c-.48-5.37-.15-7-.12-15.15.07-16.24-1.18-25.74-1-33.73a46.81,46.81,0,0,0-.17-6.29c-.29-2.83-.62-3.26-.53-4.72.22-3.35,2.17-4.54,3-6.82,1.45-4.09-2.39-7.06-4.72-13.11-2-5.22-1.46-10.82-.35-22a116,116,0,0,1,2.62-15.56c.64-.83,7.1-9,12.23-7.34,2.2.72,3.34,3,4.72,6.65C504.39,157,503.78,162,506.2,179c.67,4.75,1.61,10.66-1.58,13.46-1.29,1.14-2.95,1.48-3.49,3.15-.7,2.13,1.13,4.32,2.27,6.11,1.5,2.36,2.1,6.23,3.32,14,1.27,8.1.86,10.45,1.75,21,1.12,13.22,2.16,14.11,2.31,22a92.66,92.66,0,0,1-1.61,19.05"/>
  <path class="cls-10" d="M446.15,278.05h60.58a52.88,52.88,0,0,0,13.43.47c2.66-.25,5-.7,6.14.63,1,1.17.23,2.85-.63,6.3-1.51,6.05-.45,5.6-2.21,13.07-1.19,5.09-1.82,7.65-3.14,8.66-2.31,1.76-4.82.78-11.66.32-3.21-.22-.77.13-12,0-9.39-.11-9.62-.33-19.05-.47s-14.26-.22-14.8-.16c-5.29.53-8,1.45-10.24-.32-1.62-1.27-2.15-3.67-3.13-8.42-.78-3.78-.81-5.77-1.28-9.37A92.49,92.49,0,0,0,446.15,278.05Z"/>
  <path class="cls-30" d="M497.81,176.75c-1.25.92-2.94,1.28-3.15.92s.57-.63,2.14-2.47a7.23,7.23,0,0,1,2.27-2.16c.09,0,1.29-.64,1.55-.32s-.59,1.44-1.27,2.34A7.77,7.77,0,0,1,497.81,176.75Z"/>
  <path class="cls-30" d="M511.51,232.69c-1.25.92-2.95,1.28-3.16.92s.58-.63,2.15-2.47a7.18,7.18,0,0,1,2.27-2.17c.08,0,1.29-.64,1.55-.32s-.59,1.45-1.28,2.34A7.63,7.63,0,0,1,511.51,232.69Z"/>
  <path class="cls-30" d="M471,234.08c-1.24.92-2.94,1.28-3.15.92s.57-.63,2.14-2.47a7.39,7.39,0,0,1,2.27-2.17c.09,0,1.29-.64,1.55-.32s-.59,1.44-1.27,2.34A7.4,7.4,0,0,1,471,234.08Z"/>
  <path class="cls-30" d="M480,247.37c-1.24.92-2.94,1.28-3.15.92s.57-.63,2.14-2.47a7.39,7.39,0,0,1,2.27-2.17c.09,0,1.29-.64,1.55-.32s-.59,1.44-1.27,2.34A7.4,7.4,0,0,1,480,247.37Z"/>
  <path class="cls-30" d="M477,175.44c-.68-.79-1-1.95-.73-2.12s.46.35,1.79,1.3a4.52,4.52,0,0,1,1.58,1.41c0,.05.49.84.27,1.05s-1-.3-1.67-.7A4.76,4.76,0,0,1,477,175.44Z"/>
  <path class="cls-30" d="M468.57,263c-.68-.79-1-1.94-.73-2.12s.46.35,1.79,1.3a4.71,4.71,0,0,1,1.58,1.41c0,.06.48.85.26,1s-1-.29-1.67-.7A4.68,4.68,0,0,1,468.57,263Z"/>
  <path class="cls-30" d="M482.74,270.34c-.68-.79-1-1.94-.73-2.12s.46.35,1.79,1.3a4.61,4.61,0,0,1,1.58,1.41c0,.06.49.85.27,1.05s-1-.29-1.68-.7A4.86,4.86,0,0,1,482.74,270.34Z"/>
  <path class="cls-30" d="M487.64,264.22c-.67-.79-1-2-.72-2.12s.45.35,1.78,1.3a4.66,4.66,0,0,1,1.59,1.41c0,.05.48.84.26,1.05s-1-.3-1.67-.7A4.76,4.76,0,0,1,487.64,264.22Z"/>
  <path class="cls-30" d="M467.62,193.3c.82-.65,2-.92,2.14-.66s-.36.45-1.35,1.74a4.54,4.54,0,0,1-1.46,1.54c-.06,0-.86.46-1.06.23s.33-1,.76-1.65A4.83,4.83,0,0,1,467.62,193.3Z"/>
  <path class="cls-30" d="M473.65,170c.81-.66,2-.92,2.14-.67s-.36.45-1.35,1.75a4.63,4.63,0,0,1-1.46,1.54c-.06,0-.86.45-1.06.23s.33-1,.75-1.65A4.86,4.86,0,0,1,473.65,170Z"/>
  <path class="cls-30" d="M511.92,268c.82-.65,2-.91,2.14-.66s-.36.45-1.35,1.75a4.5,4.5,0,0,1-1.46,1.53c-.06,0-.86.46-1.06.24s.33-1,.76-1.66A4.83,4.83,0,0,1,511.92,268Z"/>
  <path class="cls-30" d="M481.43,234.68c-.68-.79-1-2-.73-2.12s.45.35,1.78,1.3a4.66,4.66,0,0,1,1.59,1.41s.48.84.26,1-1-.3-1.67-.7A4.72,4.72,0,0,1,481.43,234.68Z"/>
  <path class="cls-30" d="M499.44,192.75c-1,.75-2.43,1-2.61.72s.47-.52,1.75-2a5.77,5.77,0,0,1,1.86-1.79c.07,0,1.06-.52,1.28-.24s-.47,1.2-1,1.94A6,6,0,0,1,499.44,192.75Z"/>
  <path class="cls-30" d="M509,186.12c-1,.76-2.44,1-2.61.73s.47-.52,1.75-2A5.8,5.8,0,0,1,510,183c.07,0,1.07-.52,1.29-.25s-.47,1.2-1,1.94A6.25,6.25,0,0,1,509,186.12Z"/>
  <path class="cls-30" d="M490.33,218.89c-.71.25-1.61,0-1.7-.24s.34-.24,1.27-1c.54-.42.79-.69,1.32-.75,0,0,.71-.06.83.2s-.4.74-.81,1.11A2.59,2.59,0,0,1,490.33,218.89Z"/>
  <path class="cls-30" d="M501.67,145.92c-.71.25-1.61,0-1.7-.24s.34-.24,1.27-1c.54-.42.79-.7,1.32-.75.05,0,.71-.06.83.2s-.4.74-.81,1.11A2.59,2.59,0,0,1,501.67,145.92Z"/>
  <path class="cls-30" d="M480.9,208.22c-.48-.57-.6-1.49-.38-1.66s.35.23,1.36.84c.59.35.94.48,1.18,1,0,0,.31.64.1.84s-.82-.11-1.32-.36A2.76,2.76,0,0,1,480.9,208.22Z"/>
  <path class="cls-30" d="M479.07,194.05c-.48.58-.61,1.5-.38,1.67s.34-.23,1.36-.84c.58-.35.93-.48,1.17-1,0,0,.31-.64.11-.84s-.83.11-1.33.36A2.61,2.61,0,0,0,479.07,194.05Z"/>
  <path class="cls-30" d="M479.69,216.6c-.48.57-.61,1.49-.38,1.67s.34-.23,1.36-.84c.58-.36.93-.49,1.17-1,0-.05.31-.65.11-.85s-.83.11-1.33.36A2.75,2.75,0,0,0,479.69,216.6Z"/>
  <path class="cls-30" d="M471.32,254.22c-.48.57-.61,1.49-.38,1.67s.34-.23,1.35-.85c.59-.35.94-.48,1.18-1,0,0,.31-.64.11-.84s-.83.11-1.33.36A2.61,2.61,0,0,0,471.32,254.22Z"/>
  <path class="cls-30" d="M465,209c-.48-.57-.61-1.49-.38-1.67s.34.23,1.36.84c.58.36.93.49,1.17,1,0,0,.31.64.11.84s-.83-.11-1.33-.36A2.75,2.75,0,0,1,465,209Z"/>
  <path class="cls-30" d="M503.29,226.68c-1,.75-2.43,1-2.6.72s.47-.52,1.74-2a5.87,5.87,0,0,1,1.86-1.79c.07,0,1.06-.51,1.29-.24s-.47,1.2-1,1.94A6.23,6.23,0,0,1,503.29,226.68Z"/>
  <path class="cls-30" d="M503.94,250.58c-1,.75-2.44,1-2.61.72s.47-.52,1.74-2a5.87,5.87,0,0,1,1.86-1.79c.07,0,1.07-.51,1.29-.24s-.47,1.2-1,1.94A6.48,6.48,0,0,1,503.94,250.58Z"/>
  <path class="cls-30" d="M490.8,166.14c-1-1.15-1.57-2.8-1.23-3s.69.51,2.67,1.88a7.26,7.26,0,0,1,2.38,2.05c.05.08.77,1.22.48,1.51s-1.5-.44-2.46-1A7.72,7.72,0,0,1,490.8,166.14Z"/>
  <path class="cls-30" d="M480.07,146.94c-.74-.79-1.22-1.83-1-1.94s.46.37,1.78,1.39a7.08,7.08,0,0,1,1.64,1.46c0,.05.58.8.43,1s-.94-.42-1.57-.87A7.07,7.07,0,0,1,480.07,146.94Z"/>
  <path class="cls-30" d="M492.08,186.43c-1-1.15-1.57-2.81-1.23-3.05s.69.51,2.67,1.89a7.34,7.34,0,0,1,2.38,2c.05.08.76,1.22.47,1.51s-1.49-.44-2.45-1A7.78,7.78,0,0,1,492.08,186.43Z"/>
  <path class="cls-30" d="M455.05,220.76c-1-1.15-1.57-2.8-1.23-3s.69.5,2.67,1.88a7.15,7.15,0,0,1,2.38,2.05c.05.08.77,1.22.48,1.51s-1.5-.45-2.46-1A7.72,7.72,0,0,1,455.05,220.76Z"/>
  <path class="cls-30" d="M483.16,171.38c-.59-.68-.79-1.76-.53-2s.42.28,1.63,1c.71.43,1.12.6,1.42,1.16,0,.05.4.76.17,1s-1-.15-1.57-.46A3.47,3.47,0,0,1,483.16,171.38Z"/>
  <path class="cls-30" d="M496,208.94c-1-1.14-1.57-2.8-1.23-3s.69.51,2.67,1.89a7.17,7.17,0,0,1,2.39,2c.05.08.76,1.22.47,1.51s-1.5-.44-2.46-1A7.46,7.46,0,0,1,496,208.94Z"/>
  <path class="cls-30" d="M455.05,189.63c-1-1.15-1.57-2.81-1.23-3s.69.51,2.67,1.89a7.14,7.14,0,0,1,2.38,2c.05.08.77,1.22.48,1.51s-1.5-.44-2.46-1A8,8,0,0,1,455.05,189.63Z"/>
  <path class="cls-30" d="M496.62,234c-1.23-.94-2-2.48-1.75-2.77s.76.37,3,1.38a7.27,7.27,0,0,1,2.71,1.58c.06.07,1,1.07.73,1.4s-1.55-.16-2.6-.58A7.47,7.47,0,0,1,496.62,234Z"/>
  <path class="cls-30" d="M456.29,249.85c-1.23-.95-2.05-2.48-1.75-2.78s.76.38,3,1.38a7.14,7.14,0,0,1,2.71,1.59c.06.07,1,1.06.73,1.4s-1.55-.17-2.6-.58A7.76,7.76,0,0,1,456.29,249.85Z"/>
  <path class="cls-30" d="M507.83,206.55c-1.13.58-2.63.55-2.79.17s.53-.47,2-1.83a5,5,0,0,1,2.08-1.53c.08,0,1.15-.31,1.37,0s-.58,1.22-1.22,1.9A5.49,5.49,0,0,1,507.83,206.55Z"/>
  <path class="cls-30" d="M476.58,159.65c-1-1.15-1.57-2.81-1.23-3.05s.69.51,2.67,1.89a7.14,7.14,0,0,1,2.38,2c.06.08.77,1.22.48,1.51s-1.5-.44-2.46-1A7.72,7.72,0,0,1,476.58,159.65Z"/>
  <path class="cls-30" d="M497.77,260.26c-1-1.14-1.56-2.8-1.23-3s.69.51,2.67,1.89a7.17,7.17,0,0,1,2.39,2c0,.08.76,1.22.47,1.51s-1.5-.44-2.46-1A7.46,7.46,0,0,1,497.77,260.26Z"/>
  <path class="cls-30" d="M457.93,271c-.76-.85-1.12-2.1-.86-2.29s.51.37,2,1.37a5.1,5.1,0,0,1,1.77,1.5c0,.06.55.91.32,1.14s-1.13-.3-1.85-.73A5.27,5.27,0,0,1,457.93,271Z"/>
  <path class="cls-30" d="M505.44,156.28c-1,.75-2.43,1-2.61.72s.47-.52,1.75-2a5.72,5.72,0,0,1,1.86-1.78c.07,0,1.06-.52,1.28-.24s-.47,1.19-1,1.94A6,6,0,0,1,505.44,156.28Z"/>
  <path class="cls-31" d="M465.13,168.46c-3.35,13.77-2.07,21.66-.08,26.41a29.78,29.78,0,0,1,2.56,9.5,30.16,30.16,0,0,1-1.05,10.71c-2.18,8.65.46,16.4,2.28,26.54a154.82,154.82,0,0,1,1.93,36.43"/>
  <path class="cls-31" d="M487.6,142.3c-3.57,14.33-2.66,25-1,32.36,1.29,5.8,3.44,11.34,3.95,20.68a72.16,72.16,0,0,1-1,16.75c-1.56,9.48-2,27.58,2.83,65.42"/>
  <path class="cls-31" d="M487.6,142.3A13.36,13.36,0,0,1,492,146a15.09,15.09,0,0,1,2.69,8.69c.77,22.12.54,32.76,2.9,43.64.65,3,1.1,4.21,1.86,8.27a115.25,115.25,0,0,1,1.86,19.65c.45,24.07.42,47.42.41,51.32"/>
  <path class="cls-16" d="M285.17,110.45c.6-2.25-.59-2.88-.65-7.19,0-2.64.39-3.67,0-3.81-.78-.3-4.05,4.22-5.27,9.67s-.18,10.95.61,11c.45,0,.55-1.77,2.11-4.84S284.65,112.38,285.17,110.45Z"/>
  <path class="cls-21" d="M277.89,103.08c1.18-8.84.55-16.84,0-16.86-.28,0-.36,2.06-1.41,6.86-1.1,5-1.65,5.64-2.18,8.39-1.24,6.35-.2,12.84.72,12.91S277.34,107.19,277.89,103.08Z"/>
  <path class="cls-16" d="M274.48,75.75c-1.62,4.79-3.51,5.68-5,9.33-2.49,6-1.16,12.47-.36,12.55.5.06,1.24-2.95,2.69-9,2.67-11.09,3.91-19.2,3.94-19.19A22.65,22.65,0,0,1,274.48,75.75Z"/>
  <path class="cls-21" d="M266.08,78.26c-3,4.24-4,9.57-3.26,9.93s3.56-3.28,5.38-7.17a26.34,26.34,0,0,0,2.51-12.74,16.66,16.66,0,0,1-1.25,5C268.42,75.67,267.32,76.52,266.08,78.26Z"/>
  <path class="cls-16" d="M262.17,71.2c-1.46,3.58-2.5,7.2-2.22,7.3s.9-2.39,3.23-5.74c1.55-2.22,2.41-2.79,3.05-4.66s.71-4.32.18-4.48C265.41,63.31,262.42,70.6,262.17,71.2Z"/>
  <path class="cls-21" d="M255.12,58.52c-2.27,4.08-.7,12.5.45,12.54s2.35-7.47,2.47-13.3c.06-3.48-.28-6.34-.52-6.34s-.15,1.63-.91,3.89A17.1,17.1,0,0,1,255.12,58.52Z"/>
  <path class="cls-16" d="M248.25,50.38c3.09,3.93-.06,11.42-.41,11.35s.83-2.64,0-6.47-3-6.16-2.47-6.59S247.26,49.13,248.25,50.38Z"/>
  <path class="cls-21" d="M241.48,52.79a36.61,36.61,0,0,1,2,3.21c2,3.44,3.23,5.29,3.09,5.39s-1.38-2.41-3.9-3.81A6.18,6.18,0,0,1,241,56.42a6.53,6.53,0,0,1-1.33-2c-.82-1.76-1.35-4.28-.83-4.51S240.52,51.44,241.48,52.79Z"/>
  <path class="cls-16" d="M250.81,72.49c-.21.27-1.41-.9-3.93-1.57-2.06-.55-3-.23-4.59-.39-4.35-.45-7.72-3.84-7.48-4.33s3.06,1.54,8.13,1.83a10.85,10.85,0,0,1,3.55.4C249.35,69.45,251.11,72.14,250.81,72.49Z"/>
  <path class="cls-16" d="M254.49,78.3c0,.45-5.51,2.1-11.15.23-1.26-.42-1-.49-6.17-2.76-4.28-1.86-5-2-5-2.36.12-.88,6.42-1.8,11.41.92,1.33.73,1.3,1,2.89,1.84C250.86,78.42,254.48,77.93,254.49,78.3Z"/>
  <path class="cls-16" d="M258,85.42c.06.54-3.11,1.33-5.25,1.64a19.75,19.75,0,0,1-9.13-.58,22.1,22.1,0,0,1-4.89-2.32c-1.44-.85-3.22-1.89-3.07-2.24.22-.55,4.78,1.48,11.53,2.49C253.63,85.36,258,84.79,258,85.42Z"/>
  <path class="cls-16" d="M261,92.17c.09.86-6.58,3.51-13.11,2-.4-.09-2.07-.64-5.4-1.74-7.12-2.35-7.41-2.64-7.38-2.74s1.31,0,3.81.33c2.65.34,5.32.58,8,.91C256.18,92.15,260.93,91.45,261,92.17Z"/>
  <path class="cls-16" d="M267.48,107.23a14.39,14.39,0,0,1-1.91-.91c-4.42-2-7.53-2-13.61-2.74-5.17-.66-7.76-1-10.63-2-4.26-1.55-8.16-4-8-4.46.13-.3,1.92.41,4.4.83,5.52.94,8.26-.59,11.83-.74C259.18,96.79,267.71,106.89,267.48,107.23Z"/>
  <path class="cls-16" d="M269.39,114.12c-.08.14-1.34-.72-3.57-1.41-3.9-1.21-5.78-.34-10.46-.75a25,25,0,0,1-7.46-1.58c-4.73-1.89-8.4-5.49-8-6.3.35-.61,2.85.8,9.11,2.24s7,.73,10.79,2.07C265.45,110.36,269.54,113.85,269.39,114.12Z"/>
  <path class="cls-16" d="M274.53,125.77c-.18.29-1.13-.23-3.69-.85-4.63-1.14-5.57-.44-7.55-1.33-3.71-1.65-5.85-6.52-4.92-7.55s5,1.32,7.65,2.83C270.65,121.51,274.93,125.11,274.53,125.77Z"/>
  <path class="cls-21" d="M287.74,119.59c2.78-4.84,3.43-9.78,3-9.93s-.88,2.36-3.46,5.57c-1.05,1.3-1.71,1.82-3.22,3.82a12.45,12.45,0,0,0-2.05,3.2c-.56,1.57-.29,2.6-.15,5,.25,4.08-.17,6.75,0,6.76s-.14-4.41,2.26-9.17C285.42,122.3,286.1,122.43,287.74,119.59Z"/>
  <path class="cls-21" d="M291.13,132.34c2.79-4.83,3.43-9.77,3-9.92s-.88,2.36-3.46,5.56c-1.05,1.3-1.7,1.82-3.22,3.82a12.37,12.37,0,0,0-2,3.21c-.57,1.57-.3,2.6-.15,5,.24,4.09-.18,6.75,0,6.77s-.15-4.41,2.25-9.17C288.81,135.05,289.49,135.18,291.13,132.34Z"/>
  <path class="cls-21" d="M296.39,141.29c4.47-5.92,5.51-12,4.83-12.15-.48-.13-1.4,2.89-5.56,6.81-1.68,1.6-2.73,2.23-5.17,4.68-1.82,1.83-2.74,2.76-3.28,3.92-.91,1.93-.48,3.18-.24,6.13.4,5-.29,8.26,0,8.28s-.24-5.4,3.62-11.23C292.66,144.61,293.76,144.77,296.39,141.29Z"/>
  <path class="cls-16" d="M179.8,129.63a23,23,0,0,1,7.76-.29c5.22.72,7.57,2.95,15.06,5.89,3.94,1.55,6.53,2.2,7.85,2.62,6.1,1.94,17.8,9.32,41.9,31.51"/>
  <path class="cls-16" d="M205,102.94c5.08,6.49,6,11.58,5.89,15.06-.08,2.34-.62,3.67-.66,6.76a29.27,29.27,0,0,0,2.54,12.1"/>
  <path class="cls-16" d="M224.14,111.22a29.62,29.62,0,0,0-3.63,3.5c-7.33,8.45-7.84,19.05-7.72,24"/>
  <path class="cls-16" d="M187.88,146.11c5-.7,7.12-2.49,8.11-4.06.73-1.15.9-2.24,2.12-3.7a10.9,10.9,0,0,1,4.51-3.12"/>
  <path class="cls-16" d="M212.79,138.75c1.14,1.4,2.46,3.48,1.9,5.42-.77,2.65-4.41,2.73-6.7,5.11-1.85,1.92-3.23,5.78-.9,14.32"/>
  <path class="cls-16" d="M219.11,142.22c4.36-3.51,7.65-4,9.86-3.7,3.54.42,5,2.73,9,3.35a14.66,14.66,0,0,0,8.64-1.53"/>
  <path class="cls-16" d="M226.1,147.06c-1.26,1.05-2.83,2.72-2.95,4.87-.16,3,2.69,4.51,4.23,8.11.89,2.07,1.56,5.31.17,10.23"/>
</svg>
